<?xml version="1.0" standalone="no"?>
<!DOCTYPE svg PUBLIC "-//W3C//DTD SVG 1.1//EN" "http://www.w3.org/Graphics/SVG/1.1/DTD/svg11.dtd" >
<svg xmlns="http://www.w3.org/2000/svg">
<metadata></metadata>
<defs>
<font id="lakesight_personal_use_onlyRg" horiz-adv-x="2045" >
<font-face units-per-em="2048" ascent="1536" descent="-512" />
<missing-glyph horiz-adv-x="536" />
<glyph unicode="&#xfb01;" horiz-adv-x="1013" d="M-213 -73.5q-6 22.5 23 81.5q27 57 65.5 147.5t87.5 198t108.5 227t128 236.5t144.5 224.5t160 191.5q53 53 104 72.5t90 11.5t62.5 -40t21.5 -79q0 -35 -24.5 -86t-64.5 -110.5t-91 -125t-102 -128.5q-123 -147 -279 -314q37 -55 79 -76.5t83 -18.5t77 25.5t60 57.5 q29 66 54.5 119t50.5 102q18 39 33.5 61.5t33 35t40 17.5t54.5 11q33 4 62 6t46 -5t18 -26.5t-19 -56.5q-20 -39 -46 -83t-50.5 -88t-48 -85t-41.5 -72q-18 -33 -35 -64.5t-26 -57t-4 -42t30 -16.5q39 0 85 20.5t93 55.5t90 80t74 96q20 33 41.5 44t36 3t16.5 -31.5 t-18 -58.5q-35 -63 -100.5 -132t-140.5 -125t-146.5 -93t-120.5 -37q-45 0 -82 12.5t-58.5 40t-25.5 68.5t16 100q-41 -25 -81 -35t-74.5 0.5t-62.5 46t-42 103.5q-16 -43 -32.5 -95.5t-35.5 -105.5q-20 -61 -53 -113.5t-108 -80.5q-31 -12 -66 -25.5t-59.5 -12.5 t-30.5 23.5zM322 670q27 31 67.5 80t84.5 104t87 112.5t76 105.5t49 83t8 45q-16 18 -58 -22.5t-95.5 -118.5t-111.5 -181.5t-107 -207.5zM761 1010.5q13 33.5 41.5 61.5t67.5 47.5t77 23.5t70 -9.5t48 -48.5q14 -35 2 -68.5t-42 -61t-70 -45t-78.5 -20.5t-70.5 9t-44 45 q-14 33 -1 66.5z" />
<glyph unicode="&#xfb02;" horiz-adv-x="1105" d="M-213 -73.5q-6 22.5 23 81.5q27 57 65.5 147.5t87.5 198t108.5 227t128 236.5t144.5 224.5t160 191.5q53 53 104 72.5t90 11.5t62.5 -40t21.5 -79q0 -35 -24.5 -86t-64.5 -110.5t-91 -125t-102 -128.5q-123 -147 -279 -314q31 -45 70 -54t82 3t87 37.5t83 54.5 q29 68 70.5 144.5t101.5 164.5q92 135 179 228.5t164 146.5t139.5 65.5t102.5 -14.5q68 -45 28 -147t-181 -232q-41 -37 -91 -76.5t-100.5 -78.5t-100.5 -75t-91 -66q-25 -55 -39 -107.5t-16 -96.5t8 -78t35 -52q23 -16 62.5 -9t88.5 36.5t101.5 80.5t101.5 121 q20 33 42.5 43t37 3t15.5 -30.5t-19 -58.5q-49 -84 -111.5 -154.5t-131.5 -122t-140.5 -81t-139.5 -29.5q-47 0 -84.5 21.5t-61.5 62.5t-29 103.5t14 146.5q-53 -39 -104.5 -71t-95.5 -39t-77 16.5t-49 95.5q-16 -43 -32.5 -95.5t-35.5 -105.5q-20 -61 -53 -113.5 t-108 -80.5q-31 -12 -66 -25.5t-59.5 -12.5t-30.5 23.5zM322 670q27 31 67.5 80t84.5 104t87 112.5t76 105.5t49 83t8 45q-16 18 -58 -22.5t-95.5 -118.5t-111.5 -181.5t-107 -207.5zM915 760q61 51 118 101t97.5 92t61 71t10.5 39q-12 8 -39.5 -13.5t-65.5 -64.5 t-85 -102.5t-97 -122.5z" />
<glyph horiz-adv-x="0" />
<glyph unicode="&#xd;" horiz-adv-x="1024" />
<glyph horiz-adv-x="0" />
<glyph horiz-adv-x="0" />
<glyph unicode=" "  horiz-adv-x="536" />
<glyph unicode="&#x09;" horiz-adv-x="536" />
<glyph unicode="&#xa0;" horiz-adv-x="536" />
<glyph unicode="!" horiz-adv-x="495" d="M47 154q0 63 45 108t107 45q63 0 108 -45t45 -108q0 -61 -45 -106.5t-108 -45.5q-61 0 -106.5 45.5t-45.5 106.5zM303 486.5q-10 19.5 2 43.5q8 16 29.5 60.5t52.5 104t66.5 130t71.5 141t67.5 136.5t56.5 115q18 37 54 64.5t77 44.5t82 24.5t68.5 2.5t36 -22.5 t-14.5 -46.5q-23 -31 -60.5 -85t-84.5 -122.5t-97.5 -143.5t-96.5 -144.5t-86 -129t-62 -96.5q-35 -55 -69 -76.5t-58.5 -20.5t-34.5 20.5z" />
<glyph unicode="&#x22;" horiz-adv-x="747" d="M137 631.5q2 23.5 31 58.5q61 80 76.5 128t14.5 83t-5.5 66.5t18.5 76.5q23 43 63 76t85 52.5t87 25.5t69.5 -5t31.5 -41t-26 -79q-78 -125 -143.5 -211t-119.5 -141q-61 -63 -102 -90t-61.5 -25t-18.5 25.5zM465 631.5q2 23.5 31 58.5q61 80 76.5 128t14.5 83t-5.5 66.5 t18.5 76.5q23 43 62.5 76t85 52.5t87.5 25.5t69.5 -5t31.5 -41t-27 -79q-78 -125 -143.5 -211t-118.5 -141q-61 -63 -102 -90t-61.5 -25t-18.5 25.5z" />
<glyph unicode="#" horiz-adv-x="974" d="M-6 273.5q-8 15.5 7 36t49 40t75 25.5q8 0 25 4l108 250h-51q-41 -2 -49 13t7 35.5t49 40t75 25.5q4 0 9 1t9 1l64 150q29 66 65.5 89.5t62 13t29.5 -51.5t-30 -102q-10 -18 -21.5 -41l-23.5 -47q47 2 95 3t95 1l57 135q29 66 66 89.5t62.5 13t29.5 -51.5t-31 -102 q-10 -18 -21 -40t-24 -46q45 -2 58.5 -19.5t2 -37t-42 -38t-73.5 -24.5l-115 -250h6q45 -2 58.5 -19.5t1.5 -39t-45 -40t-78 -22.5q-29 -55 -54.5 -104t-47.5 -84q-25 -37 -44.5 -49.5t-31.5 -6t-14.5 30t12.5 62.5q10 31 25.5 68.5t31.5 78.5q-53 0 -106.5 -1t-104.5 -1 q-27 -53 -51.5 -100t-46.5 -82q-25 -37 -44.5 -49.5t-31.5 -6t-14 30t12 62.5q10 31 24.5 66.5t30.5 76.5h-57q-41 -2 -49 13.5zM283 387q49 4 100 4h102l103 242q-49 0 -98.5 -1t-96.5 -1q-29 -59 -55.5 -120.5t-54.5 -123.5z" />
<glyph unicode="$" horiz-adv-x="1376" d="M118 260q-1 59 34 117q31 53 70.5 76.5t77.5 27.5t72 -7t52 -26.5t18 -32t-26 -22.5q-53 -10 -81 -51t-31 -90t18.5 -97.5t66.5 -72.5q35 72 83 162t99 188l-18 17q-90 66 -111.5 144.5t15.5 172.5q-39 33 -62 72q-29 43 -27.5 89t18.5 84t45 66.5t52.5 39.5t40 2 t8.5 -48q-8 -45 0.5 -83t26.5 -73q66 63 154 102.5t186 39.5q4 10 9.5 20.5t9.5 18.5q23 47 49 63.5t44.5 8t20.5 -38t-24 -72.5q-8 -8 -11 -17q76 -29 103.5 -89t6 -123.5t-91 -113.5t-188.5 -55q-10 0 -18 -1t-18 -1l-46 -84q96 -84 119 -164.5t-4 -175.5 q-16 -55 -54 -105t-88 -87t-108.5 -58.5t-115.5 -23.5q-45 0 -84 6l-37 -61q-35 -51 -56.5 -39t0.5 67q6 18 23 52q-66 25 -116 67.5t-77.5 96t-28.5 112.5zM467 63q16 0 27 3q59 8 104.5 39.5t63.5 78.5q20 47 16 92.5t-43 94.5q-47 -86 -89 -165t-79 -143zM635 678 q14 -23 41 -47l20 35zM657 817q43 -31 97 -43l86 168q-49 -12 -95.5 -40t-72.5 -64zM846 762h16.5t16.5 2q51 8 79.5 32.5t37 53.5t-5 54.5t-46.5 37.5q-23 -37 -46.5 -82t-51.5 -98z" />
<glyph unicode="%" horiz-adv-x="1134" d="M-43 43q4 20 27 45q29 29 102.5 94.5t170.5 150.5t209 181t215 185t188 163t130 117q43 41 87 48t69 -8t23 -47t-52 -69q-33 -25 -115.5 -93.5t-190 -157.5t-227.5 -190.5t-228.5 -190.5t-192.5 -156.5t-121 -91.5q-31 -20 -54.5 -21.5t-33.5 10t-6 31.5zM201 838 q0 41 18.5 76.5t49 63.5t72.5 43t89 15t88 -15t72 -43t49 -63.5t18 -76.5t-18 -77t-49 -63.5t-72 -43t-88 -15.5t-89 15.5t-72.5 43t-49 63.5t-18.5 77zM319 838q0 -41 32 -69t79 -28q45 0 78 28t33 69t-33 68.5t-78 27.5q-47 0 -79 -27.5t-32 -68.5zM467 201 q0 41 18.5 76.5t49 63.5t71.5 43t88 15t88 -15t72 -43t49.5 -63.5t18.5 -76.5t-18.5 -77t-49.5 -63.5t-72 -43t-88 -15.5t-88 15.5t-71.5 43t-49 63.5t-18.5 77zM584 201q0 -41 31.5 -69t78.5 -28t78 28t31 69t-31 68.5t-78 27.5t-78.5 -27.5t-31.5 -68.5z" />
<glyph unicode="&#x26;" horiz-adv-x="968" d="M-19.5 181.5q-15.5 99.5 33.5 221.5q25 61 63 106.5t85 77t100 50t109 25.5q-10 37 -7 75.5t13 77.5q-53 41 -90 98q-35 51 -33 105.5t22.5 100.5t53 81t62.5 48.5t48.5 2t10.5 -56.5q-10 -55 1 -103.5t35 -89.5q72 78 176.5 127.5t229.5 47.5q94 -2 156.5 -36t89 -85 t19.5 -111.5t-48 -113t-118 -88t-189 -40.5q-109 -4 -213 19q-8 -39 -8 -82q49 -14 68.5 -36.5t16.5 -44t-26 -39t-55.5 -24t-73.5 4t-80 45.5q-94 -37 -144 -125t-55.5 -182.5t37.5 -167t136 -78.5q94 -6 161.5 40t100 110.5t27.5 131t-54 101.5q-29 18 -27 41.5t39 46.5 q16 10 57.5 28.5t95.5 41t116.5 46t120 43t104.5 31t74 9.5q23 -2 23.5 -21.5t-11.5 -49.5t-34.5 -64.5t-50.5 -63.5t-55.5 -49.5t-50.5 -20.5l-258 -12q31 -4 62 -22.5t35 -34.5q23 -90 -8 -173t-99.5 -146.5t-165 -100.5t-202.5 -37t-199.5 38t-152 107.5t-74 169z M647 862q109 -51 215 -35q80 12 122 50t45 76t-34.5 64.5t-113.5 20.5q-72 -6 -132.5 -56t-101.5 -120z" />
<glyph unicode="'" horiz-adv-x="14" d="M-76 631.5q2 23.5 31 58.5q61 80 76.5 128t14.5 83t-5.5 66.5t18.5 76.5q23 43 63 76t85 52.5t87 25.5t69.5 -5t31.5 -41t-26 -79q-78 -125 -143.5 -211t-119.5 -141q-61 -63 -102 -90t-61.5 -25t-18.5 25.5z" />
<glyph unicode="(" horiz-adv-x="933" d="M130 192.5q1 114.5 53.5 240.5t169 249t302 235.5t449.5 200.5q59 18 94 17.5t40 -15t-21.5 -38t-92.5 -48.5q-156 -57 -285.5 -146t-227 -194.5t-162 -221.5t-91 -226.5t-13.5 -209.5t71 -173q29 -37 27.5 -57.5t-21 -25.5t-51 5t-64.5 37q-84 63 -131 159.5t-46 211z " />
<glyph unicode=")" horiz-adv-x="825" d="M-396 -198.5q-5 14.5 21.5 38t91.5 47.5q156 57 286 146.5t227.5 195t162 221t91 226t13 210t-70.5 173.5q-29 37 -28 57.5t20.5 25.5t51.5 -5.5t65 -36.5q84 -63 131 -159.5t46 -211.5t-53.5 -241t-169 -248.5t-302 -235.5t-449.5 -201q-59 -18 -94 -17t-40 15.5z" />
<glyph unicode="*" horiz-adv-x="966" d="M141 494.5q-6 13.5 5.5 32t35 36t51.5 25.5q14 4 39 6t56 6q-41 53 -49 84q-6 23 2 50.5t24.5 53t39 46t43 29.5t35.5 2t21 -34q4 -35 18.5 -77.5t37.5 -89.5q47 47 85 92t60 82q27 43 58.5 32.5t52 -47.5t24.5 -86t-22 -86q-8 -10 -19.5 -20t-25.5 -23q18 0 34.5 -1 t28.5 -1q33 -2 42 -18.5t0 -36t-34.5 -35.5t-58.5 -18q-23 -2 -59.5 -4t-77.5 -2q20 -35 35.5 -63t25.5 -42q16 -23 9 -43t-25.5 -30.5t-40 -7.5t-35.5 30q-8 12 -32.5 41t-57.5 63q-63 -41 -112.5 -71.5t-65.5 -44.5q-25 -25 -50.5 -25t-41 14.5t-14.5 38t30 45.5l102 90 q-49 -2 -85.5 -3t-53.5 -1q-29 -2 -35 11.5z" />
<glyph unicode="+" horiz-adv-x="899" d="M131 376q-6 13 5 31.5t35 36t52 25.5q27 6 85.5 10t129.5 6q27 61 50.5 113.5t39.5 83.5t41 44t45.5 11t31.5 -19t-1 -48q-10 -29 -29.5 -77t-44.5 -106h117.5t85.5 -2q33 -2 42 -18t0 -35.5t-34.5 -36t-58.5 -18.5q-33 -4 -87 -5t-118 -3q-31 -68 -59.5 -122t-44.5 -77 q-18 -25 -44 -36t-45.5 -11t-28.5 12t3 39l86 195q-76 -2 -136.5 -2t-82.5 -2q-29 -2 -35 11z" />
<glyph unicode="," horiz-adv-x="571" d="M-37 -263.5q2 23.5 31 58.5q61 80 76.5 128t14.5 83t-5.5 67t18.5 77q23 43 63 75.5t85 52t87 25.5t69.5 -5t31.5 -41t-26 -79q-78 -125 -143.5 -211t-119.5 -141q-61 -63 -102 -90t-61.5 -25t-18.5 25.5z" />
<glyph unicode="-" horiz-adv-x="712" d="M131 361.5q-6 19.5 5 46t35 50t52 31.5q31 8 75 12.5t91 6.5t94 1t86 -3q33 -2 42.5 -24.5t0 -50.5t-35 -50.5t-58.5 -24.5q-43 -4 -94 -5t-100.5 -2t-91.5 -2t-66 -3q-29 -2 -35 17.5z" />
<glyph unicode="." horiz-adv-x="536" d="M47 154q0 63 45 108t107 45q63 0 108 -45t45 -108q0 -61 -45 -106.5t-108 -45.5q-61 0 -106.5 45.5t-45.5 106.5z" />
<glyph unicode="/" horiz-adv-x="1046" d="M-211 -146.5q6 23.5 33 54.5q31 37 114.5 125t196.5 201.5t240 243.5t245.5 250t215 218.5t147.5 151.5q49 51 91 61t62.5 -8t11.5 -58t-65 -87q-29 -25 -88 -82.5t-139 -136t-174 -172t-192.5 -190.5t-193.5 -191.5t-176 -172t-142.5 -135t-92.5 -80.5 q-35 -25 -58.5 -30.5t-32.5 4.5t-3 33.5z" />
<glyph unicode="0" d="M16 903q78 41 153 76t161 59q6 0 10 22.5t9 50.5t9 53.5t9 35.5q12 18 31.5 32.5t42 26t46 20.5t41.5 17q98 41 198.5 70t205.5 55q104 25 208.5 43.5t211.5 28.5q37 4 89 9t105 4t101.5 -13t78.5 -43q4 -6 -1 -32.5t-7 -37.5l-6 -108q0 -4 4 -4q88 -25 170 -65t137 -116 v-2q-18 4 -41.5 -4t-46 -22.5t-42 -30.5t-29.5 -29q33 -18 54 -53t30.5 -75t8.5 -80.5t-13 -73.5q-18 47 -55.5 73.5t-83.5 39t-95 16.5t-92 6q-49 4 -104.5 2t-102.5 14q-18 6 -25.5 29t-8.5 48.5t3 51t6 41.5q-205 -16 -404.5 -62t-389.5 -114q-8 -2 -8 -6q2 -12 8 -38.5 t11 -55.5t6 -53.5t-7 -32.5q-25 -20 -63.5 -24.5t-71.5 -8.5q-43 -6 -88 -12t-88 -15q-78 -16 -144 -43q-16 -8 -31.5 -15t-31.5 -17q-8 -8 -19.5 -21.5t-19.5 -17.5q12 37 27.5 73.5t29.5 71.5q2 6 14.5 27.5t25 45t20.5 44t6 24.5q-29 39 -66 75t-86 40zM74 -147h51 q4 -45 8 -92.5t12 -92.5q4 47 11.5 93t15.5 92h43l27 -185q4 47 9 93t11 92h47l-47 -248h-47q-8 41 -13 82t-12 82q-4 -41 -11 -82t-15 -82h-47zM78 911q39 -23 68.5 -53.5t52.5 -66.5q2 -4 -4.5 -18.5t-15.5 -31t-18 -32t-11 -21.5q-12 -25 -23.5 -51.5t-22.5 -52.5 q55 29 116 42t121 21t120.5 17.5t120.5 27.5q-18 20 -51 28.5t-70 9.5t-73 -3t-60 -6v145.5t4 145.5q-66 -16 -129.5 -42t-124.5 -59zM315 -147h52q4 -45 8 -92.5t12 -92.5q4 47 11.5 93t15.5 92h43l26 -185q4 47 9.5 93t11.5 92h47l-47 -248h-47q-8 41 -13.5 82t-11.5 82 q-4 -41 -11 -82t-13 -82h-50zM356 788q10 0 25.5 7.5t32 16.5t32 19.5t25.5 14.5q41 18 84 32.5t84 30.5q172 51 350 92q86 18 172 35t174 25q82 8 173 11t169 -32q6 61 6 125t5 123q2 33 4 64.5t6 62.5q2 14 -7.5 24.5t-22.5 16.5t-29.5 8t-28.5 4q-133 20 -274.5 1 t-272.5 -46q-143 -29 -283.5 -67.5t-275.5 -98.5q-25 -12 -51.5 -25t-49.5 -32q-23 -20 -27.5 -55t-8.5 -62q-10 -74 -10.5 -147.5t-0.5 -147.5zM385 918q0 23 17.5 41t39.5 22q6 2 16.5 -3t6.5 -15q-16 -8 -27 -9q-12 -4 -17 -18t3 -25q4 -6 18 -10q20 -2 36 13.5t25 37 t15 45t10 39.5q-31 -31 -67 -39q-12 -2 -25.5 0t-23.5 13q-18 10 -19 41q0 31 15 57q31 68 96 109q14 8 28.5 15t30.5 11q10 4 23.5 13.5t23.5 11.5q12 -1 6 -15q14 0 23 -2q18 -2 30.5 -16t14.5 -35q4 -25 -3 -48.5t-21.5 -45t-34 -38.5t-39.5 -30q-20 -14 -31.5 -35.5 t-21 -43t-22.5 -42t-38 -32.5q-25 -16 -59 -11q-33 10 -29 44zM427 1041.5q3 -17.5 26 -17.5q33 0 54 22.5t33.5 53t19.5 64.5t13 57q-31 -8 -57.5 -27.5t-48.5 -42.5q-6 -8 -17.5 -28.5t-18.5 -42t-4 -39zM557 -147h51q4 -45 9.5 -92.5t11.5 -92.5q4 47 11 93t15 92h43 l27 -185q4 47 9 93t14 92h45l-45 -248h-50q-8 41 -13 82t-11 82q-4 -41 -11.5 -82t-13.5 -82h-49zM567 1057q16 4 32.5 20.5t28 38t16.5 45t-1 39.5q-6 25 -35 25q-16 -41 -23.5 -84t-17.5 -84zM625 155q2 38 2 66q0 23 -1 43.5t1 42.5q0 55 29.5 75.5t80.5 20.5 q43 0 61.5 -22.5t24.5 -56t4 -71.5t-2 -67v-88q0 -53 -29.5 -74.5t-78.5 -19.5q-43 0 -62.5 22.5t-25.5 56.5t-4 72zM675 1057.5q-5 23.5 7 51.5t34.5 51.5t47.5 25.5q14 0 18 -12q12 -12 2 -31q-6 -25 -29.5 -44.5t-47.5 -25.5q2 -12 11 -14t19.5 3t19.5 12t13 11 q27 23 40 51.5t24 57.5q2 2 -2.5 10t-8.5 17.5t-8 19.5t-2 16q4 12 15.5 20.5t23.5 6.5q14 0 16 -14q6 -12 4 -25.5t-4 -27.5q23 4 33 0.5t-4 -31.5q-10 -18 -20.5 -37t-12.5 -41q0 -10 8 -10q25 -2 40.5 20.5t27.5 52t24.5 57t28.5 38.5q8 2 17 -2q6 -8 2 -15 q-4 -14 -10.5 -23t-2.5 -26q6 -14 14.5 -28.5t6.5 -30.5h2q12 12 20.5 30.5t16.5 37t19.5 33.5t29.5 24q41 14 55 -23q10 -16 6 -28.5t-2 -30.5q12 2 17 10q16 14 19 38.5t9 45.5q4 6 12.5 7t14.5 -1q10 -2 8 -14v-2q12 12 27 18q25 12 33 -14q4 -12 1 -24.5t-9.5 -25 t-11.5 -24.5t-3 -27q16 12 26.5 29t19.5 34t20.5 32.5t27.5 25.5q25 14 58 0q4 8 19 9.5t11 -15.5q-4 -23 -16 -44t-12 -44q0 -6 3 -7t7 3q23 23 34 53.5t21 62t26.5 59.5t47.5 46q16 8 27 -8q14 -27 3.5 -54.5t-26.5 -45.5q-8 -10 -21.5 -22.5t-25.5 -27t-21.5 -29 t-5.5 -28.5q2 -18 25 -14q16 6 23.5 20.5t17.5 28.5q4 4 14 2q8 0 8 -10l-4 -15q-20 -43 -59 -59q-14 -8 -26.5 -3t-20.5 19q-6 3 -6 13q-10 -10 -17.5 -18.5t-21.5 -12.5q-10 -4 -17.5 0t-13.5 10q-6 -4 -14.5 -9t-18.5 -7q-35 -6 -47 22v2q-10 -10 -19.5 -18t-25.5 -12 q-14 -8 -29 12q-6 12 -3 24.5t9.5 24.5t10.5 25.5t2 25.5q-18 -8 -27.5 -21t-13.5 -28.5t-6 -32t-8 -30.5q-8 -16 -29 -11q-8 2 -8 13q0 4 1 9t1 9q-16 -4 -21.5 -4t-17.5 -12q-10 -12 -26.5 -21.5t-35.5 -9.5q-12 2 -18 9t-12 18q-18 -20 -44 -38t-55 -14q-14 2 -28 21 q-12 -14 -25.5 -25.5t-30.5 -15.5q-16 -6 -25 0t-11 23q-4 29 9 49t23 43q2 4 -3 5t-7 -3q-8 -23 -19.5 -49.5t-28.5 -50t-40 -39t-53 -13.5q-35 2 -40 25.5zM686 181q-2 -42 2 -83q0 -16 10.5 -28.5t23.5 -17.5t25.5 1t16.5 27q4 14 3 30.5t-1 32.5v164q0 18 -10.5 30.5 t-24.5 16.5t-26.5 -2t-16.5 -24q-2 -16 -1 -32.5t1 -31.5q0 -41 -2 -83zM702 463q12 16 16.5 40.5t3.5 52.5t-4 55.5t-3 45.5v140q0 16 1 32.5t-14 32.5h84q-14 -14 -12 -35.5t2 -42.5v-155q0 -20 -2 -56t10 -53q8 -12 20.5 -13t24 5t19.5 16.5t10 20.5q8 29 3 60.5t-9 60.5 q-4 16 -11 42.5t-10.5 53.5t2 51.5t23.5 36.5q12 10 35.5 11t32.5 -19q6 -18 -2.5 -23.5t-20.5 -4.5t-20.5 8.5t2.5 17.5q-18 -10 -19.5 -33t7 -48.5t19.5 -50t15 -38.5q14 -41 19.5 -97.5t-23.5 -93.5q-12 -16 -37.5 -21t-55.5 -5t-58.5 3t-47.5 3zM707 1098 q12 -2 30.5 17.5t20.5 29.5q4 8 -2 13t-15 -1q-12 -10 -20 -26.5t-14 -32.5zM772 -365q0 16 10.5 24.5t23.5 8.5t23.5 -8t10.5 -25q0 -16 -10.5 -25t-23.5 -9t-23.5 9t-10.5 25zM840 1249q-2 -10 4 -22h4q0 8 2 14t-2 14q-6 0 -8 -6zM844 4q12 14 15 38t2 50.5t-4 51 t-3 42.5v193q0 10 -10 24h63q31 -14 56.5 -57t40.5 -74q0 29 2 68t-15 63h84q-14 -12 -13 -27.5t1 -31.5v-274q0 -16 -1 -35t13 -31h-231zM862 -395l66 248h71l66 -248h-57l-17 57h-57l-12 -57h-60zM915 53q0 -16 13.5 -26.5t29 -12.5t30 3.5t16.5 21.5q-4 72 -22.5 143.5 t-66.5 126.5v-256zM939 564.5q-3 21.5 7 33.5q6 6 16.5 10t20.5 4t18.5 -5t10.5 -17q0 -12 -7.5 -17.5t-16.5 -5.5t-16 5.5t-7 15.5q-14 -4 -14.5 -16.5t8 -24.5t19.5 -21.5t19 -11.5q16 -4 39 -3t33 11q25 25 19.5 46.5t-22.5 41t-39.5 34.5t-35.5 28q-20 18 -32.5 47 t-13.5 57.5t13.5 52t49.5 31.5q29 6 59.5 4t58.5 -2l-6 -10q0 -16 8.5 -32.5t14.5 -34t5 -34t-18 -30.5q-16 -10 -37.5 -9t-23.5 23q0 12 8 19.5t17.5 7.5t16.5 -6t5 -17q14 2 14 13.5t-8 23.5t-20 23.5t-21 13.5q-16 4 -36.5 0t-26.5 -20q-14 -29 -5 -48.5t27.5 -36 t42 -30.5t35.5 -31q16 -23 24.5 -52.5t4.5 -58t-22.5 -49t-53.5 -24.5q-29 -2 -59.5 -1t-59.5 1q8 4 5 20.5t-9 38t-9 43zM940 -295h45q-10 49 -22 102zM948 1126q4 -14 18.5 -12t16.5 16q2 23 -12 50q-6 -10 -15.5 -26.5t-7.5 -27.5zM1079 1176l4 -15q10 -18 27 -8 q16 6 25.5 24.5t5.5 36.5q-2 12 -10.5 19.5t-24.5 -4.5q-23 -18 -27 -53zM1085 4q12 16 16.5 41t3.5 52.5t-4 54t-3 45.5v139q0 18 1 34.5t-14 32.5h84q-12 -12 -15 -34.5t-2 -47t4 -49t3 -39.5v-182h115q25 0 62.5 -3t60.5 13q-4 -10 -8.5 -33.5t-14.5 -23.5h-289z M1096 -150q31 4 70.5 6.5t68.5 -16.5q35 -25 27 -64t-41 -55q16 -6 23 -20t11.5 -31.5t6.5 -35t8 -29.5h-58q-6 12 -9 29.5t-7 33t-13 24.5t-30 7v-94h-57v245zM1151 -218q0 -11 1 -22.5t1 -17.5h14q20 0 29.5 11t7.5 25.5t-13 25t-30 8.5q-6 0 -8 -9.5t-2 -20.5zM1161 463 q12 12 12.5 27.5t0.5 31.5v275v33.5t-13 31.5h142q27 -29 27.5 -66.5t-11.5 -74.5q-4 -10 -16.5 -33.5t-22.5 -50.5t-13 -49.5t11 -30.5q-6 12 6 14t24.5 -3t15.5 -15t-19 -21q-29 -10 -40.5 10.5t-9.5 41.5q2 18 8.5 36.5t9.5 34t-4 24.5t-34 7v-174q20 0 48 -3t48 11 q-6 -14 -9 -27.5t-7 -29.5h-154zM1196 403h88q-14 -31 1 -72.5t30 -68.5q14 33 24.5 70t-0.5 71h91q-25 -14 -30 -43.5t-11 -52.5q-8 -23 -27 -53.5t-19 -52.5q0 -25 -3 -63t14 -58h-84q20 20 16 60t-4 65q-14 25 -24.5 50.5t-20.5 51.5q-10 27 -14 53.5t-27 42.5zM1235 735 h25.5t25.5 3t21.5 11.5t9.5 24.5q2 18 -6 26.5t-21.5 11.5t-28 3h-26.5v-80zM1303 -147h57v-248h-57v248zM1358 1197q0 -9 3 -15t9 -8.5t16 6.5q14 12 23.5 34.5t11.5 42.5q-2 10 -4 15.5t-12 1.5q-20 -8 -30.5 -24.5t-14.5 -37.5q-2 -6 -2 -15zM1393 -365q0 16 10 24.5 t23.5 8.5t23.5 -8t10 -25q0 -16 -10 -25t-23.5 -9t-23.5 9t-10 25zM1415 903q-8 -6 4 -8q31 -12 65 -16.5t68.5 -4.5t69.5 1.5t66 -1.5q70 -4 129 -20q33 -10 57 -26.5t53 -30.5q0 68 -23.5 118t-88.5 74q37 35 75.5 67t85.5 48q-55 53 -123.5 85t-140.5 52 q-4 -63 -5 -125.5t-5 -126.5l-2 2v-6q-31 -2 -72 -4t-82 -10t-76.5 -24.5t-54.5 -43.5zM1493 -147h63l76 -168q-4 41 -4 84v84h51v-248h-57q-23 43 -40 87t-40 85q4 -43 4 -86v-86h-53v248zM1524 1286q18 23 35.5 45t21.5 51h-2q-41 -43 -55 -96zM1712 -298q-8 40 17 89 q14 33 45.5 48.5t68.5 15.5h11.5t20.5 -2.5t18.5 -4.5t7.5 -6l-11 -45q-29 14 -53.5 10t-39.5 -20t-21.5 -42t2.5 -52q16 -51 67 -45q12 2 10 23.5t-2 29.5h-30v47h84v-135q-45 -16 -87 -9t-71 32.5t-37 65.5z" />
<glyph unicode="1" d="M16 903q78 41 153 76t161 59q6 0 10 22.5t9 50.5t9 53.5t9 35.5q12 18 31.5 32.5t42 26t46 20.5t41.5 17q98 41 198.5 70t205.5 55q104 25 208.5 43.5t211.5 28.5q37 4 89 9t105 4t101.5 -13t78.5 -43q4 -6 -1 -32.5t-7 -37.5l-6 -108q0 -4 4 -4q88 -25 170 -65t137 -116 v-2q-18 4 -41.5 -4t-46 -22.5t-42 -30.5t-29.5 -29q33 -18 54 -53t30.5 -75t8.5 -80.5t-13 -73.5q-18 47 -55.5 73.5t-83.5 39t-95 16.5t-92 6q-49 4 -104.5 2t-102.5 14q-18 6 -25.5 29t-8.5 48.5t3 51t6 41.5q-205 -16 -404.5 -62t-389.5 -114q-8 -2 -8 -6q2 -12 8 -38.5 t11 -55.5t6 -53.5t-7 -32.5q-25 -20 -63.5 -24.5t-71.5 -8.5q-43 -6 -88 -12t-88 -15q-78 -16 -144 -43q-16 -8 -31.5 -15t-31.5 -17q-8 -8 -19.5 -21.5t-19.5 -17.5q12 37 27.5 73.5t29.5 71.5q2 6 14.5 27.5t25 45t20.5 44t6 24.5q-29 39 -66 75t-86 40zM74 -147h51 q4 -45 8 -92.5t12 -92.5q4 47 11.5 93t15.5 92h43l27 -185q4 47 9 93t11 92h47l-47 -248h-47q-8 41 -13 82t-12 82q-4 -41 -11 -82t-15 -82h-47zM78 911q39 -23 68.5 -53.5t52.5 -66.5q2 -4 -4.5 -18.5t-15.5 -31t-18 -32t-11 -21.5q-12 -25 -23.5 -51.5t-22.5 -52.5 q55 29 116 42t121 21t120.5 17.5t120.5 27.5q-18 20 -51 28.5t-70 9.5t-73 -3t-60 -6v145.5t4 145.5q-66 -16 -129.5 -42t-124.5 -59zM315 -147h52q4 -45 8 -92.5t12 -92.5q4 47 11.5 93t15.5 92h43l26 -185q4 47 9.5 93t11.5 92h47l-47 -248h-47q-8 41 -13.5 82t-11.5 82 q-4 -41 -11 -82t-13 -82h-50zM356 788q10 0 25.5 7.5t32 16.5t32 19.5t25.5 14.5q41 18 84 32.5t84 30.5q172 51 350 92q86 18 172 35t174 25q82 8 173 11t169 -32q6 61 6 125t5 123q2 33 4 64.5t6 62.5q2 14 -7.5 24.5t-22.5 16.5t-29.5 8t-28.5 4q-133 20 -274.5 1 t-272.5 -46q-143 -29 -283.5 -67.5t-275.5 -98.5q-25 -12 -51.5 -25t-49.5 -32q-23 -20 -27.5 -55t-8.5 -62q-10 -74 -10.5 -147.5t-0.5 -147.5zM385 918q0 23 17.5 41t39.5 22q6 2 16.5 -3t6.5 -15q-16 -8 -27 -9q-12 -4 -17 -18t3 -25q4 -6 18 -10q20 -2 36 13.5t25 37 t15 45t10 39.5q-31 -31 -67 -39q-12 -2 -25.5 0t-23.5 13q-18 10 -19 41q0 31 15 57q31 68 96 109q14 8 28.5 15t30.5 11q10 4 23.5 13.5t23.5 11.5q12 -1 6 -15q14 0 23 -2q18 -2 30.5 -16t14.5 -35q4 -25 -3 -48.5t-21.5 -45t-34 -38.5t-39.5 -30q-20 -14 -31.5 -35.5 t-21 -43t-22.5 -42t-38 -32.5q-25 -16 -59 -11q-33 10 -29 44zM427 1041.5q3 -17.5 26 -17.5q33 0 54 22.5t33.5 53t19.5 64.5t13 57q-31 -8 -57.5 -27.5t-48.5 -42.5q-6 -8 -17.5 -28.5t-18.5 -42t-4 -39zM557 -147h51q4 -45 9.5 -92.5t11.5 -92.5q4 47 11 93t15 92h43 l27 -185q4 47 9 93t14 92h45l-45 -248h-50q-8 41 -13 82t-11 82q-4 -41 -11.5 -82t-13.5 -82h-49zM567 1057q16 4 32.5 20.5t28 38t16.5 45t-1 39.5q-6 25 -35 25q-16 -41 -23.5 -84t-17.5 -84zM625 155q2 38 2 66q0 23 -1 43.5t1 42.5q0 55 29.5 75.5t80.5 20.5 q43 0 61.5 -22.5t24.5 -56t4 -71.5t-2 -67v-88q0 -53 -29.5 -74.5t-78.5 -19.5q-43 0 -62.5 22.5t-25.5 56.5t-4 72zM675 1057.5q-5 23.5 7 51.5t34.5 51.5t47.5 25.5q14 0 18 -12q12 -12 2 -31q-6 -25 -29.5 -44.5t-47.5 -25.5q2 -12 11 -14t19.5 3t19.5 12t13 11 q27 23 40 51.5t24 57.5q2 2 -2.5 10t-8.5 17.5t-8 19.5t-2 16q4 12 15.5 20.5t23.5 6.5q14 0 16 -14q6 -12 4 -25.5t-4 -27.5q23 4 33 0.5t-4 -31.5q-10 -18 -20.5 -37t-12.5 -41q0 -10 8 -10q25 -2 40.5 20.5t27.5 52t24.5 57t28.5 38.5q8 2 17 -2q6 -8 2 -15 q-4 -14 -10.5 -23t-2.5 -26q6 -14 14.5 -28.5t6.5 -30.5h2q12 12 20.5 30.5t16.5 37t19.5 33.5t29.5 24q41 14 55 -23q10 -16 6 -28.5t-2 -30.5q12 2 17 10q16 14 19 38.5t9 45.5q4 6 12.5 7t14.5 -1q10 -2 8 -14v-2q12 12 27 18q25 12 33 -14q4 -12 1 -24.5t-9.5 -25 t-11.5 -24.5t-3 -27q16 12 26.5 29t19.5 34t20.5 32.5t27.5 25.5q25 14 58 0q4 8 19 9.5t11 -15.5q-4 -23 -16 -44t-12 -44q0 -6 3 -7t7 3q23 23 34 53.5t21 62t26.5 59.5t47.5 46q16 8 27 -8q14 -27 3.5 -54.5t-26.5 -45.5q-8 -10 -21.5 -22.5t-25.5 -27t-21.5 -29 t-5.5 -28.5q2 -18 25 -14q16 6 23.5 20.5t17.5 28.5q4 4 14 2q8 0 8 -10l-4 -15q-20 -43 -59 -59q-14 -8 -26.5 -3t-20.5 19q-6 3 -6 13q-10 -10 -17.5 -18.5t-21.5 -12.5q-10 -4 -17.5 0t-13.5 10q-6 -4 -14.5 -9t-18.5 -7q-35 -6 -47 22v2q-10 -10 -19.5 -18t-25.5 -12 q-14 -8 -29 12q-6 12 -3 24.5t9.5 24.5t10.5 25.5t2 25.5q-18 -8 -27.5 -21t-13.5 -28.5t-6 -32t-8 -30.5q-8 -16 -29 -11q-8 2 -8 13q0 4 1 9t1 9q-16 -4 -21.5 -4t-17.5 -12q-10 -12 -26.5 -21.5t-35.5 -9.5q-12 2 -18 9t-12 18q-18 -20 -44 -38t-55 -14q-14 2 -28 21 q-12 -14 -25.5 -25.5t-30.5 -15.5q-16 -6 -25 0t-11 23q-4 29 9 49t23 43q2 4 -3 5t-7 -3q-8 -23 -19.5 -49.5t-28.5 -50t-40 -39t-53 -13.5q-35 2 -40 25.5zM686 181q-2 -42 2 -83q0 -16 10.5 -28.5t23.5 -17.5t25.5 1t16.5 27q4 14 3 30.5t-1 32.5v164q0 18 -10.5 30.5 t-24.5 16.5t-26.5 -2t-16.5 -24q-2 -16 -1 -32.5t1 -31.5q0 -41 -2 -83zM702 463q12 16 16.5 40.5t3.5 52.5t-4 55.5t-3 45.5v140q0 16 1 32.5t-14 32.5h84q-14 -14 -12 -35.5t2 -42.5v-155q0 -20 -2 -56t10 -53q8 -12 20.5 -13t24 5t19.5 16.5t10 20.5q8 29 3 60.5t-9 60.5 q-4 16 -11 42.5t-10.5 53.5t2 51.5t23.5 36.5q12 10 35.5 11t32.5 -19q6 -18 -2.5 -23.5t-20.5 -4.5t-20.5 8.5t2.5 17.5q-18 -10 -19.5 -33t7 -48.5t19.5 -50t15 -38.5q14 -41 19.5 -97.5t-23.5 -93.5q-12 -16 -37.5 -21t-55.5 -5t-58.5 3t-47.5 3zM707 1098 q12 -2 30.5 17.5t20.5 29.5q4 8 -2 13t-15 -1q-12 -10 -20 -26.5t-14 -32.5zM772 -365q0 16 10.5 24.5t23.5 8.5t23.5 -8t10.5 -25q0 -16 -10.5 -25t-23.5 -9t-23.5 9t-10.5 25zM840 1249q-2 -10 4 -22h4q0 8 2 14t-2 14q-6 0 -8 -6zM844 4q12 14 15 38t2 50.5t-4 51 t-3 42.5v193q0 10 -10 24h63q31 -14 56.5 -57t40.5 -74q0 29 2 68t-15 63h84q-14 -12 -13 -27.5t1 -31.5v-274q0 -16 -1 -35t13 -31h-231zM862 -395l66 248h71l66 -248h-57l-17 57h-57l-12 -57h-60zM915 53q0 -16 13.5 -26.5t29 -12.5t30 3.5t16.5 21.5q-4 72 -22.5 143.5 t-66.5 126.5v-256zM939 564.5q-3 21.5 7 33.5q6 6 16.5 10t20.5 4t18.5 -5t10.5 -17q0 -12 -7.5 -17.5t-16.5 -5.5t-16 5.5t-7 15.5q-14 -4 -14.5 -16.5t8 -24.5t19.5 -21.5t19 -11.5q16 -4 39 -3t33 11q25 25 19.5 46.5t-22.5 41t-39.5 34.5t-35.5 28q-20 18 -32.5 47 t-13.5 57.5t13.5 52t49.5 31.5q29 6 59.5 4t58.5 -2l-6 -10q0 -16 8.5 -32.5t14.5 -34t5 -34t-18 -30.5q-16 -10 -37.5 -9t-23.5 23q0 12 8 19.5t17.5 7.5t16.5 -6t5 -17q14 2 14 13.5t-8 23.5t-20 23.5t-21 13.5q-16 4 -36.5 0t-26.5 -20q-14 -29 -5 -48.5t27.5 -36 t42 -30.5t35.5 -31q16 -23 24.5 -52.5t4.5 -58t-22.5 -49t-53.5 -24.5q-29 -2 -59.5 -1t-59.5 1q8 4 5 20.5t-9 38t-9 43zM940 -295h45q-10 49 -22 102zM948 1126q4 -14 18.5 -12t16.5 16q2 23 -12 50q-6 -10 -15.5 -26.5t-7.5 -27.5zM1079 1176l4 -15q10 -18 27 -8 q16 6 25.5 24.5t5.5 36.5q-2 12 -10.5 19.5t-24.5 -4.5q-23 -18 -27 -53zM1085 4q12 16 16.5 41t3.5 52.5t-4 54t-3 45.5v139q0 18 1 34.5t-14 32.5h84q-12 -12 -15 -34.5t-2 -47t4 -49t3 -39.5v-182h115q25 0 62.5 -3t60.5 13q-4 -10 -8.5 -33.5t-14.5 -23.5h-289z M1096 -150q31 4 70.5 6.5t68.5 -16.5q35 -25 27 -64t-41 -55q16 -6 23 -20t11.5 -31.5t6.5 -35t8 -29.5h-58q-6 12 -9 29.5t-7 33t-13 24.5t-30 7v-94h-57v245zM1151 -218q0 -11 1 -22.5t1 -17.5h14q20 0 29.5 11t7.5 25.5t-13 25t-30 8.5q-6 0 -8 -9.5t-2 -20.5zM1161 463 q12 12 12.5 27.5t0.5 31.5v275v33.5t-13 31.5h142q27 -29 27.5 -66.5t-11.5 -74.5q-4 -10 -16.5 -33.5t-22.5 -50.5t-13 -49.5t11 -30.5q-6 12 6 14t24.5 -3t15.5 -15t-19 -21q-29 -10 -40.5 10.5t-9.5 41.5q2 18 8.5 36.5t9.5 34t-4 24.5t-34 7v-174q20 0 48 -3t48 11 q-6 -14 -9 -27.5t-7 -29.5h-154zM1196 403h88q-14 -31 1 -72.5t30 -68.5q14 33 24.5 70t-0.5 71h91q-25 -14 -30 -43.5t-11 -52.5q-8 -23 -27 -53.5t-19 -52.5q0 -25 -3 -63t14 -58h-84q20 20 16 60t-4 65q-14 25 -24.5 50.5t-20.5 51.5q-10 27 -14 53.5t-27 42.5zM1235 735 h25.5t25.5 3t21.5 11.5t9.5 24.5q2 18 -6 26.5t-21.5 11.5t-28 3h-26.5v-80zM1303 -147h57v-248h-57v248zM1358 1197q0 -9 3 -15t9 -8.5t16 6.5q14 12 23.5 34.5t11.5 42.5q-2 10 -4 15.5t-12 1.5q-20 -8 -30.5 -24.5t-14.5 -37.5q-2 -6 -2 -15zM1393 -365q0 16 10 24.5 t23.5 8.5t23.5 -8t10 -25q0 -16 -10 -25t-23.5 -9t-23.5 9t-10 25zM1415 903q-8 -6 4 -8q31 -12 65 -16.5t68.5 -4.5t69.5 1.5t66 -1.5q70 -4 129 -20q33 -10 57 -26.5t53 -30.5q0 68 -23.5 118t-88.5 74q37 35 75.5 67t85.5 48q-55 53 -123.5 85t-140.5 52 q-4 -63 -5 -125.5t-5 -126.5l-2 2v-6q-31 -2 -72 -4t-82 -10t-76.5 -24.5t-54.5 -43.5zM1493 -147h63l76 -168q-4 41 -4 84v84h51v-248h-57q-23 43 -40 87t-40 85q4 -43 4 -86v-86h-53v248zM1524 1286q18 23 35.5 45t21.5 51h-2q-41 -43 -55 -96zM1712 -298q-8 40 17 89 q14 33 45.5 48.5t68.5 15.5h11.5t20.5 -2.5t18.5 -4.5t7.5 -6l-11 -45q-29 14 -53.5 10t-39.5 -20t-21.5 -42t2.5 -52q16 -51 67 -45q12 2 10 23.5t-2 29.5h-30v47h84v-135q-45 -16 -87 -9t-71 32.5t-37 65.5z" />
<glyph unicode="2" d="M16 903q78 41 153 76t161 59q6 0 10 22.5t9 50.5t9 53.5t9 35.5q12 18 31.5 32.5t42 26t46 20.5t41.5 17q98 41 198.5 70t205.5 55q104 25 208.5 43.5t211.5 28.5q37 4 89 9t105 4t101.5 -13t78.5 -43q4 -6 -1 -32.5t-7 -37.5l-6 -108q0 -4 4 -4q88 -25 170 -65t137 -116 v-2q-18 4 -41.5 -4t-46 -22.5t-42 -30.5t-29.5 -29q33 -18 54 -53t30.5 -75t8.5 -80.5t-13 -73.5q-18 47 -55.5 73.5t-83.5 39t-95 16.5t-92 6q-49 4 -104.5 2t-102.5 14q-18 6 -25.5 29t-8.5 48.5t3 51t6 41.5q-205 -16 -404.5 -62t-389.5 -114q-8 -2 -8 -6q2 -12 8 -38.5 t11 -55.5t6 -53.5t-7 -32.5q-25 -20 -63.5 -24.5t-71.5 -8.5q-43 -6 -88 -12t-88 -15q-78 -16 -144 -43q-16 -8 -31.5 -15t-31.5 -17q-8 -8 -19.5 -21.5t-19.5 -17.5q12 37 27.5 73.5t29.5 71.5q2 6 14.5 27.5t25 45t20.5 44t6 24.5q-29 39 -66 75t-86 40zM74 -147h51 q4 -45 8 -92.5t12 -92.5q4 47 11.5 93t15.5 92h43l27 -185q4 47 9 93t11 92h47l-47 -248h-47q-8 41 -13 82t-12 82q-4 -41 -11 -82t-15 -82h-47zM78 911q39 -23 68.5 -53.5t52.5 -66.5q2 -4 -4.5 -18.5t-15.5 -31t-18 -32t-11 -21.5q-12 -25 -23.5 -51.5t-22.5 -52.5 q55 29 116 42t121 21t120.5 17.5t120.5 27.5q-18 20 -51 28.5t-70 9.5t-73 -3t-60 -6v145.5t4 145.5q-66 -16 -129.5 -42t-124.5 -59zM315 -147h52q4 -45 8 -92.5t12 -92.5q4 47 11.5 93t15.5 92h43l26 -185q4 47 9.5 93t11.5 92h47l-47 -248h-47q-8 41 -13.5 82t-11.5 82 q-4 -41 -11 -82t-13 -82h-50zM356 788q10 0 25.5 7.5t32 16.5t32 19.5t25.5 14.5q41 18 84 32.5t84 30.5q172 51 350 92q86 18 172 35t174 25q82 8 173 11t169 -32q6 61 6 125t5 123q2 33 4 64.5t6 62.5q2 14 -7.5 24.5t-22.5 16.5t-29.5 8t-28.5 4q-133 20 -274.5 1 t-272.5 -46q-143 -29 -283.5 -67.5t-275.5 -98.5q-25 -12 -51.5 -25t-49.5 -32q-23 -20 -27.5 -55t-8.5 -62q-10 -74 -10.5 -147.5t-0.5 -147.5zM385 918q0 23 17.5 41t39.5 22q6 2 16.5 -3t6.5 -15q-16 -8 -27 -9q-12 -4 -17 -18t3 -25q4 -6 18 -10q20 -2 36 13.5t25 37 t15 45t10 39.5q-31 -31 -67 -39q-12 -2 -25.5 0t-23.5 13q-18 10 -19 41q0 31 15 57q31 68 96 109q14 8 28.5 15t30.5 11q10 4 23.5 13.5t23.5 11.5q12 -1 6 -15q14 0 23 -2q18 -2 30.5 -16t14.5 -35q4 -25 -3 -48.5t-21.5 -45t-34 -38.5t-39.5 -30q-20 -14 -31.5 -35.5 t-21 -43t-22.5 -42t-38 -32.5q-25 -16 -59 -11q-33 10 -29 44zM427 1041.5q3 -17.5 26 -17.5q33 0 54 22.5t33.5 53t19.5 64.5t13 57q-31 -8 -57.5 -27.5t-48.5 -42.5q-6 -8 -17.5 -28.5t-18.5 -42t-4 -39zM557 -147h51q4 -45 9.5 -92.5t11.5 -92.5q4 47 11 93t15 92h43 l27 -185q4 47 9 93t14 92h45l-45 -248h-50q-8 41 -13 82t-11 82q-4 -41 -11.5 -82t-13.5 -82h-49zM567 1057q16 4 32.5 20.5t28 38t16.5 45t-1 39.5q-6 25 -35 25q-16 -41 -23.5 -84t-17.5 -84zM625 155q2 38 2 66q0 23 -1 43.5t1 42.5q0 55 29.5 75.5t80.5 20.5 q43 0 61.5 -22.5t24.5 -56t4 -71.5t-2 -67v-88q0 -53 -29.5 -74.5t-78.5 -19.5q-43 0 -62.5 22.5t-25.5 56.5t-4 72zM675 1057.5q-5 23.5 7 51.5t34.5 51.5t47.5 25.5q14 0 18 -12q12 -12 2 -31q-6 -25 -29.5 -44.5t-47.5 -25.5q2 -12 11 -14t19.5 3t19.5 12t13 11 q27 23 40 51.5t24 57.5q2 2 -2.5 10t-8.5 17.5t-8 19.5t-2 16q4 12 15.5 20.5t23.5 6.5q14 0 16 -14q6 -12 4 -25.5t-4 -27.5q23 4 33 0.5t-4 -31.5q-10 -18 -20.5 -37t-12.5 -41q0 -10 8 -10q25 -2 40.5 20.5t27.5 52t24.5 57t28.5 38.5q8 2 17 -2q6 -8 2 -15 q-4 -14 -10.5 -23t-2.5 -26q6 -14 14.5 -28.5t6.5 -30.5h2q12 12 20.5 30.5t16.5 37t19.5 33.5t29.5 24q41 14 55 -23q10 -16 6 -28.5t-2 -30.5q12 2 17 10q16 14 19 38.5t9 45.5q4 6 12.5 7t14.5 -1q10 -2 8 -14v-2q12 12 27 18q25 12 33 -14q4 -12 1 -24.5t-9.5 -25 t-11.5 -24.5t-3 -27q16 12 26.5 29t19.5 34t20.5 32.5t27.5 25.5q25 14 58 0q4 8 19 9.5t11 -15.5q-4 -23 -16 -44t-12 -44q0 -6 3 -7t7 3q23 23 34 53.5t21 62t26.5 59.5t47.5 46q16 8 27 -8q14 -27 3.5 -54.5t-26.5 -45.5q-8 -10 -21.5 -22.5t-25.5 -27t-21.5 -29 t-5.5 -28.5q2 -18 25 -14q16 6 23.5 20.5t17.5 28.5q4 4 14 2q8 0 8 -10l-4 -15q-20 -43 -59 -59q-14 -8 -26.5 -3t-20.5 19q-6 3 -6 13q-10 -10 -17.5 -18.5t-21.5 -12.5q-10 -4 -17.5 0t-13.5 10q-6 -4 -14.5 -9t-18.5 -7q-35 -6 -47 22v2q-10 -10 -19.5 -18t-25.5 -12 q-14 -8 -29 12q-6 12 -3 24.5t9.5 24.5t10.5 25.5t2 25.5q-18 -8 -27.5 -21t-13.5 -28.5t-6 -32t-8 -30.5q-8 -16 -29 -11q-8 2 -8 13q0 4 1 9t1 9q-16 -4 -21.5 -4t-17.5 -12q-10 -12 -26.5 -21.5t-35.5 -9.5q-12 2 -18 9t-12 18q-18 -20 -44 -38t-55 -14q-14 2 -28 21 q-12 -14 -25.5 -25.5t-30.5 -15.5q-16 -6 -25 0t-11 23q-4 29 9 49t23 43q2 4 -3 5t-7 -3q-8 -23 -19.5 -49.5t-28.5 -50t-40 -39t-53 -13.5q-35 2 -40 25.5zM686 181q-2 -42 2 -83q0 -16 10.5 -28.5t23.5 -17.5t25.5 1t16.5 27q4 14 3 30.5t-1 32.5v164q0 18 -10.5 30.5 t-24.5 16.5t-26.5 -2t-16.5 -24q-2 -16 -1 -32.5t1 -31.5q0 -41 -2 -83zM702 463q12 16 16.5 40.5t3.5 52.5t-4 55.5t-3 45.5v140q0 16 1 32.5t-14 32.5h84q-14 -14 -12 -35.5t2 -42.5v-155q0 -20 -2 -56t10 -53q8 -12 20.5 -13t24 5t19.5 16.5t10 20.5q8 29 3 60.5t-9 60.5 q-4 16 -11 42.5t-10.5 53.5t2 51.5t23.5 36.5q12 10 35.5 11t32.5 -19q6 -18 -2.5 -23.5t-20.5 -4.5t-20.5 8.5t2.5 17.5q-18 -10 -19.5 -33t7 -48.5t19.5 -50t15 -38.5q14 -41 19.5 -97.5t-23.5 -93.5q-12 -16 -37.5 -21t-55.5 -5t-58.5 3t-47.5 3zM707 1098 q12 -2 30.5 17.5t20.5 29.5q4 8 -2 13t-15 -1q-12 -10 -20 -26.5t-14 -32.5zM772 -365q0 16 10.5 24.5t23.5 8.5t23.5 -8t10.5 -25q0 -16 -10.5 -25t-23.5 -9t-23.5 9t-10.5 25zM840 1249q-2 -10 4 -22h4q0 8 2 14t-2 14q-6 0 -8 -6zM844 4q12 14 15 38t2 50.5t-4 51 t-3 42.5v193q0 10 -10 24h63q31 -14 56.5 -57t40.5 -74q0 29 2 68t-15 63h84q-14 -12 -13 -27.5t1 -31.5v-274q0 -16 -1 -35t13 -31h-231zM862 -395l66 248h71l66 -248h-57l-17 57h-57l-12 -57h-60zM915 53q0 -16 13.5 -26.5t29 -12.5t30 3.5t16.5 21.5q-4 72 -22.5 143.5 t-66.5 126.5v-256zM939 564.5q-3 21.5 7 33.5q6 6 16.5 10t20.5 4t18.5 -5t10.5 -17q0 -12 -7.5 -17.5t-16.5 -5.5t-16 5.5t-7 15.5q-14 -4 -14.5 -16.5t8 -24.5t19.5 -21.5t19 -11.5q16 -4 39 -3t33 11q25 25 19.5 46.5t-22.5 41t-39.5 34.5t-35.5 28q-20 18 -32.5 47 t-13.5 57.5t13.5 52t49.5 31.5q29 6 59.5 4t58.5 -2l-6 -10q0 -16 8.5 -32.5t14.5 -34t5 -34t-18 -30.5q-16 -10 -37.5 -9t-23.5 23q0 12 8 19.5t17.5 7.5t16.5 -6t5 -17q14 2 14 13.5t-8 23.5t-20 23.5t-21 13.5q-16 4 -36.5 0t-26.5 -20q-14 -29 -5 -48.5t27.5 -36 t42 -30.5t35.5 -31q16 -23 24.5 -52.5t4.5 -58t-22.5 -49t-53.5 -24.5q-29 -2 -59.5 -1t-59.5 1q8 4 5 20.5t-9 38t-9 43zM940 -295h45q-10 49 -22 102zM948 1126q4 -14 18.5 -12t16.5 16q2 23 -12 50q-6 -10 -15.5 -26.5t-7.5 -27.5zM1079 1176l4 -15q10 -18 27 -8 q16 6 25.5 24.5t5.5 36.5q-2 12 -10.5 19.5t-24.5 -4.5q-23 -18 -27 -53zM1085 4q12 16 16.5 41t3.5 52.5t-4 54t-3 45.5v139q0 18 1 34.5t-14 32.5h84q-12 -12 -15 -34.5t-2 -47t4 -49t3 -39.5v-182h115q25 0 62.5 -3t60.5 13q-4 -10 -8.5 -33.5t-14.5 -23.5h-289z M1096 -150q31 4 70.5 6.5t68.5 -16.5q35 -25 27 -64t-41 -55q16 -6 23 -20t11.5 -31.5t6.5 -35t8 -29.5h-58q-6 12 -9 29.5t-7 33t-13 24.5t-30 7v-94h-57v245zM1151 -218q0 -11 1 -22.5t1 -17.5h14q20 0 29.5 11t7.5 25.5t-13 25t-30 8.5q-6 0 -8 -9.5t-2 -20.5zM1161 463 q12 12 12.5 27.5t0.5 31.5v275v33.5t-13 31.5h142q27 -29 27.5 -66.5t-11.5 -74.5q-4 -10 -16.5 -33.5t-22.5 -50.5t-13 -49.5t11 -30.5q-6 12 6 14t24.5 -3t15.5 -15t-19 -21q-29 -10 -40.5 10.5t-9.5 41.5q2 18 8.5 36.5t9.5 34t-4 24.5t-34 7v-174q20 0 48 -3t48 11 q-6 -14 -9 -27.5t-7 -29.5h-154zM1196 403h88q-14 -31 1 -72.5t30 -68.5q14 33 24.5 70t-0.5 71h91q-25 -14 -30 -43.5t-11 -52.5q-8 -23 -27 -53.5t-19 -52.5q0 -25 -3 -63t14 -58h-84q20 20 16 60t-4 65q-14 25 -24.5 50.5t-20.5 51.5q-10 27 -14 53.5t-27 42.5zM1235 735 h25.5t25.5 3t21.5 11.5t9.5 24.5q2 18 -6 26.5t-21.5 11.5t-28 3h-26.5v-80zM1303 -147h57v-248h-57v248zM1358 1197q0 -9 3 -15t9 -8.5t16 6.5q14 12 23.5 34.5t11.5 42.5q-2 10 -4 15.5t-12 1.5q-20 -8 -30.5 -24.5t-14.5 -37.5q-2 -6 -2 -15zM1393 -365q0 16 10 24.5 t23.5 8.5t23.5 -8t10 -25q0 -16 -10 -25t-23.5 -9t-23.5 9t-10 25zM1415 903q-8 -6 4 -8q31 -12 65 -16.5t68.5 -4.5t69.5 1.5t66 -1.5q70 -4 129 -20q33 -10 57 -26.5t53 -30.5q0 68 -23.5 118t-88.5 74q37 35 75.5 67t85.5 48q-55 53 -123.5 85t-140.5 52 q-4 -63 -5 -125.5t-5 -126.5l-2 2v-6q-31 -2 -72 -4t-82 -10t-76.5 -24.5t-54.5 -43.5zM1493 -147h63l76 -168q-4 41 -4 84v84h51v-248h-57q-23 43 -40 87t-40 85q4 -43 4 -86v-86h-53v248zM1524 1286q18 23 35.5 45t21.5 51h-2q-41 -43 -55 -96zM1712 -298q-8 40 17 89 q14 33 45.5 48.5t68.5 15.5h11.5t20.5 -2.5t18.5 -4.5t7.5 -6l-11 -45q-29 14 -53.5 10t-39.5 -20t-21.5 -42t2.5 -52q16 -51 67 -45q12 2 10 23.5t-2 29.5h-30v47h84v-135q-45 -16 -87 -9t-71 32.5t-37 65.5z" />
<glyph unicode="3" d="M16 903q78 41 153 76t161 59q6 0 10 22.5t9 50.5t9 53.5t9 35.5q12 18 31.5 32.5t42 26t46 20.5t41.5 17q98 41 198.5 70t205.5 55q104 25 208.5 43.5t211.5 28.5q37 4 89 9t105 4t101.5 -13t78.5 -43q4 -6 -1 -32.5t-7 -37.5l-6 -108q0 -4 4 -4q88 -25 170 -65t137 -116 v-2q-18 4 -41.5 -4t-46 -22.5t-42 -30.5t-29.5 -29q33 -18 54 -53t30.5 -75t8.5 -80.5t-13 -73.5q-18 47 -55.5 73.5t-83.5 39t-95 16.5t-92 6q-49 4 -104.5 2t-102.5 14q-18 6 -25.5 29t-8.5 48.5t3 51t6 41.5q-205 -16 -404.5 -62t-389.5 -114q-8 -2 -8 -6q2 -12 8 -38.5 t11 -55.5t6 -53.5t-7 -32.5q-25 -20 -63.5 -24.5t-71.5 -8.5q-43 -6 -88 -12t-88 -15q-78 -16 -144 -43q-16 -8 -31.5 -15t-31.5 -17q-8 -8 -19.5 -21.5t-19.5 -17.5q12 37 27.5 73.5t29.5 71.5q2 6 14.5 27.5t25 45t20.5 44t6 24.5q-29 39 -66 75t-86 40zM74 -147h51 q4 -45 8 -92.5t12 -92.5q4 47 11.5 93t15.5 92h43l27 -185q4 47 9 93t11 92h47l-47 -248h-47q-8 41 -13 82t-12 82q-4 -41 -11 -82t-15 -82h-47zM78 911q39 -23 68.5 -53.5t52.5 -66.5q2 -4 -4.5 -18.5t-15.5 -31t-18 -32t-11 -21.5q-12 -25 -23.5 -51.5t-22.5 -52.5 q55 29 116 42t121 21t120.5 17.5t120.5 27.5q-18 20 -51 28.5t-70 9.5t-73 -3t-60 -6v145.5t4 145.5q-66 -16 -129.5 -42t-124.5 -59zM315 -147h52q4 -45 8 -92.5t12 -92.5q4 47 11.5 93t15.5 92h43l26 -185q4 47 9.5 93t11.5 92h47l-47 -248h-47q-8 41 -13.5 82t-11.5 82 q-4 -41 -11 -82t-13 -82h-50zM356 788q10 0 25.5 7.5t32 16.5t32 19.5t25.5 14.5q41 18 84 32.5t84 30.5q172 51 350 92q86 18 172 35t174 25q82 8 173 11t169 -32q6 61 6 125t5 123q2 33 4 64.5t6 62.5q2 14 -7.5 24.5t-22.5 16.5t-29.5 8t-28.5 4q-133 20 -274.5 1 t-272.5 -46q-143 -29 -283.5 -67.5t-275.5 -98.5q-25 -12 -51.5 -25t-49.5 -32q-23 -20 -27.5 -55t-8.5 -62q-10 -74 -10.5 -147.5t-0.5 -147.5zM385 918q0 23 17.5 41t39.5 22q6 2 16.5 -3t6.5 -15q-16 -8 -27 -9q-12 -4 -17 -18t3 -25q4 -6 18 -10q20 -2 36 13.5t25 37 t15 45t10 39.5q-31 -31 -67 -39q-12 -2 -25.5 0t-23.5 13q-18 10 -19 41q0 31 15 57q31 68 96 109q14 8 28.5 15t30.5 11q10 4 23.5 13.5t23.5 11.5q12 -1 6 -15q14 0 23 -2q18 -2 30.5 -16t14.5 -35q4 -25 -3 -48.5t-21.5 -45t-34 -38.5t-39.5 -30q-20 -14 -31.5 -35.5 t-21 -43t-22.5 -42t-38 -32.5q-25 -16 -59 -11q-33 10 -29 44zM427 1041.5q3 -17.5 26 -17.5q33 0 54 22.5t33.5 53t19.5 64.5t13 57q-31 -8 -57.5 -27.5t-48.5 -42.5q-6 -8 -17.5 -28.5t-18.5 -42t-4 -39zM557 -147h51q4 -45 9.5 -92.5t11.5 -92.5q4 47 11 93t15 92h43 l27 -185q4 47 9 93t14 92h45l-45 -248h-50q-8 41 -13 82t-11 82q-4 -41 -11.5 -82t-13.5 -82h-49zM567 1057q16 4 32.5 20.5t28 38t16.5 45t-1 39.5q-6 25 -35 25q-16 -41 -23.5 -84t-17.5 -84zM625 155q2 38 2 66q0 23 -1 43.5t1 42.5q0 55 29.5 75.5t80.5 20.5 q43 0 61.5 -22.5t24.5 -56t4 -71.5t-2 -67v-88q0 -53 -29.5 -74.5t-78.5 -19.5q-43 0 -62.5 22.5t-25.5 56.5t-4 72zM675 1057.5q-5 23.5 7 51.5t34.5 51.5t47.5 25.5q14 0 18 -12q12 -12 2 -31q-6 -25 -29.5 -44.5t-47.5 -25.5q2 -12 11 -14t19.5 3t19.5 12t13 11 q27 23 40 51.5t24 57.5q2 2 -2.5 10t-8.5 17.5t-8 19.5t-2 16q4 12 15.5 20.5t23.5 6.5q14 0 16 -14q6 -12 4 -25.5t-4 -27.5q23 4 33 0.5t-4 -31.5q-10 -18 -20.5 -37t-12.5 -41q0 -10 8 -10q25 -2 40.5 20.5t27.5 52t24.5 57t28.5 38.5q8 2 17 -2q6 -8 2 -15 q-4 -14 -10.5 -23t-2.5 -26q6 -14 14.5 -28.5t6.5 -30.5h2q12 12 20.5 30.5t16.5 37t19.5 33.5t29.5 24q41 14 55 -23q10 -16 6 -28.5t-2 -30.5q12 2 17 10q16 14 19 38.5t9 45.5q4 6 12.5 7t14.5 -1q10 -2 8 -14v-2q12 12 27 18q25 12 33 -14q4 -12 1 -24.5t-9.5 -25 t-11.5 -24.5t-3 -27q16 12 26.5 29t19.5 34t20.5 32.5t27.5 25.5q25 14 58 0q4 8 19 9.5t11 -15.5q-4 -23 -16 -44t-12 -44q0 -6 3 -7t7 3q23 23 34 53.5t21 62t26.5 59.5t47.5 46q16 8 27 -8q14 -27 3.5 -54.5t-26.5 -45.5q-8 -10 -21.5 -22.5t-25.5 -27t-21.5 -29 t-5.5 -28.5q2 -18 25 -14q16 6 23.5 20.5t17.5 28.5q4 4 14 2q8 0 8 -10l-4 -15q-20 -43 -59 -59q-14 -8 -26.5 -3t-20.5 19q-6 3 -6 13q-10 -10 -17.5 -18.5t-21.5 -12.5q-10 -4 -17.5 0t-13.5 10q-6 -4 -14.5 -9t-18.5 -7q-35 -6 -47 22v2q-10 -10 -19.5 -18t-25.5 -12 q-14 -8 -29 12q-6 12 -3 24.5t9.5 24.5t10.5 25.5t2 25.5q-18 -8 -27.5 -21t-13.5 -28.5t-6 -32t-8 -30.5q-8 -16 -29 -11q-8 2 -8 13q0 4 1 9t1 9q-16 -4 -21.5 -4t-17.5 -12q-10 -12 -26.5 -21.5t-35.5 -9.5q-12 2 -18 9t-12 18q-18 -20 -44 -38t-55 -14q-14 2 -28 21 q-12 -14 -25.5 -25.5t-30.5 -15.5q-16 -6 -25 0t-11 23q-4 29 9 49t23 43q2 4 -3 5t-7 -3q-8 -23 -19.5 -49.5t-28.5 -50t-40 -39t-53 -13.5q-35 2 -40 25.5zM686 181q-2 -42 2 -83q0 -16 10.5 -28.5t23.5 -17.5t25.5 1t16.5 27q4 14 3 30.5t-1 32.5v164q0 18 -10.5 30.5 t-24.5 16.5t-26.5 -2t-16.5 -24q-2 -16 -1 -32.5t1 -31.5q0 -41 -2 -83zM702 463q12 16 16.5 40.5t3.5 52.5t-4 55.5t-3 45.5v140q0 16 1 32.5t-14 32.5h84q-14 -14 -12 -35.5t2 -42.5v-155q0 -20 -2 -56t10 -53q8 -12 20.5 -13t24 5t19.5 16.5t10 20.5q8 29 3 60.5t-9 60.5 q-4 16 -11 42.5t-10.5 53.5t2 51.5t23.5 36.5q12 10 35.5 11t32.5 -19q6 -18 -2.5 -23.5t-20.5 -4.5t-20.5 8.5t2.5 17.5q-18 -10 -19.5 -33t7 -48.5t19.5 -50t15 -38.5q14 -41 19.5 -97.5t-23.5 -93.5q-12 -16 -37.5 -21t-55.5 -5t-58.5 3t-47.5 3zM707 1098 q12 -2 30.5 17.5t20.5 29.5q4 8 -2 13t-15 -1q-12 -10 -20 -26.5t-14 -32.5zM772 -365q0 16 10.5 24.5t23.5 8.5t23.5 -8t10.5 -25q0 -16 -10.5 -25t-23.5 -9t-23.5 9t-10.5 25zM840 1249q-2 -10 4 -22h4q0 8 2 14t-2 14q-6 0 -8 -6zM844 4q12 14 15 38t2 50.5t-4 51 t-3 42.5v193q0 10 -10 24h63q31 -14 56.5 -57t40.5 -74q0 29 2 68t-15 63h84q-14 -12 -13 -27.5t1 -31.5v-274q0 -16 -1 -35t13 -31h-231zM862 -395l66 248h71l66 -248h-57l-17 57h-57l-12 -57h-60zM915 53q0 -16 13.5 -26.5t29 -12.5t30 3.5t16.5 21.5q-4 72 -22.5 143.5 t-66.5 126.5v-256zM939 564.5q-3 21.5 7 33.5q6 6 16.5 10t20.5 4t18.5 -5t10.5 -17q0 -12 -7.5 -17.5t-16.5 -5.5t-16 5.5t-7 15.5q-14 -4 -14.5 -16.5t8 -24.5t19.5 -21.5t19 -11.5q16 -4 39 -3t33 11q25 25 19.5 46.5t-22.5 41t-39.5 34.5t-35.5 28q-20 18 -32.5 47 t-13.5 57.5t13.5 52t49.5 31.5q29 6 59.5 4t58.5 -2l-6 -10q0 -16 8.5 -32.5t14.5 -34t5 -34t-18 -30.5q-16 -10 -37.5 -9t-23.5 23q0 12 8 19.5t17.5 7.5t16.5 -6t5 -17q14 2 14 13.5t-8 23.5t-20 23.5t-21 13.5q-16 4 -36.5 0t-26.5 -20q-14 -29 -5 -48.5t27.5 -36 t42 -30.5t35.5 -31q16 -23 24.5 -52.5t4.5 -58t-22.5 -49t-53.5 -24.5q-29 -2 -59.5 -1t-59.5 1q8 4 5 20.5t-9 38t-9 43zM940 -295h45q-10 49 -22 102zM948 1126q4 -14 18.5 -12t16.5 16q2 23 -12 50q-6 -10 -15.5 -26.5t-7.5 -27.5zM1079 1176l4 -15q10 -18 27 -8 q16 6 25.5 24.5t5.5 36.5q-2 12 -10.5 19.5t-24.5 -4.5q-23 -18 -27 -53zM1085 4q12 16 16.5 41t3.5 52.5t-4 54t-3 45.5v139q0 18 1 34.5t-14 32.5h84q-12 -12 -15 -34.5t-2 -47t4 -49t3 -39.5v-182h115q25 0 62.5 -3t60.5 13q-4 -10 -8.5 -33.5t-14.5 -23.5h-289z M1096 -150q31 4 70.5 6.5t68.5 -16.5q35 -25 27 -64t-41 -55q16 -6 23 -20t11.5 -31.5t6.5 -35t8 -29.5h-58q-6 12 -9 29.5t-7 33t-13 24.5t-30 7v-94h-57v245zM1151 -218q0 -11 1 -22.5t1 -17.5h14q20 0 29.5 11t7.5 25.5t-13 25t-30 8.5q-6 0 -8 -9.5t-2 -20.5zM1161 463 q12 12 12.5 27.5t0.5 31.5v275v33.5t-13 31.5h142q27 -29 27.5 -66.5t-11.5 -74.5q-4 -10 -16.5 -33.5t-22.5 -50.5t-13 -49.5t11 -30.5q-6 12 6 14t24.5 -3t15.5 -15t-19 -21q-29 -10 -40.5 10.5t-9.5 41.5q2 18 8.5 36.5t9.5 34t-4 24.5t-34 7v-174q20 0 48 -3t48 11 q-6 -14 -9 -27.5t-7 -29.5h-154zM1196 403h88q-14 -31 1 -72.5t30 -68.5q14 33 24.5 70t-0.5 71h91q-25 -14 -30 -43.5t-11 -52.5q-8 -23 -27 -53.5t-19 -52.5q0 -25 -3 -63t14 -58h-84q20 20 16 60t-4 65q-14 25 -24.5 50.5t-20.5 51.5q-10 27 -14 53.5t-27 42.5zM1235 735 h25.5t25.5 3t21.5 11.5t9.5 24.5q2 18 -6 26.5t-21.5 11.5t-28 3h-26.5v-80zM1303 -147h57v-248h-57v248zM1358 1197q0 -9 3 -15t9 -8.5t16 6.5q14 12 23.5 34.5t11.5 42.5q-2 10 -4 15.5t-12 1.5q-20 -8 -30.5 -24.5t-14.5 -37.5q-2 -6 -2 -15zM1393 -365q0 16 10 24.5 t23.5 8.5t23.5 -8t10 -25q0 -16 -10 -25t-23.5 -9t-23.5 9t-10 25zM1415 903q-8 -6 4 -8q31 -12 65 -16.5t68.5 -4.5t69.5 1.5t66 -1.5q70 -4 129 -20q33 -10 57 -26.5t53 -30.5q0 68 -23.5 118t-88.5 74q37 35 75.5 67t85.5 48q-55 53 -123.5 85t-140.5 52 q-4 -63 -5 -125.5t-5 -126.5l-2 2v-6q-31 -2 -72 -4t-82 -10t-76.5 -24.5t-54.5 -43.5zM1493 -147h63l76 -168q-4 41 -4 84v84h51v-248h-57q-23 43 -40 87t-40 85q4 -43 4 -86v-86h-53v248zM1524 1286q18 23 35.5 45t21.5 51h-2q-41 -43 -55 -96zM1712 -298q-8 40 17 89 q14 33 45.5 48.5t68.5 15.5h11.5t20.5 -2.5t18.5 -4.5t7.5 -6l-11 -45q-29 14 -53.5 10t-39.5 -20t-21.5 -42t2.5 -52q16 -51 67 -45q12 2 10 23.5t-2 29.5h-30v47h84v-135q-45 -16 -87 -9t-71 32.5t-37 65.5z" />
<glyph unicode="4" d="M16 903q78 41 153 76t161 59q6 0 10 22.5t9 50.5t9 53.5t9 35.5q12 18 31.5 32.5t42 26t46 20.5t41.5 17q98 41 198.5 70t205.5 55q104 25 208.5 43.5t211.5 28.5q37 4 89 9t105 4t101.5 -13t78.5 -43q4 -6 -1 -32.5t-7 -37.5l-6 -108q0 -4 4 -4q88 -25 170 -65t137 -116 v-2q-18 4 -41.5 -4t-46 -22.5t-42 -30.5t-29.5 -29q33 -18 54 -53t30.5 -75t8.5 -80.5t-13 -73.5q-18 47 -55.5 73.5t-83.5 39t-95 16.5t-92 6q-49 4 -104.5 2t-102.5 14q-18 6 -25.5 29t-8.5 48.5t3 51t6 41.5q-205 -16 -404.5 -62t-389.5 -114q-8 -2 -8 -6q2 -12 8 -38.5 t11 -55.5t6 -53.5t-7 -32.5q-25 -20 -63.5 -24.5t-71.5 -8.5q-43 -6 -88 -12t-88 -15q-78 -16 -144 -43q-16 -8 -31.5 -15t-31.5 -17q-8 -8 -19.5 -21.5t-19.5 -17.5q12 37 27.5 73.5t29.5 71.5q2 6 14.5 27.5t25 45t20.5 44t6 24.5q-29 39 -66 75t-86 40zM74 -147h51 q4 -45 8 -92.5t12 -92.5q4 47 11.5 93t15.5 92h43l27 -185q4 47 9 93t11 92h47l-47 -248h-47q-8 41 -13 82t-12 82q-4 -41 -11 -82t-15 -82h-47zM78 911q39 -23 68.5 -53.5t52.5 -66.5q2 -4 -4.5 -18.5t-15.5 -31t-18 -32t-11 -21.5q-12 -25 -23.5 -51.5t-22.5 -52.5 q55 29 116 42t121 21t120.5 17.5t120.5 27.5q-18 20 -51 28.5t-70 9.5t-73 -3t-60 -6v145.5t4 145.5q-66 -16 -129.5 -42t-124.5 -59zM315 -147h52q4 -45 8 -92.5t12 -92.5q4 47 11.5 93t15.5 92h43l26 -185q4 47 9.5 93t11.5 92h47l-47 -248h-47q-8 41 -13.5 82t-11.5 82 q-4 -41 -11 -82t-13 -82h-50zM356 788q10 0 25.5 7.5t32 16.5t32 19.5t25.5 14.5q41 18 84 32.5t84 30.5q172 51 350 92q86 18 172 35t174 25q82 8 173 11t169 -32q6 61 6 125t5 123q2 33 4 64.5t6 62.5q2 14 -7.5 24.5t-22.5 16.5t-29.5 8t-28.5 4q-133 20 -274.5 1 t-272.5 -46q-143 -29 -283.5 -67.5t-275.5 -98.5q-25 -12 -51.5 -25t-49.5 -32q-23 -20 -27.5 -55t-8.5 -62q-10 -74 -10.5 -147.5t-0.5 -147.5zM385 918q0 23 17.5 41t39.5 22q6 2 16.5 -3t6.5 -15q-16 -8 -27 -9q-12 -4 -17 -18t3 -25q4 -6 18 -10q20 -2 36 13.5t25 37 t15 45t10 39.5q-31 -31 -67 -39q-12 -2 -25.5 0t-23.5 13q-18 10 -19 41q0 31 15 57q31 68 96 109q14 8 28.5 15t30.5 11q10 4 23.5 13.5t23.5 11.5q12 -1 6 -15q14 0 23 -2q18 -2 30.5 -16t14.5 -35q4 -25 -3 -48.5t-21.5 -45t-34 -38.5t-39.5 -30q-20 -14 -31.5 -35.5 t-21 -43t-22.5 -42t-38 -32.5q-25 -16 -59 -11q-33 10 -29 44zM427 1041.5q3 -17.5 26 -17.5q33 0 54 22.5t33.5 53t19.5 64.5t13 57q-31 -8 -57.5 -27.5t-48.5 -42.5q-6 -8 -17.5 -28.5t-18.5 -42t-4 -39zM557 -147h51q4 -45 9.5 -92.5t11.5 -92.5q4 47 11 93t15 92h43 l27 -185q4 47 9 93t14 92h45l-45 -248h-50q-8 41 -13 82t-11 82q-4 -41 -11.5 -82t-13.5 -82h-49zM567 1057q16 4 32.5 20.5t28 38t16.5 45t-1 39.5q-6 25 -35 25q-16 -41 -23.5 -84t-17.5 -84zM625 155q2 38 2 66q0 23 -1 43.5t1 42.5q0 55 29.5 75.5t80.5 20.5 q43 0 61.5 -22.5t24.5 -56t4 -71.5t-2 -67v-88q0 -53 -29.5 -74.5t-78.5 -19.5q-43 0 -62.5 22.5t-25.5 56.5t-4 72zM675 1057.5q-5 23.5 7 51.5t34.5 51.5t47.5 25.5q14 0 18 -12q12 -12 2 -31q-6 -25 -29.5 -44.5t-47.5 -25.5q2 -12 11 -14t19.5 3t19.5 12t13 11 q27 23 40 51.5t24 57.5q2 2 -2.5 10t-8.5 17.5t-8 19.5t-2 16q4 12 15.5 20.5t23.5 6.5q14 0 16 -14q6 -12 4 -25.5t-4 -27.5q23 4 33 0.5t-4 -31.5q-10 -18 -20.5 -37t-12.5 -41q0 -10 8 -10q25 -2 40.5 20.5t27.5 52t24.5 57t28.5 38.5q8 2 17 -2q6 -8 2 -15 q-4 -14 -10.5 -23t-2.5 -26q6 -14 14.5 -28.5t6.5 -30.5h2q12 12 20.5 30.5t16.5 37t19.5 33.5t29.5 24q41 14 55 -23q10 -16 6 -28.5t-2 -30.5q12 2 17 10q16 14 19 38.5t9 45.5q4 6 12.5 7t14.5 -1q10 -2 8 -14v-2q12 12 27 18q25 12 33 -14q4 -12 1 -24.5t-9.5 -25 t-11.5 -24.5t-3 -27q16 12 26.5 29t19.5 34t20.5 32.5t27.5 25.5q25 14 58 0q4 8 19 9.5t11 -15.5q-4 -23 -16 -44t-12 -44q0 -6 3 -7t7 3q23 23 34 53.5t21 62t26.5 59.5t47.5 46q16 8 27 -8q14 -27 3.5 -54.5t-26.5 -45.5q-8 -10 -21.5 -22.5t-25.5 -27t-21.5 -29 t-5.5 -28.5q2 -18 25 -14q16 6 23.5 20.5t17.5 28.5q4 4 14 2q8 0 8 -10l-4 -15q-20 -43 -59 -59q-14 -8 -26.5 -3t-20.5 19q-6 3 -6 13q-10 -10 -17.5 -18.5t-21.5 -12.5q-10 -4 -17.5 0t-13.5 10q-6 -4 -14.5 -9t-18.5 -7q-35 -6 -47 22v2q-10 -10 -19.5 -18t-25.5 -12 q-14 -8 -29 12q-6 12 -3 24.5t9.5 24.5t10.5 25.5t2 25.5q-18 -8 -27.5 -21t-13.5 -28.5t-6 -32t-8 -30.5q-8 -16 -29 -11q-8 2 -8 13q0 4 1 9t1 9q-16 -4 -21.5 -4t-17.5 -12q-10 -12 -26.5 -21.5t-35.5 -9.5q-12 2 -18 9t-12 18q-18 -20 -44 -38t-55 -14q-14 2 -28 21 q-12 -14 -25.5 -25.5t-30.5 -15.5q-16 -6 -25 0t-11 23q-4 29 9 49t23 43q2 4 -3 5t-7 -3q-8 -23 -19.5 -49.5t-28.5 -50t-40 -39t-53 -13.5q-35 2 -40 25.5zM686 181q-2 -42 2 -83q0 -16 10.5 -28.5t23.5 -17.5t25.5 1t16.5 27q4 14 3 30.5t-1 32.5v164q0 18 -10.5 30.5 t-24.5 16.5t-26.5 -2t-16.5 -24q-2 -16 -1 -32.5t1 -31.5q0 -41 -2 -83zM702 463q12 16 16.5 40.5t3.5 52.5t-4 55.5t-3 45.5v140q0 16 1 32.5t-14 32.5h84q-14 -14 -12 -35.5t2 -42.5v-155q0 -20 -2 -56t10 -53q8 -12 20.5 -13t24 5t19.5 16.5t10 20.5q8 29 3 60.5t-9 60.5 q-4 16 -11 42.5t-10.5 53.5t2 51.5t23.5 36.5q12 10 35.5 11t32.5 -19q6 -18 -2.5 -23.5t-20.5 -4.5t-20.5 8.5t2.5 17.5q-18 -10 -19.5 -33t7 -48.5t19.5 -50t15 -38.5q14 -41 19.5 -97.5t-23.5 -93.5q-12 -16 -37.5 -21t-55.5 -5t-58.5 3t-47.5 3zM707 1098 q12 -2 30.5 17.5t20.5 29.5q4 8 -2 13t-15 -1q-12 -10 -20 -26.5t-14 -32.5zM772 -365q0 16 10.5 24.5t23.5 8.5t23.5 -8t10.5 -25q0 -16 -10.5 -25t-23.5 -9t-23.5 9t-10.5 25zM840 1249q-2 -10 4 -22h4q0 8 2 14t-2 14q-6 0 -8 -6zM844 4q12 14 15 38t2 50.5t-4 51 t-3 42.5v193q0 10 -10 24h63q31 -14 56.5 -57t40.5 -74q0 29 2 68t-15 63h84q-14 -12 -13 -27.5t1 -31.5v-274q0 -16 -1 -35t13 -31h-231zM862 -395l66 248h71l66 -248h-57l-17 57h-57l-12 -57h-60zM915 53q0 -16 13.5 -26.5t29 -12.5t30 3.5t16.5 21.5q-4 72 -22.5 143.5 t-66.5 126.5v-256zM939 564.5q-3 21.5 7 33.5q6 6 16.5 10t20.5 4t18.5 -5t10.5 -17q0 -12 -7.5 -17.5t-16.5 -5.5t-16 5.5t-7 15.5q-14 -4 -14.5 -16.5t8 -24.5t19.5 -21.5t19 -11.5q16 -4 39 -3t33 11q25 25 19.5 46.5t-22.5 41t-39.5 34.5t-35.5 28q-20 18 -32.5 47 t-13.5 57.5t13.5 52t49.5 31.5q29 6 59.5 4t58.5 -2l-6 -10q0 -16 8.5 -32.5t14.5 -34t5 -34t-18 -30.5q-16 -10 -37.5 -9t-23.5 23q0 12 8 19.5t17.5 7.5t16.5 -6t5 -17q14 2 14 13.5t-8 23.5t-20 23.5t-21 13.5q-16 4 -36.5 0t-26.5 -20q-14 -29 -5 -48.5t27.5 -36 t42 -30.5t35.5 -31q16 -23 24.5 -52.5t4.5 -58t-22.5 -49t-53.5 -24.5q-29 -2 -59.5 -1t-59.5 1q8 4 5 20.5t-9 38t-9 43zM940 -295h45q-10 49 -22 102zM948 1126q4 -14 18.5 -12t16.5 16q2 23 -12 50q-6 -10 -15.5 -26.5t-7.5 -27.5zM1079 1176l4 -15q10 -18 27 -8 q16 6 25.5 24.5t5.5 36.5q-2 12 -10.5 19.5t-24.5 -4.5q-23 -18 -27 -53zM1085 4q12 16 16.5 41t3.5 52.5t-4 54t-3 45.5v139q0 18 1 34.5t-14 32.5h84q-12 -12 -15 -34.5t-2 -47t4 -49t3 -39.5v-182h115q25 0 62.5 -3t60.5 13q-4 -10 -8.5 -33.5t-14.5 -23.5h-289z M1096 -150q31 4 70.5 6.5t68.5 -16.5q35 -25 27 -64t-41 -55q16 -6 23 -20t11.5 -31.5t6.5 -35t8 -29.5h-58q-6 12 -9 29.5t-7 33t-13 24.5t-30 7v-94h-57v245zM1151 -218q0 -11 1 -22.5t1 -17.5h14q20 0 29.5 11t7.5 25.5t-13 25t-30 8.5q-6 0 -8 -9.5t-2 -20.5zM1161 463 q12 12 12.5 27.5t0.5 31.5v275v33.5t-13 31.5h142q27 -29 27.5 -66.5t-11.5 -74.5q-4 -10 -16.5 -33.5t-22.5 -50.5t-13 -49.5t11 -30.5q-6 12 6 14t24.5 -3t15.5 -15t-19 -21q-29 -10 -40.5 10.5t-9.5 41.5q2 18 8.5 36.5t9.5 34t-4 24.5t-34 7v-174q20 0 48 -3t48 11 q-6 -14 -9 -27.5t-7 -29.5h-154zM1196 403h88q-14 -31 1 -72.5t30 -68.5q14 33 24.5 70t-0.5 71h91q-25 -14 -30 -43.5t-11 -52.5q-8 -23 -27 -53.5t-19 -52.5q0 -25 -3 -63t14 -58h-84q20 20 16 60t-4 65q-14 25 -24.5 50.5t-20.5 51.5q-10 27 -14 53.5t-27 42.5zM1235 735 h25.5t25.5 3t21.5 11.5t9.5 24.5q2 18 -6 26.5t-21.5 11.5t-28 3h-26.5v-80zM1303 -147h57v-248h-57v248zM1358 1197q0 -9 3 -15t9 -8.5t16 6.5q14 12 23.5 34.5t11.5 42.5q-2 10 -4 15.5t-12 1.5q-20 -8 -30.5 -24.5t-14.5 -37.5q-2 -6 -2 -15zM1393 -365q0 16 10 24.5 t23.5 8.5t23.5 -8t10 -25q0 -16 -10 -25t-23.5 -9t-23.5 9t-10 25zM1415 903q-8 -6 4 -8q31 -12 65 -16.5t68.5 -4.5t69.5 1.5t66 -1.5q70 -4 129 -20q33 -10 57 -26.5t53 -30.5q0 68 -23.5 118t-88.5 74q37 35 75.5 67t85.5 48q-55 53 -123.5 85t-140.5 52 q-4 -63 -5 -125.5t-5 -126.5l-2 2v-6q-31 -2 -72 -4t-82 -10t-76.5 -24.5t-54.5 -43.5zM1493 -147h63l76 -168q-4 41 -4 84v84h51v-248h-57q-23 43 -40 87t-40 85q4 -43 4 -86v-86h-53v248zM1524 1286q18 23 35.5 45t21.5 51h-2q-41 -43 -55 -96zM1712 -298q-8 40 17 89 q14 33 45.5 48.5t68.5 15.5h11.5t20.5 -2.5t18.5 -4.5t7.5 -6l-11 -45q-29 14 -53.5 10t-39.5 -20t-21.5 -42t2.5 -52q16 -51 67 -45q12 2 10 23.5t-2 29.5h-30v47h84v-135q-45 -16 -87 -9t-71 32.5t-37 65.5z" />
<glyph unicode="5" d="M16 903q78 41 153 76t161 59q6 0 10 22.5t9 50.5t9 53.5t9 35.5q12 18 31.5 32.5t42 26t46 20.5t41.5 17q98 41 198.5 70t205.5 55q104 25 208.5 43.5t211.5 28.5q37 4 89 9t105 4t101.5 -13t78.5 -43q4 -6 -1 -32.5t-7 -37.5l-6 -108q0 -4 4 -4q88 -25 170 -65t137 -116 v-2q-18 4 -41.5 -4t-46 -22.5t-42 -30.5t-29.5 -29q33 -18 54 -53t30.5 -75t8.5 -80.5t-13 -73.5q-18 47 -55.5 73.5t-83.5 39t-95 16.5t-92 6q-49 4 -104.5 2t-102.5 14q-18 6 -25.5 29t-8.5 48.5t3 51t6 41.5q-205 -16 -404.5 -62t-389.5 -114q-8 -2 -8 -6q2 -12 8 -38.5 t11 -55.5t6 -53.5t-7 -32.5q-25 -20 -63.5 -24.5t-71.5 -8.5q-43 -6 -88 -12t-88 -15q-78 -16 -144 -43q-16 -8 -31.5 -15t-31.5 -17q-8 -8 -19.5 -21.5t-19.5 -17.5q12 37 27.5 73.5t29.5 71.5q2 6 14.5 27.5t25 45t20.5 44t6 24.5q-29 39 -66 75t-86 40zM74 -147h51 q4 -45 8 -92.5t12 -92.5q4 47 11.5 93t15.5 92h43l27 -185q4 47 9 93t11 92h47l-47 -248h-47q-8 41 -13 82t-12 82q-4 -41 -11 -82t-15 -82h-47zM78 911q39 -23 68.5 -53.5t52.5 -66.5q2 -4 -4.5 -18.5t-15.5 -31t-18 -32t-11 -21.5q-12 -25 -23.5 -51.5t-22.5 -52.5 q55 29 116 42t121 21t120.5 17.5t120.5 27.5q-18 20 -51 28.5t-70 9.5t-73 -3t-60 -6v145.5t4 145.5q-66 -16 -129.5 -42t-124.5 -59zM315 -147h52q4 -45 8 -92.5t12 -92.5q4 47 11.5 93t15.5 92h43l26 -185q4 47 9.5 93t11.5 92h47l-47 -248h-47q-8 41 -13.5 82t-11.5 82 q-4 -41 -11 -82t-13 -82h-50zM356 788q10 0 25.5 7.5t32 16.5t32 19.5t25.5 14.5q41 18 84 32.5t84 30.5q172 51 350 92q86 18 172 35t174 25q82 8 173 11t169 -32q6 61 6 125t5 123q2 33 4 64.5t6 62.5q2 14 -7.5 24.5t-22.5 16.5t-29.5 8t-28.5 4q-133 20 -274.5 1 t-272.5 -46q-143 -29 -283.5 -67.5t-275.5 -98.5q-25 -12 -51.5 -25t-49.5 -32q-23 -20 -27.5 -55t-8.5 -62q-10 -74 -10.5 -147.5t-0.5 -147.5zM385 918q0 23 17.5 41t39.5 22q6 2 16.5 -3t6.5 -15q-16 -8 -27 -9q-12 -4 -17 -18t3 -25q4 -6 18 -10q20 -2 36 13.5t25 37 t15 45t10 39.5q-31 -31 -67 -39q-12 -2 -25.5 0t-23.5 13q-18 10 -19 41q0 31 15 57q31 68 96 109q14 8 28.5 15t30.5 11q10 4 23.5 13.5t23.5 11.5q12 -1 6 -15q14 0 23 -2q18 -2 30.5 -16t14.5 -35q4 -25 -3 -48.5t-21.5 -45t-34 -38.5t-39.5 -30q-20 -14 -31.5 -35.5 t-21 -43t-22.5 -42t-38 -32.5q-25 -16 -59 -11q-33 10 -29 44zM427 1041.5q3 -17.5 26 -17.5q33 0 54 22.5t33.5 53t19.5 64.5t13 57q-31 -8 -57.5 -27.5t-48.5 -42.5q-6 -8 -17.5 -28.5t-18.5 -42t-4 -39zM557 -147h51q4 -45 9.5 -92.5t11.5 -92.5q4 47 11 93t15 92h43 l27 -185q4 47 9 93t14 92h45l-45 -248h-50q-8 41 -13 82t-11 82q-4 -41 -11.5 -82t-13.5 -82h-49zM567 1057q16 4 32.5 20.5t28 38t16.5 45t-1 39.5q-6 25 -35 25q-16 -41 -23.5 -84t-17.5 -84zM625 155q2 38 2 66q0 23 -1 43.5t1 42.5q0 55 29.5 75.5t80.5 20.5 q43 0 61.5 -22.5t24.5 -56t4 -71.5t-2 -67v-88q0 -53 -29.5 -74.5t-78.5 -19.5q-43 0 -62.5 22.5t-25.5 56.5t-4 72zM675 1057.5q-5 23.5 7 51.5t34.5 51.5t47.5 25.5q14 0 18 -12q12 -12 2 -31q-6 -25 -29.5 -44.5t-47.5 -25.5q2 -12 11 -14t19.5 3t19.5 12t13 11 q27 23 40 51.5t24 57.5q2 2 -2.5 10t-8.5 17.5t-8 19.5t-2 16q4 12 15.5 20.5t23.5 6.5q14 0 16 -14q6 -12 4 -25.5t-4 -27.5q23 4 33 0.5t-4 -31.5q-10 -18 -20.5 -37t-12.5 -41q0 -10 8 -10q25 -2 40.5 20.5t27.5 52t24.5 57t28.5 38.5q8 2 17 -2q6 -8 2 -15 q-4 -14 -10.5 -23t-2.5 -26q6 -14 14.5 -28.5t6.5 -30.5h2q12 12 20.5 30.5t16.5 37t19.5 33.5t29.5 24q41 14 55 -23q10 -16 6 -28.5t-2 -30.5q12 2 17 10q16 14 19 38.5t9 45.5q4 6 12.5 7t14.5 -1q10 -2 8 -14v-2q12 12 27 18q25 12 33 -14q4 -12 1 -24.5t-9.5 -25 t-11.5 -24.5t-3 -27q16 12 26.5 29t19.5 34t20.5 32.5t27.5 25.5q25 14 58 0q4 8 19 9.5t11 -15.5q-4 -23 -16 -44t-12 -44q0 -6 3 -7t7 3q23 23 34 53.5t21 62t26.5 59.5t47.5 46q16 8 27 -8q14 -27 3.5 -54.5t-26.5 -45.5q-8 -10 -21.5 -22.5t-25.5 -27t-21.5 -29 t-5.5 -28.5q2 -18 25 -14q16 6 23.5 20.5t17.5 28.5q4 4 14 2q8 0 8 -10l-4 -15q-20 -43 -59 -59q-14 -8 -26.5 -3t-20.5 19q-6 3 -6 13q-10 -10 -17.5 -18.5t-21.5 -12.5q-10 -4 -17.5 0t-13.5 10q-6 -4 -14.5 -9t-18.5 -7q-35 -6 -47 22v2q-10 -10 -19.5 -18t-25.5 -12 q-14 -8 -29 12q-6 12 -3 24.5t9.5 24.5t10.5 25.5t2 25.5q-18 -8 -27.5 -21t-13.5 -28.5t-6 -32t-8 -30.5q-8 -16 -29 -11q-8 2 -8 13q0 4 1 9t1 9q-16 -4 -21.5 -4t-17.5 -12q-10 -12 -26.5 -21.5t-35.5 -9.5q-12 2 -18 9t-12 18q-18 -20 -44 -38t-55 -14q-14 2 -28 21 q-12 -14 -25.5 -25.5t-30.5 -15.5q-16 -6 -25 0t-11 23q-4 29 9 49t23 43q2 4 -3 5t-7 -3q-8 -23 -19.5 -49.5t-28.5 -50t-40 -39t-53 -13.5q-35 2 -40 25.5zM686 181q-2 -42 2 -83q0 -16 10.5 -28.5t23.5 -17.5t25.5 1t16.5 27q4 14 3 30.5t-1 32.5v164q0 18 -10.5 30.5 t-24.5 16.5t-26.5 -2t-16.5 -24q-2 -16 -1 -32.5t1 -31.5q0 -41 -2 -83zM702 463q12 16 16.5 40.5t3.5 52.5t-4 55.5t-3 45.5v140q0 16 1 32.5t-14 32.5h84q-14 -14 -12 -35.5t2 -42.5v-155q0 -20 -2 -56t10 -53q8 -12 20.5 -13t24 5t19.5 16.5t10 20.5q8 29 3 60.5t-9 60.5 q-4 16 -11 42.5t-10.5 53.5t2 51.5t23.5 36.5q12 10 35.5 11t32.5 -19q6 -18 -2.5 -23.5t-20.5 -4.5t-20.5 8.5t2.5 17.5q-18 -10 -19.5 -33t7 -48.5t19.5 -50t15 -38.5q14 -41 19.5 -97.5t-23.5 -93.5q-12 -16 -37.5 -21t-55.5 -5t-58.5 3t-47.5 3zM707 1098 q12 -2 30.5 17.5t20.5 29.5q4 8 -2 13t-15 -1q-12 -10 -20 -26.5t-14 -32.5zM772 -365q0 16 10.5 24.5t23.5 8.5t23.5 -8t10.5 -25q0 -16 -10.5 -25t-23.5 -9t-23.5 9t-10.5 25zM840 1249q-2 -10 4 -22h4q0 8 2 14t-2 14q-6 0 -8 -6zM844 4q12 14 15 38t2 50.5t-4 51 t-3 42.5v193q0 10 -10 24h63q31 -14 56.5 -57t40.5 -74q0 29 2 68t-15 63h84q-14 -12 -13 -27.5t1 -31.5v-274q0 -16 -1 -35t13 -31h-231zM862 -395l66 248h71l66 -248h-57l-17 57h-57l-12 -57h-60zM915 53q0 -16 13.5 -26.5t29 -12.5t30 3.5t16.5 21.5q-4 72 -22.5 143.5 t-66.5 126.5v-256zM939 564.5q-3 21.5 7 33.5q6 6 16.5 10t20.5 4t18.5 -5t10.5 -17q0 -12 -7.5 -17.5t-16.5 -5.5t-16 5.5t-7 15.5q-14 -4 -14.5 -16.5t8 -24.5t19.5 -21.5t19 -11.5q16 -4 39 -3t33 11q25 25 19.5 46.5t-22.5 41t-39.5 34.5t-35.5 28q-20 18 -32.5 47 t-13.5 57.5t13.5 52t49.5 31.5q29 6 59.5 4t58.5 -2l-6 -10q0 -16 8.5 -32.5t14.5 -34t5 -34t-18 -30.5q-16 -10 -37.5 -9t-23.5 23q0 12 8 19.5t17.5 7.5t16.5 -6t5 -17q14 2 14 13.5t-8 23.5t-20 23.5t-21 13.5q-16 4 -36.5 0t-26.5 -20q-14 -29 -5 -48.5t27.5 -36 t42 -30.5t35.5 -31q16 -23 24.5 -52.5t4.5 -58t-22.5 -49t-53.5 -24.5q-29 -2 -59.5 -1t-59.5 1q8 4 5 20.5t-9 38t-9 43zM940 -295h45q-10 49 -22 102zM948 1126q4 -14 18.5 -12t16.5 16q2 23 -12 50q-6 -10 -15.5 -26.5t-7.5 -27.5zM1079 1176l4 -15q10 -18 27 -8 q16 6 25.5 24.5t5.5 36.5q-2 12 -10.5 19.5t-24.5 -4.5q-23 -18 -27 -53zM1085 4q12 16 16.5 41t3.5 52.5t-4 54t-3 45.5v139q0 18 1 34.5t-14 32.5h84q-12 -12 -15 -34.5t-2 -47t4 -49t3 -39.5v-182h115q25 0 62.5 -3t60.5 13q-4 -10 -8.5 -33.5t-14.5 -23.5h-289z M1096 -150q31 4 70.5 6.5t68.5 -16.5q35 -25 27 -64t-41 -55q16 -6 23 -20t11.5 -31.5t6.5 -35t8 -29.5h-58q-6 12 -9 29.5t-7 33t-13 24.5t-30 7v-94h-57v245zM1151 -218q0 -11 1 -22.5t1 -17.5h14q20 0 29.5 11t7.5 25.5t-13 25t-30 8.5q-6 0 -8 -9.5t-2 -20.5zM1161 463 q12 12 12.5 27.5t0.5 31.5v275v33.5t-13 31.5h142q27 -29 27.5 -66.5t-11.5 -74.5q-4 -10 -16.5 -33.5t-22.5 -50.5t-13 -49.5t11 -30.5q-6 12 6 14t24.5 -3t15.5 -15t-19 -21q-29 -10 -40.5 10.5t-9.5 41.5q2 18 8.5 36.5t9.5 34t-4 24.5t-34 7v-174q20 0 48 -3t48 11 q-6 -14 -9 -27.5t-7 -29.5h-154zM1196 403h88q-14 -31 1 -72.5t30 -68.5q14 33 24.5 70t-0.5 71h91q-25 -14 -30 -43.5t-11 -52.5q-8 -23 -27 -53.5t-19 -52.5q0 -25 -3 -63t14 -58h-84q20 20 16 60t-4 65q-14 25 -24.5 50.5t-20.5 51.5q-10 27 -14 53.5t-27 42.5zM1235 735 h25.5t25.5 3t21.5 11.5t9.5 24.5q2 18 -6 26.5t-21.5 11.5t-28 3h-26.5v-80zM1303 -147h57v-248h-57v248zM1358 1197q0 -9 3 -15t9 -8.5t16 6.5q14 12 23.5 34.5t11.5 42.5q-2 10 -4 15.5t-12 1.5q-20 -8 -30.5 -24.5t-14.5 -37.5q-2 -6 -2 -15zM1393 -365q0 16 10 24.5 t23.5 8.5t23.5 -8t10 -25q0 -16 -10 -25t-23.5 -9t-23.5 9t-10 25zM1415 903q-8 -6 4 -8q31 -12 65 -16.5t68.5 -4.5t69.5 1.5t66 -1.5q70 -4 129 -20q33 -10 57 -26.5t53 -30.5q0 68 -23.5 118t-88.5 74q37 35 75.5 67t85.5 48q-55 53 -123.5 85t-140.5 52 q-4 -63 -5 -125.5t-5 -126.5l-2 2v-6q-31 -2 -72 -4t-82 -10t-76.5 -24.5t-54.5 -43.5zM1493 -147h63l76 -168q-4 41 -4 84v84h51v-248h-57q-23 43 -40 87t-40 85q4 -43 4 -86v-86h-53v248zM1524 1286q18 23 35.5 45t21.5 51h-2q-41 -43 -55 -96zM1712 -298q-8 40 17 89 q14 33 45.5 48.5t68.5 15.5h11.5t20.5 -2.5t18.5 -4.5t7.5 -6l-11 -45q-29 14 -53.5 10t-39.5 -20t-21.5 -42t2.5 -52q16 -51 67 -45q12 2 10 23.5t-2 29.5h-30v47h84v-135q-45 -16 -87 -9t-71 32.5t-37 65.5z" />
<glyph unicode="6" d="M16 903q78 41 153 76t161 59q6 0 10 22.5t9 50.5t9 53.5t9 35.5q12 18 31.5 32.5t42 26t46 20.5t41.5 17q98 41 198.5 70t205.5 55q104 25 208.5 43.5t211.5 28.5q37 4 89 9t105 4t101.5 -13t78.5 -43q4 -6 -1 -32.5t-7 -37.5l-6 -108q0 -4 4 -4q88 -25 170 -65t137 -116 v-2q-18 4 -41.5 -4t-46 -22.5t-42 -30.5t-29.5 -29q33 -18 54 -53t30.5 -75t8.5 -80.5t-13 -73.5q-18 47 -55.5 73.5t-83.5 39t-95 16.5t-92 6q-49 4 -104.5 2t-102.5 14q-18 6 -25.5 29t-8.5 48.5t3 51t6 41.5q-205 -16 -404.5 -62t-389.5 -114q-8 -2 -8 -6q2 -12 8 -38.5 t11 -55.5t6 -53.5t-7 -32.5q-25 -20 -63.5 -24.5t-71.5 -8.5q-43 -6 -88 -12t-88 -15q-78 -16 -144 -43q-16 -8 -31.5 -15t-31.5 -17q-8 -8 -19.5 -21.5t-19.5 -17.5q12 37 27.5 73.5t29.5 71.5q2 6 14.5 27.5t25 45t20.5 44t6 24.5q-29 39 -66 75t-86 40zM74 -147h51 q4 -45 8 -92.5t12 -92.5q4 47 11.5 93t15.5 92h43l27 -185q4 47 9 93t11 92h47l-47 -248h-47q-8 41 -13 82t-12 82q-4 -41 -11 -82t-15 -82h-47zM78 911q39 -23 68.5 -53.5t52.5 -66.5q2 -4 -4.5 -18.5t-15.5 -31t-18 -32t-11 -21.5q-12 -25 -23.5 -51.5t-22.5 -52.5 q55 29 116 42t121 21t120.5 17.5t120.5 27.5q-18 20 -51 28.5t-70 9.5t-73 -3t-60 -6v145.5t4 145.5q-66 -16 -129.5 -42t-124.5 -59zM315 -147h52q4 -45 8 -92.5t12 -92.5q4 47 11.5 93t15.5 92h43l26 -185q4 47 9.5 93t11.5 92h47l-47 -248h-47q-8 41 -13.5 82t-11.5 82 q-4 -41 -11 -82t-13 -82h-50zM356 788q10 0 25.5 7.5t32 16.5t32 19.5t25.5 14.5q41 18 84 32.5t84 30.5q172 51 350 92q86 18 172 35t174 25q82 8 173 11t169 -32q6 61 6 125t5 123q2 33 4 64.5t6 62.5q2 14 -7.5 24.5t-22.5 16.5t-29.5 8t-28.5 4q-133 20 -274.5 1 t-272.5 -46q-143 -29 -283.5 -67.5t-275.5 -98.5q-25 -12 -51.5 -25t-49.5 -32q-23 -20 -27.5 -55t-8.5 -62q-10 -74 -10.5 -147.5t-0.5 -147.5zM385 918q0 23 17.5 41t39.5 22q6 2 16.5 -3t6.5 -15q-16 -8 -27 -9q-12 -4 -17 -18t3 -25q4 -6 18 -10q20 -2 36 13.5t25 37 t15 45t10 39.5q-31 -31 -67 -39q-12 -2 -25.5 0t-23.5 13q-18 10 -19 41q0 31 15 57q31 68 96 109q14 8 28.5 15t30.5 11q10 4 23.5 13.5t23.5 11.5q12 -1 6 -15q14 0 23 -2q18 -2 30.5 -16t14.5 -35q4 -25 -3 -48.5t-21.5 -45t-34 -38.5t-39.5 -30q-20 -14 -31.5 -35.5 t-21 -43t-22.5 -42t-38 -32.5q-25 -16 -59 -11q-33 10 -29 44zM427 1041.5q3 -17.5 26 -17.5q33 0 54 22.5t33.5 53t19.5 64.5t13 57q-31 -8 -57.5 -27.5t-48.5 -42.5q-6 -8 -17.5 -28.5t-18.5 -42t-4 -39zM557 -147h51q4 -45 9.5 -92.5t11.5 -92.5q4 47 11 93t15 92h43 l27 -185q4 47 9 93t14 92h45l-45 -248h-50q-8 41 -13 82t-11 82q-4 -41 -11.5 -82t-13.5 -82h-49zM567 1057q16 4 32.5 20.5t28 38t16.5 45t-1 39.5q-6 25 -35 25q-16 -41 -23.5 -84t-17.5 -84zM625 155q2 38 2 66q0 23 -1 43.5t1 42.5q0 55 29.5 75.5t80.5 20.5 q43 0 61.5 -22.5t24.5 -56t4 -71.5t-2 -67v-88q0 -53 -29.5 -74.5t-78.5 -19.5q-43 0 -62.5 22.5t-25.5 56.5t-4 72zM675 1057.5q-5 23.5 7 51.5t34.5 51.5t47.5 25.5q14 0 18 -12q12 -12 2 -31q-6 -25 -29.5 -44.5t-47.5 -25.5q2 -12 11 -14t19.5 3t19.5 12t13 11 q27 23 40 51.5t24 57.5q2 2 -2.5 10t-8.5 17.5t-8 19.5t-2 16q4 12 15.5 20.5t23.5 6.5q14 0 16 -14q6 -12 4 -25.5t-4 -27.5q23 4 33 0.5t-4 -31.5q-10 -18 -20.5 -37t-12.5 -41q0 -10 8 -10q25 -2 40.5 20.5t27.5 52t24.5 57t28.5 38.5q8 2 17 -2q6 -8 2 -15 q-4 -14 -10.5 -23t-2.5 -26q6 -14 14.5 -28.5t6.5 -30.5h2q12 12 20.5 30.5t16.5 37t19.5 33.5t29.5 24q41 14 55 -23q10 -16 6 -28.5t-2 -30.5q12 2 17 10q16 14 19 38.5t9 45.5q4 6 12.5 7t14.5 -1q10 -2 8 -14v-2q12 12 27 18q25 12 33 -14q4 -12 1 -24.5t-9.5 -25 t-11.5 -24.5t-3 -27q16 12 26.5 29t19.5 34t20.5 32.5t27.5 25.5q25 14 58 0q4 8 19 9.5t11 -15.5q-4 -23 -16 -44t-12 -44q0 -6 3 -7t7 3q23 23 34 53.5t21 62t26.5 59.5t47.5 46q16 8 27 -8q14 -27 3.5 -54.5t-26.5 -45.5q-8 -10 -21.5 -22.5t-25.5 -27t-21.5 -29 t-5.5 -28.5q2 -18 25 -14q16 6 23.5 20.5t17.5 28.5q4 4 14 2q8 0 8 -10l-4 -15q-20 -43 -59 -59q-14 -8 -26.5 -3t-20.5 19q-6 3 -6 13q-10 -10 -17.5 -18.5t-21.5 -12.5q-10 -4 -17.5 0t-13.5 10q-6 -4 -14.5 -9t-18.5 -7q-35 -6 -47 22v2q-10 -10 -19.5 -18t-25.5 -12 q-14 -8 -29 12q-6 12 -3 24.5t9.5 24.5t10.5 25.5t2 25.5q-18 -8 -27.5 -21t-13.5 -28.5t-6 -32t-8 -30.5q-8 -16 -29 -11q-8 2 -8 13q0 4 1 9t1 9q-16 -4 -21.5 -4t-17.5 -12q-10 -12 -26.5 -21.5t-35.5 -9.5q-12 2 -18 9t-12 18q-18 -20 -44 -38t-55 -14q-14 2 -28 21 q-12 -14 -25.5 -25.5t-30.5 -15.5q-16 -6 -25 0t-11 23q-4 29 9 49t23 43q2 4 -3 5t-7 -3q-8 -23 -19.5 -49.5t-28.5 -50t-40 -39t-53 -13.5q-35 2 -40 25.5zM686 181q-2 -42 2 -83q0 -16 10.5 -28.5t23.5 -17.5t25.5 1t16.5 27q4 14 3 30.5t-1 32.5v164q0 18 -10.5 30.5 t-24.5 16.5t-26.5 -2t-16.5 -24q-2 -16 -1 -32.5t1 -31.5q0 -41 -2 -83zM702 463q12 16 16.5 40.5t3.5 52.5t-4 55.5t-3 45.5v140q0 16 1 32.5t-14 32.5h84q-14 -14 -12 -35.5t2 -42.5v-155q0 -20 -2 -56t10 -53q8 -12 20.5 -13t24 5t19.5 16.5t10 20.5q8 29 3 60.5t-9 60.5 q-4 16 -11 42.5t-10.5 53.5t2 51.5t23.5 36.5q12 10 35.5 11t32.5 -19q6 -18 -2.5 -23.5t-20.5 -4.5t-20.5 8.5t2.5 17.5q-18 -10 -19.5 -33t7 -48.5t19.5 -50t15 -38.5q14 -41 19.5 -97.5t-23.5 -93.5q-12 -16 -37.5 -21t-55.5 -5t-58.5 3t-47.5 3zM707 1098 q12 -2 30.5 17.5t20.5 29.5q4 8 -2 13t-15 -1q-12 -10 -20 -26.5t-14 -32.5zM772 -365q0 16 10.5 24.5t23.5 8.5t23.5 -8t10.5 -25q0 -16 -10.5 -25t-23.5 -9t-23.5 9t-10.5 25zM840 1249q-2 -10 4 -22h4q0 8 2 14t-2 14q-6 0 -8 -6zM844 4q12 14 15 38t2 50.5t-4 51 t-3 42.5v193q0 10 -10 24h63q31 -14 56.5 -57t40.5 -74q0 29 2 68t-15 63h84q-14 -12 -13 -27.5t1 -31.5v-274q0 -16 -1 -35t13 -31h-231zM862 -395l66 248h71l66 -248h-57l-17 57h-57l-12 -57h-60zM915 53q0 -16 13.5 -26.5t29 -12.5t30 3.5t16.5 21.5q-4 72 -22.5 143.5 t-66.5 126.5v-256zM939 564.5q-3 21.5 7 33.5q6 6 16.5 10t20.5 4t18.5 -5t10.5 -17q0 -12 -7.5 -17.5t-16.5 -5.5t-16 5.5t-7 15.5q-14 -4 -14.5 -16.5t8 -24.5t19.5 -21.5t19 -11.5q16 -4 39 -3t33 11q25 25 19.5 46.5t-22.5 41t-39.5 34.5t-35.5 28q-20 18 -32.5 47 t-13.5 57.5t13.5 52t49.5 31.5q29 6 59.5 4t58.5 -2l-6 -10q0 -16 8.5 -32.5t14.5 -34t5 -34t-18 -30.5q-16 -10 -37.5 -9t-23.5 23q0 12 8 19.5t17.5 7.5t16.5 -6t5 -17q14 2 14 13.5t-8 23.5t-20 23.5t-21 13.5q-16 4 -36.5 0t-26.5 -20q-14 -29 -5 -48.5t27.5 -36 t42 -30.5t35.5 -31q16 -23 24.5 -52.5t4.5 -58t-22.5 -49t-53.5 -24.5q-29 -2 -59.5 -1t-59.5 1q8 4 5 20.5t-9 38t-9 43zM940 -295h45q-10 49 -22 102zM948 1126q4 -14 18.5 -12t16.5 16q2 23 -12 50q-6 -10 -15.5 -26.5t-7.5 -27.5zM1079 1176l4 -15q10 -18 27 -8 q16 6 25.5 24.5t5.5 36.5q-2 12 -10.5 19.5t-24.5 -4.5q-23 -18 -27 -53zM1085 4q12 16 16.5 41t3.5 52.5t-4 54t-3 45.5v139q0 18 1 34.5t-14 32.5h84q-12 -12 -15 -34.5t-2 -47t4 -49t3 -39.5v-182h115q25 0 62.5 -3t60.5 13q-4 -10 -8.5 -33.5t-14.5 -23.5h-289z M1096 -150q31 4 70.5 6.5t68.5 -16.5q35 -25 27 -64t-41 -55q16 -6 23 -20t11.5 -31.5t6.5 -35t8 -29.5h-58q-6 12 -9 29.5t-7 33t-13 24.5t-30 7v-94h-57v245zM1151 -218q0 -11 1 -22.5t1 -17.5h14q20 0 29.5 11t7.5 25.5t-13 25t-30 8.5q-6 0 -8 -9.5t-2 -20.5zM1161 463 q12 12 12.5 27.5t0.5 31.5v275v33.5t-13 31.5h142q27 -29 27.5 -66.5t-11.5 -74.5q-4 -10 -16.5 -33.5t-22.5 -50.5t-13 -49.5t11 -30.5q-6 12 6 14t24.5 -3t15.5 -15t-19 -21q-29 -10 -40.5 10.5t-9.5 41.5q2 18 8.5 36.5t9.5 34t-4 24.5t-34 7v-174q20 0 48 -3t48 11 q-6 -14 -9 -27.5t-7 -29.5h-154zM1196 403h88q-14 -31 1 -72.5t30 -68.5q14 33 24.5 70t-0.5 71h91q-25 -14 -30 -43.5t-11 -52.5q-8 -23 -27 -53.5t-19 -52.5q0 -25 -3 -63t14 -58h-84q20 20 16 60t-4 65q-14 25 -24.5 50.5t-20.5 51.5q-10 27 -14 53.5t-27 42.5zM1235 735 h25.5t25.5 3t21.5 11.5t9.5 24.5q2 18 -6 26.5t-21.5 11.5t-28 3h-26.5v-80zM1303 -147h57v-248h-57v248zM1358 1197q0 -9 3 -15t9 -8.5t16 6.5q14 12 23.5 34.5t11.5 42.5q-2 10 -4 15.5t-12 1.5q-20 -8 -30.5 -24.5t-14.5 -37.5q-2 -6 -2 -15zM1393 -365q0 16 10 24.5 t23.5 8.5t23.5 -8t10 -25q0 -16 -10 -25t-23.5 -9t-23.5 9t-10 25zM1415 903q-8 -6 4 -8q31 -12 65 -16.5t68.5 -4.5t69.5 1.5t66 -1.5q70 -4 129 -20q33 -10 57 -26.5t53 -30.5q0 68 -23.5 118t-88.5 74q37 35 75.5 67t85.5 48q-55 53 -123.5 85t-140.5 52 q-4 -63 -5 -125.5t-5 -126.5l-2 2v-6q-31 -2 -72 -4t-82 -10t-76.5 -24.5t-54.5 -43.5zM1493 -147h63l76 -168q-4 41 -4 84v84h51v-248h-57q-23 43 -40 87t-40 85q4 -43 4 -86v-86h-53v248zM1524 1286q18 23 35.5 45t21.5 51h-2q-41 -43 -55 -96zM1712 -298q-8 40 17 89 q14 33 45.5 48.5t68.5 15.5h11.5t20.5 -2.5t18.5 -4.5t7.5 -6l-11 -45q-29 14 -53.5 10t-39.5 -20t-21.5 -42t2.5 -52q16 -51 67 -45q12 2 10 23.5t-2 29.5h-30v47h84v-135q-45 -16 -87 -9t-71 32.5t-37 65.5z" />
<glyph unicode="7" d="M16 903q78 41 153 76t161 59q6 0 10 22.5t9 50.5t9 53.5t9 35.5q12 18 31.5 32.5t42 26t46 20.5t41.5 17q98 41 198.5 70t205.5 55q104 25 208.5 43.5t211.5 28.5q37 4 89 9t105 4t101.5 -13t78.5 -43q4 -6 -1 -32.5t-7 -37.5l-6 -108q0 -4 4 -4q88 -25 170 -65t137 -116 v-2q-18 4 -41.5 -4t-46 -22.5t-42 -30.5t-29.5 -29q33 -18 54 -53t30.5 -75t8.5 -80.5t-13 -73.5q-18 47 -55.5 73.5t-83.5 39t-95 16.5t-92 6q-49 4 -104.5 2t-102.5 14q-18 6 -25.5 29t-8.5 48.5t3 51t6 41.5q-205 -16 -404.5 -62t-389.5 -114q-8 -2 -8 -6q2 -12 8 -38.5 t11 -55.5t6 -53.5t-7 -32.5q-25 -20 -63.5 -24.5t-71.5 -8.5q-43 -6 -88 -12t-88 -15q-78 -16 -144 -43q-16 -8 -31.5 -15t-31.5 -17q-8 -8 -19.5 -21.5t-19.5 -17.5q12 37 27.5 73.5t29.5 71.5q2 6 14.5 27.5t25 45t20.5 44t6 24.5q-29 39 -66 75t-86 40zM74 -147h51 q4 -45 8 -92.5t12 -92.5q4 47 11.5 93t15.5 92h43l27 -185q4 47 9 93t11 92h47l-47 -248h-47q-8 41 -13 82t-12 82q-4 -41 -11 -82t-15 -82h-47zM78 911q39 -23 68.5 -53.5t52.5 -66.5q2 -4 -4.5 -18.5t-15.5 -31t-18 -32t-11 -21.5q-12 -25 -23.5 -51.5t-22.5 -52.5 q55 29 116 42t121 21t120.5 17.5t120.5 27.5q-18 20 -51 28.5t-70 9.5t-73 -3t-60 -6v145.5t4 145.5q-66 -16 -129.5 -42t-124.5 -59zM315 -147h52q4 -45 8 -92.5t12 -92.5q4 47 11.5 93t15.5 92h43l26 -185q4 47 9.5 93t11.5 92h47l-47 -248h-47q-8 41 -13.5 82t-11.5 82 q-4 -41 -11 -82t-13 -82h-50zM356 788q10 0 25.5 7.5t32 16.5t32 19.5t25.5 14.5q41 18 84 32.5t84 30.5q172 51 350 92q86 18 172 35t174 25q82 8 173 11t169 -32q6 61 6 125t5 123q2 33 4 64.5t6 62.5q2 14 -7.5 24.5t-22.5 16.5t-29.5 8t-28.5 4q-133 20 -274.5 1 t-272.5 -46q-143 -29 -283.5 -67.5t-275.5 -98.5q-25 -12 -51.5 -25t-49.5 -32q-23 -20 -27.5 -55t-8.5 -62q-10 -74 -10.5 -147.5t-0.5 -147.5zM385 918q0 23 17.5 41t39.5 22q6 2 16.5 -3t6.5 -15q-16 -8 -27 -9q-12 -4 -17 -18t3 -25q4 -6 18 -10q20 -2 36 13.5t25 37 t15 45t10 39.5q-31 -31 -67 -39q-12 -2 -25.5 0t-23.5 13q-18 10 -19 41q0 31 15 57q31 68 96 109q14 8 28.5 15t30.5 11q10 4 23.5 13.5t23.5 11.5q12 -1 6 -15q14 0 23 -2q18 -2 30.5 -16t14.5 -35q4 -25 -3 -48.5t-21.5 -45t-34 -38.5t-39.5 -30q-20 -14 -31.5 -35.5 t-21 -43t-22.5 -42t-38 -32.5q-25 -16 -59 -11q-33 10 -29 44zM427 1041.5q3 -17.5 26 -17.5q33 0 54 22.5t33.5 53t19.5 64.5t13 57q-31 -8 -57.5 -27.5t-48.5 -42.5q-6 -8 -17.5 -28.5t-18.5 -42t-4 -39zM557 -147h51q4 -45 9.5 -92.5t11.5 -92.5q4 47 11 93t15 92h43 l27 -185q4 47 9 93t14 92h45l-45 -248h-50q-8 41 -13 82t-11 82q-4 -41 -11.5 -82t-13.5 -82h-49zM567 1057q16 4 32.5 20.5t28 38t16.5 45t-1 39.5q-6 25 -35 25q-16 -41 -23.5 -84t-17.5 -84zM625 155q2 38 2 66q0 23 -1 43.5t1 42.5q0 55 29.5 75.5t80.5 20.5 q43 0 61.5 -22.5t24.5 -56t4 -71.5t-2 -67v-88q0 -53 -29.5 -74.5t-78.5 -19.5q-43 0 -62.5 22.5t-25.5 56.5t-4 72zM675 1057.5q-5 23.5 7 51.5t34.5 51.5t47.5 25.5q14 0 18 -12q12 -12 2 -31q-6 -25 -29.5 -44.5t-47.5 -25.5q2 -12 11 -14t19.5 3t19.5 12t13 11 q27 23 40 51.5t24 57.5q2 2 -2.5 10t-8.5 17.5t-8 19.5t-2 16q4 12 15.5 20.5t23.5 6.5q14 0 16 -14q6 -12 4 -25.5t-4 -27.5q23 4 33 0.5t-4 -31.5q-10 -18 -20.5 -37t-12.5 -41q0 -10 8 -10q25 -2 40.5 20.5t27.5 52t24.5 57t28.5 38.5q8 2 17 -2q6 -8 2 -15 q-4 -14 -10.5 -23t-2.5 -26q6 -14 14.5 -28.5t6.5 -30.5h2q12 12 20.5 30.5t16.5 37t19.5 33.5t29.5 24q41 14 55 -23q10 -16 6 -28.5t-2 -30.5q12 2 17 10q16 14 19 38.5t9 45.5q4 6 12.5 7t14.5 -1q10 -2 8 -14v-2q12 12 27 18q25 12 33 -14q4 -12 1 -24.5t-9.5 -25 t-11.5 -24.5t-3 -27q16 12 26.5 29t19.5 34t20.5 32.5t27.5 25.5q25 14 58 0q4 8 19 9.5t11 -15.5q-4 -23 -16 -44t-12 -44q0 -6 3 -7t7 3q23 23 34 53.5t21 62t26.5 59.5t47.5 46q16 8 27 -8q14 -27 3.5 -54.5t-26.5 -45.5q-8 -10 -21.5 -22.5t-25.5 -27t-21.5 -29 t-5.5 -28.5q2 -18 25 -14q16 6 23.5 20.5t17.5 28.5q4 4 14 2q8 0 8 -10l-4 -15q-20 -43 -59 -59q-14 -8 -26.5 -3t-20.5 19q-6 3 -6 13q-10 -10 -17.5 -18.5t-21.5 -12.5q-10 -4 -17.5 0t-13.5 10q-6 -4 -14.5 -9t-18.5 -7q-35 -6 -47 22v2q-10 -10 -19.5 -18t-25.5 -12 q-14 -8 -29 12q-6 12 -3 24.5t9.5 24.5t10.5 25.5t2 25.5q-18 -8 -27.5 -21t-13.5 -28.5t-6 -32t-8 -30.5q-8 -16 -29 -11q-8 2 -8 13q0 4 1 9t1 9q-16 -4 -21.5 -4t-17.5 -12q-10 -12 -26.5 -21.5t-35.5 -9.5q-12 2 -18 9t-12 18q-18 -20 -44 -38t-55 -14q-14 2 -28 21 q-12 -14 -25.5 -25.5t-30.5 -15.5q-16 -6 -25 0t-11 23q-4 29 9 49t23 43q2 4 -3 5t-7 -3q-8 -23 -19.5 -49.5t-28.5 -50t-40 -39t-53 -13.5q-35 2 -40 25.5zM686 181q-2 -42 2 -83q0 -16 10.5 -28.5t23.5 -17.5t25.5 1t16.5 27q4 14 3 30.5t-1 32.5v164q0 18 -10.5 30.5 t-24.5 16.5t-26.5 -2t-16.5 -24q-2 -16 -1 -32.5t1 -31.5q0 -41 -2 -83zM702 463q12 16 16.5 40.5t3.5 52.5t-4 55.5t-3 45.5v140q0 16 1 32.5t-14 32.5h84q-14 -14 -12 -35.5t2 -42.5v-155q0 -20 -2 -56t10 -53q8 -12 20.5 -13t24 5t19.5 16.5t10 20.5q8 29 3 60.5t-9 60.5 q-4 16 -11 42.5t-10.5 53.5t2 51.5t23.5 36.5q12 10 35.5 11t32.5 -19q6 -18 -2.5 -23.5t-20.5 -4.5t-20.5 8.5t2.5 17.5q-18 -10 -19.5 -33t7 -48.5t19.5 -50t15 -38.5q14 -41 19.5 -97.5t-23.5 -93.5q-12 -16 -37.5 -21t-55.5 -5t-58.5 3t-47.5 3zM707 1098 q12 -2 30.5 17.5t20.5 29.5q4 8 -2 13t-15 -1q-12 -10 -20 -26.5t-14 -32.5zM772 -365q0 16 10.5 24.5t23.5 8.5t23.5 -8t10.5 -25q0 -16 -10.5 -25t-23.5 -9t-23.5 9t-10.5 25zM840 1249q-2 -10 4 -22h4q0 8 2 14t-2 14q-6 0 -8 -6zM844 4q12 14 15 38t2 50.5t-4 51 t-3 42.5v193q0 10 -10 24h63q31 -14 56.5 -57t40.5 -74q0 29 2 68t-15 63h84q-14 -12 -13 -27.5t1 -31.5v-274q0 -16 -1 -35t13 -31h-231zM862 -395l66 248h71l66 -248h-57l-17 57h-57l-12 -57h-60zM915 53q0 -16 13.5 -26.5t29 -12.5t30 3.5t16.5 21.5q-4 72 -22.5 143.5 t-66.5 126.5v-256zM939 564.5q-3 21.5 7 33.5q6 6 16.5 10t20.5 4t18.5 -5t10.5 -17q0 -12 -7.5 -17.5t-16.5 -5.5t-16 5.5t-7 15.5q-14 -4 -14.5 -16.5t8 -24.5t19.5 -21.5t19 -11.5q16 -4 39 -3t33 11q25 25 19.5 46.5t-22.5 41t-39.5 34.5t-35.5 28q-20 18 -32.5 47 t-13.5 57.5t13.5 52t49.5 31.5q29 6 59.5 4t58.5 -2l-6 -10q0 -16 8.5 -32.5t14.5 -34t5 -34t-18 -30.5q-16 -10 -37.5 -9t-23.5 23q0 12 8 19.5t17.5 7.5t16.5 -6t5 -17q14 2 14 13.5t-8 23.5t-20 23.5t-21 13.5q-16 4 -36.5 0t-26.5 -20q-14 -29 -5 -48.5t27.5 -36 t42 -30.5t35.5 -31q16 -23 24.5 -52.5t4.5 -58t-22.5 -49t-53.5 -24.5q-29 -2 -59.5 -1t-59.5 1q8 4 5 20.5t-9 38t-9 43zM940 -295h45q-10 49 -22 102zM948 1126q4 -14 18.5 -12t16.5 16q2 23 -12 50q-6 -10 -15.5 -26.5t-7.5 -27.5zM1079 1176l4 -15q10 -18 27 -8 q16 6 25.5 24.5t5.5 36.5q-2 12 -10.5 19.5t-24.5 -4.5q-23 -18 -27 -53zM1085 4q12 16 16.5 41t3.5 52.5t-4 54t-3 45.5v139q0 18 1 34.5t-14 32.5h84q-12 -12 -15 -34.5t-2 -47t4 -49t3 -39.5v-182h115q25 0 62.5 -3t60.5 13q-4 -10 -8.5 -33.5t-14.5 -23.5h-289z M1096 -150q31 4 70.5 6.5t68.5 -16.5q35 -25 27 -64t-41 -55q16 -6 23 -20t11.5 -31.5t6.5 -35t8 -29.5h-58q-6 12 -9 29.5t-7 33t-13 24.5t-30 7v-94h-57v245zM1151 -218q0 -11 1 -22.5t1 -17.5h14q20 0 29.5 11t7.5 25.5t-13 25t-30 8.5q-6 0 -8 -9.5t-2 -20.5zM1161 463 q12 12 12.5 27.5t0.5 31.5v275v33.5t-13 31.5h142q27 -29 27.5 -66.5t-11.5 -74.5q-4 -10 -16.5 -33.5t-22.5 -50.5t-13 -49.5t11 -30.5q-6 12 6 14t24.5 -3t15.5 -15t-19 -21q-29 -10 -40.5 10.5t-9.5 41.5q2 18 8.5 36.5t9.5 34t-4 24.5t-34 7v-174q20 0 48 -3t48 11 q-6 -14 -9 -27.5t-7 -29.5h-154zM1196 403h88q-14 -31 1 -72.5t30 -68.5q14 33 24.5 70t-0.5 71h91q-25 -14 -30 -43.5t-11 -52.5q-8 -23 -27 -53.5t-19 -52.5q0 -25 -3 -63t14 -58h-84q20 20 16 60t-4 65q-14 25 -24.5 50.5t-20.5 51.5q-10 27 -14 53.5t-27 42.5zM1235 735 h25.5t25.5 3t21.5 11.5t9.5 24.5q2 18 -6 26.5t-21.5 11.5t-28 3h-26.5v-80zM1303 -147h57v-248h-57v248zM1358 1197q0 -9 3 -15t9 -8.5t16 6.5q14 12 23.5 34.5t11.5 42.5q-2 10 -4 15.5t-12 1.5q-20 -8 -30.5 -24.5t-14.5 -37.5q-2 -6 -2 -15zM1393 -365q0 16 10 24.5 t23.5 8.5t23.5 -8t10 -25q0 -16 -10 -25t-23.5 -9t-23.5 9t-10 25zM1415 903q-8 -6 4 -8q31 -12 65 -16.5t68.5 -4.5t69.5 1.5t66 -1.5q70 -4 129 -20q33 -10 57 -26.5t53 -30.5q0 68 -23.5 118t-88.5 74q37 35 75.5 67t85.5 48q-55 53 -123.5 85t-140.5 52 q-4 -63 -5 -125.5t-5 -126.5l-2 2v-6q-31 -2 -72 -4t-82 -10t-76.5 -24.5t-54.5 -43.5zM1493 -147h63l76 -168q-4 41 -4 84v84h51v-248h-57q-23 43 -40 87t-40 85q4 -43 4 -86v-86h-53v248zM1524 1286q18 23 35.5 45t21.5 51h-2q-41 -43 -55 -96zM1712 -298q-8 40 17 89 q14 33 45.5 48.5t68.5 15.5h11.5t20.5 -2.5t18.5 -4.5t7.5 -6l-11 -45q-29 14 -53.5 10t-39.5 -20t-21.5 -42t2.5 -52q16 -51 67 -45q12 2 10 23.5t-2 29.5h-30v47h84v-135q-45 -16 -87 -9t-71 32.5t-37 65.5z" />
<glyph unicode="8" d="M16 903q78 41 153 76t161 59q6 0 10 22.5t9 50.5t9 53.5t9 35.5q12 18 31.5 32.5t42 26t46 20.5t41.5 17q98 41 198.5 70t205.5 55q104 25 208.5 43.5t211.5 28.5q37 4 89 9t105 4t101.5 -13t78.5 -43q4 -6 -1 -32.5t-7 -37.5l-6 -108q0 -4 4 -4q88 -25 170 -65t137 -116 v-2q-18 4 -41.5 -4t-46 -22.5t-42 -30.5t-29.5 -29q33 -18 54 -53t30.5 -75t8.5 -80.5t-13 -73.5q-18 47 -55.5 73.5t-83.5 39t-95 16.5t-92 6q-49 4 -104.5 2t-102.5 14q-18 6 -25.5 29t-8.5 48.5t3 51t6 41.5q-205 -16 -404.5 -62t-389.5 -114q-8 -2 -8 -6q2 -12 8 -38.5 t11 -55.5t6 -53.5t-7 -32.5q-25 -20 -63.5 -24.5t-71.5 -8.5q-43 -6 -88 -12t-88 -15q-78 -16 -144 -43q-16 -8 -31.5 -15t-31.5 -17q-8 -8 -19.5 -21.5t-19.5 -17.5q12 37 27.5 73.5t29.5 71.5q2 6 14.5 27.5t25 45t20.5 44t6 24.5q-29 39 -66 75t-86 40zM74 -147h51 q4 -45 8 -92.5t12 -92.5q4 47 11.5 93t15.5 92h43l27 -185q4 47 9 93t11 92h47l-47 -248h-47q-8 41 -13 82t-12 82q-4 -41 -11 -82t-15 -82h-47zM78 911q39 -23 68.5 -53.5t52.5 -66.5q2 -4 -4.5 -18.5t-15.5 -31t-18 -32t-11 -21.5q-12 -25 -23.5 -51.5t-22.5 -52.5 q55 29 116 42t121 21t120.5 17.5t120.5 27.5q-18 20 -51 28.5t-70 9.5t-73 -3t-60 -6v145.5t4 145.5q-66 -16 -129.5 -42t-124.5 -59zM315 -147h52q4 -45 8 -92.5t12 -92.5q4 47 11.5 93t15.5 92h43l26 -185q4 47 9.5 93t11.5 92h47l-47 -248h-47q-8 41 -13.5 82t-11.5 82 q-4 -41 -11 -82t-13 -82h-50zM356 788q10 0 25.5 7.5t32 16.5t32 19.5t25.5 14.5q41 18 84 32.5t84 30.5q172 51 350 92q86 18 172 35t174 25q82 8 173 11t169 -32q6 61 6 125t5 123q2 33 4 64.5t6 62.5q2 14 -7.5 24.5t-22.5 16.5t-29.5 8t-28.5 4q-133 20 -274.5 1 t-272.5 -46q-143 -29 -283.5 -67.5t-275.5 -98.5q-25 -12 -51.5 -25t-49.5 -32q-23 -20 -27.5 -55t-8.5 -62q-10 -74 -10.5 -147.5t-0.5 -147.5zM385 918q0 23 17.5 41t39.5 22q6 2 16.5 -3t6.5 -15q-16 -8 -27 -9q-12 -4 -17 -18t3 -25q4 -6 18 -10q20 -2 36 13.5t25 37 t15 45t10 39.5q-31 -31 -67 -39q-12 -2 -25.5 0t-23.5 13q-18 10 -19 41q0 31 15 57q31 68 96 109q14 8 28.5 15t30.5 11q10 4 23.5 13.5t23.5 11.5q12 -1 6 -15q14 0 23 -2q18 -2 30.5 -16t14.5 -35q4 -25 -3 -48.5t-21.5 -45t-34 -38.5t-39.5 -30q-20 -14 -31.5 -35.5 t-21 -43t-22.5 -42t-38 -32.5q-25 -16 -59 -11q-33 10 -29 44zM427 1041.5q3 -17.5 26 -17.5q33 0 54 22.5t33.5 53t19.5 64.5t13 57q-31 -8 -57.5 -27.5t-48.5 -42.5q-6 -8 -17.5 -28.5t-18.5 -42t-4 -39zM557 -147h51q4 -45 9.5 -92.5t11.5 -92.5q4 47 11 93t15 92h43 l27 -185q4 47 9 93t14 92h45l-45 -248h-50q-8 41 -13 82t-11 82q-4 -41 -11.5 -82t-13.5 -82h-49zM567 1057q16 4 32.5 20.5t28 38t16.5 45t-1 39.5q-6 25 -35 25q-16 -41 -23.5 -84t-17.5 -84zM625 155q2 38 2 66q0 23 -1 43.5t1 42.5q0 55 29.5 75.5t80.5 20.5 q43 0 61.5 -22.5t24.5 -56t4 -71.5t-2 -67v-88q0 -53 -29.5 -74.5t-78.5 -19.5q-43 0 -62.5 22.5t-25.5 56.5t-4 72zM675 1057.5q-5 23.5 7 51.5t34.5 51.5t47.5 25.5q14 0 18 -12q12 -12 2 -31q-6 -25 -29.5 -44.5t-47.5 -25.5q2 -12 11 -14t19.5 3t19.5 12t13 11 q27 23 40 51.5t24 57.5q2 2 -2.5 10t-8.5 17.5t-8 19.5t-2 16q4 12 15.5 20.5t23.5 6.5q14 0 16 -14q6 -12 4 -25.5t-4 -27.5q23 4 33 0.5t-4 -31.5q-10 -18 -20.5 -37t-12.5 -41q0 -10 8 -10q25 -2 40.5 20.5t27.5 52t24.5 57t28.5 38.5q8 2 17 -2q6 -8 2 -15 q-4 -14 -10.5 -23t-2.5 -26q6 -14 14.5 -28.5t6.5 -30.5h2q12 12 20.5 30.5t16.5 37t19.5 33.5t29.5 24q41 14 55 -23q10 -16 6 -28.5t-2 -30.5q12 2 17 10q16 14 19 38.5t9 45.5q4 6 12.5 7t14.5 -1q10 -2 8 -14v-2q12 12 27 18q25 12 33 -14q4 -12 1 -24.5t-9.5 -25 t-11.5 -24.5t-3 -27q16 12 26.5 29t19.5 34t20.5 32.5t27.5 25.5q25 14 58 0q4 8 19 9.5t11 -15.5q-4 -23 -16 -44t-12 -44q0 -6 3 -7t7 3q23 23 34 53.5t21 62t26.5 59.5t47.5 46q16 8 27 -8q14 -27 3.5 -54.5t-26.5 -45.5q-8 -10 -21.5 -22.5t-25.5 -27t-21.5 -29 t-5.5 -28.5q2 -18 25 -14q16 6 23.5 20.5t17.5 28.5q4 4 14 2q8 0 8 -10l-4 -15q-20 -43 -59 -59q-14 -8 -26.5 -3t-20.5 19q-6 3 -6 13q-10 -10 -17.5 -18.5t-21.5 -12.5q-10 -4 -17.5 0t-13.5 10q-6 -4 -14.5 -9t-18.5 -7q-35 -6 -47 22v2q-10 -10 -19.5 -18t-25.5 -12 q-14 -8 -29 12q-6 12 -3 24.5t9.5 24.5t10.5 25.5t2 25.5q-18 -8 -27.5 -21t-13.5 -28.5t-6 -32t-8 -30.5q-8 -16 -29 -11q-8 2 -8 13q0 4 1 9t1 9q-16 -4 -21.5 -4t-17.5 -12q-10 -12 -26.5 -21.5t-35.5 -9.5q-12 2 -18 9t-12 18q-18 -20 -44 -38t-55 -14q-14 2 -28 21 q-12 -14 -25.5 -25.5t-30.5 -15.5q-16 -6 -25 0t-11 23q-4 29 9 49t23 43q2 4 -3 5t-7 -3q-8 -23 -19.5 -49.5t-28.5 -50t-40 -39t-53 -13.5q-35 2 -40 25.5zM686 181q-2 -42 2 -83q0 -16 10.5 -28.5t23.5 -17.5t25.5 1t16.5 27q4 14 3 30.5t-1 32.5v164q0 18 -10.5 30.5 t-24.5 16.5t-26.5 -2t-16.5 -24q-2 -16 -1 -32.5t1 -31.5q0 -41 -2 -83zM702 463q12 16 16.5 40.5t3.5 52.5t-4 55.5t-3 45.5v140q0 16 1 32.5t-14 32.5h84q-14 -14 -12 -35.5t2 -42.5v-155q0 -20 -2 -56t10 -53q8 -12 20.5 -13t24 5t19.5 16.5t10 20.5q8 29 3 60.5t-9 60.5 q-4 16 -11 42.5t-10.5 53.5t2 51.5t23.5 36.5q12 10 35.5 11t32.5 -19q6 -18 -2.5 -23.5t-20.5 -4.5t-20.5 8.5t2.5 17.5q-18 -10 -19.5 -33t7 -48.5t19.5 -50t15 -38.5q14 -41 19.5 -97.5t-23.5 -93.5q-12 -16 -37.5 -21t-55.5 -5t-58.5 3t-47.5 3zM707 1098 q12 -2 30.5 17.5t20.5 29.5q4 8 -2 13t-15 -1q-12 -10 -20 -26.5t-14 -32.5zM772 -365q0 16 10.5 24.5t23.5 8.5t23.5 -8t10.5 -25q0 -16 -10.5 -25t-23.5 -9t-23.5 9t-10.5 25zM840 1249q-2 -10 4 -22h4q0 8 2 14t-2 14q-6 0 -8 -6zM844 4q12 14 15 38t2 50.5t-4 51 t-3 42.5v193q0 10 -10 24h63q31 -14 56.5 -57t40.5 -74q0 29 2 68t-15 63h84q-14 -12 -13 -27.5t1 -31.5v-274q0 -16 -1 -35t13 -31h-231zM862 -395l66 248h71l66 -248h-57l-17 57h-57l-12 -57h-60zM915 53q0 -16 13.5 -26.5t29 -12.5t30 3.5t16.5 21.5q-4 72 -22.5 143.5 t-66.5 126.5v-256zM939 564.5q-3 21.5 7 33.5q6 6 16.5 10t20.5 4t18.5 -5t10.5 -17q0 -12 -7.5 -17.5t-16.5 -5.5t-16 5.5t-7 15.5q-14 -4 -14.5 -16.5t8 -24.5t19.5 -21.5t19 -11.5q16 -4 39 -3t33 11q25 25 19.5 46.5t-22.5 41t-39.5 34.5t-35.5 28q-20 18 -32.5 47 t-13.5 57.5t13.5 52t49.5 31.5q29 6 59.5 4t58.5 -2l-6 -10q0 -16 8.5 -32.5t14.5 -34t5 -34t-18 -30.5q-16 -10 -37.5 -9t-23.5 23q0 12 8 19.5t17.5 7.5t16.5 -6t5 -17q14 2 14 13.5t-8 23.5t-20 23.5t-21 13.5q-16 4 -36.5 0t-26.5 -20q-14 -29 -5 -48.5t27.5 -36 t42 -30.5t35.5 -31q16 -23 24.5 -52.5t4.5 -58t-22.5 -49t-53.5 -24.5q-29 -2 -59.5 -1t-59.5 1q8 4 5 20.5t-9 38t-9 43zM940 -295h45q-10 49 -22 102zM948 1126q4 -14 18.5 -12t16.5 16q2 23 -12 50q-6 -10 -15.5 -26.5t-7.5 -27.5zM1079 1176l4 -15q10 -18 27 -8 q16 6 25.5 24.5t5.5 36.5q-2 12 -10.5 19.5t-24.5 -4.5q-23 -18 -27 -53zM1085 4q12 16 16.5 41t3.5 52.5t-4 54t-3 45.5v139q0 18 1 34.5t-14 32.5h84q-12 -12 -15 -34.5t-2 -47t4 -49t3 -39.5v-182h115q25 0 62.5 -3t60.5 13q-4 -10 -8.5 -33.5t-14.5 -23.5h-289z M1096 -150q31 4 70.5 6.5t68.5 -16.5q35 -25 27 -64t-41 -55q16 -6 23 -20t11.5 -31.5t6.5 -35t8 -29.5h-58q-6 12 -9 29.5t-7 33t-13 24.5t-30 7v-94h-57v245zM1151 -218q0 -11 1 -22.5t1 -17.5h14q20 0 29.5 11t7.5 25.5t-13 25t-30 8.5q-6 0 -8 -9.5t-2 -20.5zM1161 463 q12 12 12.5 27.5t0.5 31.5v275v33.5t-13 31.5h142q27 -29 27.5 -66.5t-11.5 -74.5q-4 -10 -16.5 -33.5t-22.5 -50.5t-13 -49.5t11 -30.5q-6 12 6 14t24.5 -3t15.5 -15t-19 -21q-29 -10 -40.5 10.5t-9.5 41.5q2 18 8.5 36.5t9.5 34t-4 24.5t-34 7v-174q20 0 48 -3t48 11 q-6 -14 -9 -27.5t-7 -29.5h-154zM1196 403h88q-14 -31 1 -72.5t30 -68.5q14 33 24.5 70t-0.5 71h91q-25 -14 -30 -43.5t-11 -52.5q-8 -23 -27 -53.5t-19 -52.5q0 -25 -3 -63t14 -58h-84q20 20 16 60t-4 65q-14 25 -24.5 50.5t-20.5 51.5q-10 27 -14 53.5t-27 42.5zM1235 735 h25.5t25.5 3t21.5 11.5t9.5 24.5q2 18 -6 26.5t-21.5 11.5t-28 3h-26.5v-80zM1303 -147h57v-248h-57v248zM1358 1197q0 -9 3 -15t9 -8.5t16 6.5q14 12 23.5 34.5t11.5 42.5q-2 10 -4 15.5t-12 1.5q-20 -8 -30.5 -24.5t-14.5 -37.5q-2 -6 -2 -15zM1393 -365q0 16 10 24.5 t23.5 8.5t23.5 -8t10 -25q0 -16 -10 -25t-23.5 -9t-23.5 9t-10 25zM1415 903q-8 -6 4 -8q31 -12 65 -16.5t68.5 -4.5t69.5 1.5t66 -1.5q70 -4 129 -20q33 -10 57 -26.5t53 -30.5q0 68 -23.5 118t-88.5 74q37 35 75.5 67t85.5 48q-55 53 -123.5 85t-140.5 52 q-4 -63 -5 -125.5t-5 -126.5l-2 2v-6q-31 -2 -72 -4t-82 -10t-76.5 -24.5t-54.5 -43.5zM1493 -147h63l76 -168q-4 41 -4 84v84h51v-248h-57q-23 43 -40 87t-40 85q4 -43 4 -86v-86h-53v248zM1524 1286q18 23 35.5 45t21.5 51h-2q-41 -43 -55 -96zM1712 -298q-8 40 17 89 q14 33 45.5 48.5t68.5 15.5h11.5t20.5 -2.5t18.5 -4.5t7.5 -6l-11 -45q-29 14 -53.5 10t-39.5 -20t-21.5 -42t2.5 -52q16 -51 67 -45q12 2 10 23.5t-2 29.5h-30v47h84v-135q-45 -16 -87 -9t-71 32.5t-37 65.5z" />
<glyph unicode="9" d="M16 903q78 41 153 76t161 59q6 0 10 22.5t9 50.5t9 53.5t9 35.5q12 18 31.5 32.5t42 26t46 20.5t41.5 17q98 41 198.5 70t205.5 55q104 25 208.5 43.5t211.5 28.5q37 4 89 9t105 4t101.5 -13t78.5 -43q4 -6 -1 -32.5t-7 -37.5l-6 -108q0 -4 4 -4q88 -25 170 -65t137 -116 v-2q-18 4 -41.5 -4t-46 -22.5t-42 -30.5t-29.5 -29q33 -18 54 -53t30.5 -75t8.5 -80.5t-13 -73.5q-18 47 -55.5 73.5t-83.5 39t-95 16.5t-92 6q-49 4 -104.5 2t-102.5 14q-18 6 -25.5 29t-8.5 48.5t3 51t6 41.5q-205 -16 -404.5 -62t-389.5 -114q-8 -2 -8 -6q2 -12 8 -38.5 t11 -55.5t6 -53.5t-7 -32.5q-25 -20 -63.5 -24.5t-71.5 -8.5q-43 -6 -88 -12t-88 -15q-78 -16 -144 -43q-16 -8 -31.5 -15t-31.5 -17q-8 -8 -19.5 -21.5t-19.5 -17.5q12 37 27.5 73.5t29.5 71.5q2 6 14.5 27.5t25 45t20.5 44t6 24.5q-29 39 -66 75t-86 40zM74 -147h51 q4 -45 8 -92.5t12 -92.5q4 47 11.5 93t15.5 92h43l27 -185q4 47 9 93t11 92h47l-47 -248h-47q-8 41 -13 82t-12 82q-4 -41 -11 -82t-15 -82h-47zM78 911q39 -23 68.5 -53.5t52.5 -66.5q2 -4 -4.5 -18.5t-15.5 -31t-18 -32t-11 -21.5q-12 -25 -23.5 -51.5t-22.5 -52.5 q55 29 116 42t121 21t120.5 17.5t120.5 27.5q-18 20 -51 28.5t-70 9.5t-73 -3t-60 -6v145.5t4 145.5q-66 -16 -129.5 -42t-124.5 -59zM315 -147h52q4 -45 8 -92.5t12 -92.5q4 47 11.5 93t15.5 92h43l26 -185q4 47 9.5 93t11.5 92h47l-47 -248h-47q-8 41 -13.5 82t-11.5 82 q-4 -41 -11 -82t-13 -82h-50zM356 788q10 0 25.5 7.5t32 16.5t32 19.5t25.5 14.5q41 18 84 32.5t84 30.5q172 51 350 92q86 18 172 35t174 25q82 8 173 11t169 -32q6 61 6 125t5 123q2 33 4 64.5t6 62.5q2 14 -7.5 24.5t-22.5 16.5t-29.5 8t-28.5 4q-133 20 -274.5 1 t-272.5 -46q-143 -29 -283.5 -67.5t-275.5 -98.5q-25 -12 -51.5 -25t-49.5 -32q-23 -20 -27.5 -55t-8.5 -62q-10 -74 -10.5 -147.5t-0.5 -147.5zM385 918q0 23 17.5 41t39.5 22q6 2 16.5 -3t6.5 -15q-16 -8 -27 -9q-12 -4 -17 -18t3 -25q4 -6 18 -10q20 -2 36 13.5t25 37 t15 45t10 39.5q-31 -31 -67 -39q-12 -2 -25.5 0t-23.5 13q-18 10 -19 41q0 31 15 57q31 68 96 109q14 8 28.5 15t30.5 11q10 4 23.5 13.5t23.5 11.5q12 -1 6 -15q14 0 23 -2q18 -2 30.5 -16t14.5 -35q4 -25 -3 -48.5t-21.5 -45t-34 -38.5t-39.5 -30q-20 -14 -31.5 -35.5 t-21 -43t-22.5 -42t-38 -32.5q-25 -16 -59 -11q-33 10 -29 44zM427 1041.5q3 -17.5 26 -17.5q33 0 54 22.5t33.5 53t19.5 64.5t13 57q-31 -8 -57.5 -27.5t-48.5 -42.5q-6 -8 -17.5 -28.5t-18.5 -42t-4 -39zM557 -147h51q4 -45 9.5 -92.5t11.5 -92.5q4 47 11 93t15 92h43 l27 -185q4 47 9 93t14 92h45l-45 -248h-50q-8 41 -13 82t-11 82q-4 -41 -11.5 -82t-13.5 -82h-49zM567 1057q16 4 32.5 20.5t28 38t16.5 45t-1 39.5q-6 25 -35 25q-16 -41 -23.5 -84t-17.5 -84zM625 155q2 38 2 66q0 23 -1 43.5t1 42.5q0 55 29.5 75.5t80.5 20.5 q43 0 61.5 -22.5t24.5 -56t4 -71.5t-2 -67v-88q0 -53 -29.5 -74.5t-78.5 -19.5q-43 0 -62.5 22.5t-25.5 56.5t-4 72zM675 1057.5q-5 23.5 7 51.5t34.5 51.5t47.5 25.5q14 0 18 -12q12 -12 2 -31q-6 -25 -29.5 -44.5t-47.5 -25.5q2 -12 11 -14t19.5 3t19.5 12t13 11 q27 23 40 51.5t24 57.5q2 2 -2.5 10t-8.5 17.5t-8 19.5t-2 16q4 12 15.5 20.5t23.5 6.5q14 0 16 -14q6 -12 4 -25.5t-4 -27.5q23 4 33 0.5t-4 -31.5q-10 -18 -20.5 -37t-12.5 -41q0 -10 8 -10q25 -2 40.5 20.5t27.5 52t24.5 57t28.5 38.5q8 2 17 -2q6 -8 2 -15 q-4 -14 -10.5 -23t-2.5 -26q6 -14 14.5 -28.5t6.5 -30.5h2q12 12 20.5 30.5t16.5 37t19.5 33.5t29.5 24q41 14 55 -23q10 -16 6 -28.5t-2 -30.5q12 2 17 10q16 14 19 38.5t9 45.5q4 6 12.5 7t14.5 -1q10 -2 8 -14v-2q12 12 27 18q25 12 33 -14q4 -12 1 -24.5t-9.5 -25 t-11.5 -24.5t-3 -27q16 12 26.5 29t19.5 34t20.5 32.5t27.5 25.5q25 14 58 0q4 8 19 9.5t11 -15.5q-4 -23 -16 -44t-12 -44q0 -6 3 -7t7 3q23 23 34 53.5t21 62t26.5 59.5t47.5 46q16 8 27 -8q14 -27 3.5 -54.5t-26.5 -45.5q-8 -10 -21.5 -22.5t-25.5 -27t-21.5 -29 t-5.5 -28.5q2 -18 25 -14q16 6 23.5 20.5t17.5 28.5q4 4 14 2q8 0 8 -10l-4 -15q-20 -43 -59 -59q-14 -8 -26.5 -3t-20.5 19q-6 3 -6 13q-10 -10 -17.5 -18.5t-21.5 -12.5q-10 -4 -17.5 0t-13.5 10q-6 -4 -14.5 -9t-18.5 -7q-35 -6 -47 22v2q-10 -10 -19.5 -18t-25.5 -12 q-14 -8 -29 12q-6 12 -3 24.5t9.5 24.5t10.5 25.5t2 25.5q-18 -8 -27.5 -21t-13.5 -28.5t-6 -32t-8 -30.5q-8 -16 -29 -11q-8 2 -8 13q0 4 1 9t1 9q-16 -4 -21.5 -4t-17.5 -12q-10 -12 -26.5 -21.5t-35.5 -9.5q-12 2 -18 9t-12 18q-18 -20 -44 -38t-55 -14q-14 2 -28 21 q-12 -14 -25.5 -25.5t-30.5 -15.5q-16 -6 -25 0t-11 23q-4 29 9 49t23 43q2 4 -3 5t-7 -3q-8 -23 -19.5 -49.5t-28.5 -50t-40 -39t-53 -13.5q-35 2 -40 25.5zM686 181q-2 -42 2 -83q0 -16 10.5 -28.5t23.5 -17.5t25.5 1t16.5 27q4 14 3 30.5t-1 32.5v164q0 18 -10.5 30.5 t-24.5 16.5t-26.5 -2t-16.5 -24q-2 -16 -1 -32.5t1 -31.5q0 -41 -2 -83zM702 463q12 16 16.5 40.5t3.5 52.5t-4 55.5t-3 45.5v140q0 16 1 32.5t-14 32.5h84q-14 -14 -12 -35.5t2 -42.5v-155q0 -20 -2 -56t10 -53q8 -12 20.5 -13t24 5t19.5 16.5t10 20.5q8 29 3 60.5t-9 60.5 q-4 16 -11 42.5t-10.5 53.5t2 51.5t23.5 36.5q12 10 35.5 11t32.5 -19q6 -18 -2.5 -23.5t-20.5 -4.5t-20.5 8.5t2.5 17.5q-18 -10 -19.5 -33t7 -48.5t19.5 -50t15 -38.5q14 -41 19.5 -97.5t-23.5 -93.5q-12 -16 -37.5 -21t-55.5 -5t-58.5 3t-47.5 3zM707 1098 q12 -2 30.5 17.5t20.5 29.5q4 8 -2 13t-15 -1q-12 -10 -20 -26.5t-14 -32.5zM772 -365q0 16 10.5 24.5t23.5 8.5t23.5 -8t10.5 -25q0 -16 -10.5 -25t-23.5 -9t-23.5 9t-10.5 25zM840 1249q-2 -10 4 -22h4q0 8 2 14t-2 14q-6 0 -8 -6zM844 4q12 14 15 38t2 50.5t-4 51 t-3 42.5v193q0 10 -10 24h63q31 -14 56.5 -57t40.5 -74q0 29 2 68t-15 63h84q-14 -12 -13 -27.5t1 -31.5v-274q0 -16 -1 -35t13 -31h-231zM862 -395l66 248h71l66 -248h-57l-17 57h-57l-12 -57h-60zM915 53q0 -16 13.5 -26.5t29 -12.5t30 3.5t16.5 21.5q-4 72 -22.5 143.5 t-66.5 126.5v-256zM939 564.5q-3 21.5 7 33.5q6 6 16.5 10t20.5 4t18.5 -5t10.5 -17q0 -12 -7.5 -17.5t-16.5 -5.5t-16 5.5t-7 15.5q-14 -4 -14.5 -16.5t8 -24.5t19.5 -21.5t19 -11.5q16 -4 39 -3t33 11q25 25 19.5 46.5t-22.5 41t-39.5 34.5t-35.5 28q-20 18 -32.5 47 t-13.5 57.5t13.5 52t49.5 31.5q29 6 59.5 4t58.5 -2l-6 -10q0 -16 8.5 -32.5t14.5 -34t5 -34t-18 -30.5q-16 -10 -37.5 -9t-23.5 23q0 12 8 19.5t17.5 7.5t16.5 -6t5 -17q14 2 14 13.5t-8 23.5t-20 23.5t-21 13.5q-16 4 -36.5 0t-26.5 -20q-14 -29 -5 -48.5t27.5 -36 t42 -30.5t35.5 -31q16 -23 24.5 -52.5t4.5 -58t-22.5 -49t-53.5 -24.5q-29 -2 -59.5 -1t-59.5 1q8 4 5 20.5t-9 38t-9 43zM940 -295h45q-10 49 -22 102zM948 1126q4 -14 18.5 -12t16.5 16q2 23 -12 50q-6 -10 -15.5 -26.5t-7.5 -27.5zM1079 1176l4 -15q10 -18 27 -8 q16 6 25.5 24.5t5.5 36.5q-2 12 -10.5 19.5t-24.5 -4.5q-23 -18 -27 -53zM1085 4q12 16 16.5 41t3.5 52.5t-4 54t-3 45.5v139q0 18 1 34.5t-14 32.5h84q-12 -12 -15 -34.5t-2 -47t4 -49t3 -39.5v-182h115q25 0 62.5 -3t60.5 13q-4 -10 -8.5 -33.5t-14.5 -23.5h-289z M1096 -150q31 4 70.5 6.5t68.5 -16.5q35 -25 27 -64t-41 -55q16 -6 23 -20t11.5 -31.5t6.5 -35t8 -29.5h-58q-6 12 -9 29.5t-7 33t-13 24.5t-30 7v-94h-57v245zM1151 -218q0 -11 1 -22.5t1 -17.5h14q20 0 29.5 11t7.5 25.5t-13 25t-30 8.5q-6 0 -8 -9.5t-2 -20.5zM1161 463 q12 12 12.5 27.5t0.5 31.5v275v33.5t-13 31.5h142q27 -29 27.5 -66.5t-11.5 -74.5q-4 -10 -16.5 -33.5t-22.5 -50.5t-13 -49.5t11 -30.5q-6 12 6 14t24.5 -3t15.5 -15t-19 -21q-29 -10 -40.5 10.5t-9.5 41.5q2 18 8.5 36.5t9.5 34t-4 24.5t-34 7v-174q20 0 48 -3t48 11 q-6 -14 -9 -27.5t-7 -29.5h-154zM1196 403h88q-14 -31 1 -72.5t30 -68.5q14 33 24.5 70t-0.5 71h91q-25 -14 -30 -43.5t-11 -52.5q-8 -23 -27 -53.5t-19 -52.5q0 -25 -3 -63t14 -58h-84q20 20 16 60t-4 65q-14 25 -24.5 50.5t-20.5 51.5q-10 27 -14 53.5t-27 42.5zM1235 735 h25.5t25.5 3t21.5 11.5t9.5 24.5q2 18 -6 26.5t-21.5 11.5t-28 3h-26.5v-80zM1303 -147h57v-248h-57v248zM1358 1197q0 -9 3 -15t9 -8.5t16 6.5q14 12 23.5 34.5t11.5 42.5q-2 10 -4 15.5t-12 1.5q-20 -8 -30.5 -24.5t-14.5 -37.5q-2 -6 -2 -15zM1393 -365q0 16 10 24.5 t23.5 8.5t23.5 -8t10 -25q0 -16 -10 -25t-23.5 -9t-23.5 9t-10 25zM1415 903q-8 -6 4 -8q31 -12 65 -16.5t68.5 -4.5t69.5 1.5t66 -1.5q70 -4 129 -20q33 -10 57 -26.5t53 -30.5q0 68 -23.5 118t-88.5 74q37 35 75.5 67t85.5 48q-55 53 -123.5 85t-140.5 52 q-4 -63 -5 -125.5t-5 -126.5l-2 2v-6q-31 -2 -72 -4t-82 -10t-76.5 -24.5t-54.5 -43.5zM1493 -147h63l76 -168q-4 41 -4 84v84h51v-248h-57q-23 43 -40 87t-40 85q4 -43 4 -86v-86h-53v248zM1524 1286q18 23 35.5 45t21.5 51h-2q-41 -43 -55 -96zM1712 -298q-8 40 17 89 q14 33 45.5 48.5t68.5 15.5h11.5t20.5 -2.5t18.5 -4.5t7.5 -6l-11 -45q-29 14 -53.5 10t-39.5 -20t-21.5 -42t2.5 -52q16 -51 67 -45q12 2 10 23.5t-2 29.5h-30v47h84v-135q-45 -16 -87 -9t-71 32.5t-37 65.5z" />
<glyph unicode=":" horiz-adv-x="536" d="M92 154q0 45 32 76.5t75 31.5q45 0 76.5 -31.5t31.5 -76.5q0 -43 -31.5 -75t-76.5 -32q-43 0 -75 32t-32 75zM317 612q0 45 32 77t75 32q45 0 76.5 -32t31.5 -77q0 -43 -31.5 -74.5t-76.5 -31.5q-43 0 -75 31.5t-32 74.5z" />
<glyph unicode=";" horiz-adv-x="536" d="M-25 -178.5q2 18.5 25 47.5q49 63 61.5 101t10.5 67t-5 53.5t15 61.5q27 51 83 82.5t105 39t73 -16.5t-13 -83q-63 -98 -115.5 -166.5t-93.5 -113.5q-49 -51 -82 -72t-49.5 -20t-14.5 19.5zM317 612q0 45 32 77t75 32q45 0 76.5 -32t31.5 -77q0 -43 -31.5 -74.5 t-76.5 -31.5q-43 0 -75 31.5t-32 74.5z" />
<glyph unicode="&#x3c;" horiz-adv-x="755" d="M113 477q8 41 49 66q20 12 66 37.5t104.5 52t120 47t110.5 22.5q53 2 79 -9t26 -29.5t-22.5 -41t-63.5 -40.5q-25 -12 -64 -38t-82 -56.5t-83 -59.5t-66 -47q10 -20 34.5 -49t54.5 -60.5t61.5 -63.5t56.5 -58q25 -27 15.5 -47.5t-37.5 -24.5t-70 11t-80 61 q-25 27 -58 61.5t-63.5 69t-55 67t-30.5 55.5q-10 33 -2 74z" />
<glyph unicode="=" horiz-adv-x="712" d="M89 296q-7 15 2 34.5t29.5 35t49.5 15.5h75h87h90t84 -2q25 -2 33 -14.5t3 -27.5t-21.5 -27.5t-43.5 -14.5q-43 -2 -94 -4t-100.5 -3t-91 -2t-66.5 -3q-29 -2 -36 13zM167 480.5q-7 15.5 2 35t29.5 34.5t49.5 15h75h87h90t84 -2q25 -2 33 -14t2.5 -27.5t-21.5 -28 t-43 -14.5q-43 -2 -94 -4t-100.5 -3t-91.5 -2t-66 -3q-29 -2 -36 13.5z" />
<glyph unicode="&#x3e;" horiz-adv-x="755" d="M98 114.5q0 18.5 22.5 41t63.5 41.5q25 12 64 37.5t82 56.5t83 59.5t66 46.5q-10 20 -34.5 49t-54.5 61t-61.5 63.5t-56.5 58.5t-15.5 47t37.5 24.5t68.5 -11t81.5 -60.5q25 -29 58 -63t63.5 -68.5t55 -67t30.5 -55.5q10 -33 2 -74t-49 -65q-20 -12 -66 -38t-104.5 -52.5 t-120 -47t-110.5 -22.5q-53 -4 -79 8t-26 30.5z" />
<glyph unicode="?" horiz-adv-x="958" d="M88 154q0 63 45 108t107 45q63 0 108 -45t45 -108q0 -61 -45 -106.5t-108 -45.5q-61 0 -106.5 45.5t-45.5 106.5zM319.5 476.5q-12.5 15.5 4.5 41.5q23 37 62.5 66.5t88.5 55.5t100.5 50.5t96.5 50.5q66 41 117 90.5t79 100.5q-74 -16 -145.5 -18.5t-134.5 10.5 q-86 16 -136.5 63t-63.5 104.5t10.5 117t84 102.5t156.5 61.5t229 -6.5q137 -27 224 -90q45 62 45 117q-2 33 16 38t42 -10.5t46.5 -49.5t30.5 -77t-5.5 -92t-60.5 -96q14 -68 -6 -141.5t-74.5 -140t-142.5 -123t-205 -91.5q-23 -6 -64.5 -18t-85.5 -27.5t-82 -30t-50 -26.5 q-35 -29 -72 -41t-64.5 -9t-40 18.5zM554.5 1108q15.5 -33 74.5 -49q53 -14 124.5 3t143.5 54q-27 68 -125 92q-84 18 -138 4t-74.5 -42.5t-5 -61.5z" />
<glyph unicode="@" horiz-adv-x="1726" d="M-52 156.5q5 148.5 63.5 297t166 282.5t262 225.5t354 125t443.5 -21.5q182 -41 276.5 -132t117 -205t-17.5 -235.5t-125 -227t-205 -178.5t-257 -87q-68 -8 -115 24.5t-53 94.5q-45 -47 -106.5 -83t-139.5 -36q-80 0 -133 44t-71.5 115.5t2 162t88.5 182.5 q63 86 143 142t160 79t153.5 9.5t126.5 -66.5q16 29 29.5 46t30 27.5t38 15.5t52.5 11q33 4 61.5 6t45 -5t18 -26.5t-18.5 -56.5q-20 -39 -45.5 -83t-51.5 -88t-49.5 -85t-41.5 -72q-18 -33 -34.5 -66.5t-25 -61t-4 -43t30.5 -9.5q104 20 188.5 82t137.5 141.5t71.5 170 t-7 171t-101.5 143t-211 87.5q-160 29 -302 0t-260 -97.5t-209 -167t-149.5 -208t-82 -222t-6 -210t78 -169t168.5 -100.5q129 -35 229.5 -1t147.5 108q16 25 26.5 13.5t5.5 -42.5t-26.5 -75t-72 -84t-130.5 -67.5t-198 -27.5q-164 0 -269.5 74t-153.5 192.5t-43 267z M600 256q6 -27 28.5 -43t59.5 -16q86 0 170 90t156 243q-20 29 -51 39q-35 12 -80 5t-91.5 -31.5t-89.5 -64.5t-73 -91q-20 -35 -27.5 -69.5t-1.5 -61.5z" />
<glyph unicode="A" horiz-adv-x="1927" d="M12 -102q-1 7 -1 14q-1 24 11 40q14 20 48 13q33 -8 67 -8q65 -1 133 29q102 44 206 130.5t211.5 206t215.5 248.5q-20 1 -40 1q-69 0 -131 -16q-79 -21 -137 -58t-95 -84t-45 -92q-10 -45 -34 -51.5t-50.5 15t-50.5 64.5q-24 44 -34 96q-5 26 -5 53q-1 27 5 55 q10 56 52 105q49 59 126 92t169 41q33 3 67 3q62 1 130 -9q104 -16 208 -55q115 135 230.5 260t231.5 213t230 128q63 22 126 22q52 0 104 -15q50 -16 50 -60q0 -47 -71 -83q-43 -20 -85 -63t-78.5 -103.5t-68.5 -134.5t-56 -158q-29 -97 -41 -201q-8 -75 -8 -148 q0 -28 1 -56q4 -100 24 -191.5t52.5 -165t78.5 -124t104 -66.5q43 -12 42 -35.5t-32 -45.5t-83 -34q-33 -8 -70 -8q-19 0 -41 3q-60 7 -120.5 42t-105.5 111q-66 111 -88 255q-12 80 -12 166q0 68 8 138q-59 49 -119.5 85t-118.5 58q-90 -131 -182 -260t-189.5 -237.5 t-198.5 -186.5t-208 -106q-52 -13 -96 -13q-22 0 -42 3q-60 10 -101.5 39.5t-65 67t-27.5 71.5zM1212 649q45 -27 88 -57.5t84 -65.5q23 109 63 213.5t94 197.5t122 169t147 129q-76 -16 -150.5 -68.5t-149 -131.5t-148.5 -178t-150 -208z" />
<glyph unicode="B" horiz-adv-x="1798" d="M25 219q8 106 58 178t115 115q66 42 136 60q54 14 93 14q11 0 21 -1q46 -5 53 -30q1 -3 1 -6q0 -23 -49 -57q-94 -66 -128 -164q-19 -55 -19 -109q0 -42 12 -83q26 -93 113 -161.5t235 -76.5q30 -2 59 -2q125 0 225 36q122 44 207.5 114.5t133.5 156.5t63 164 q2 14 4 27.5t2 25.5q-154 -53 -356 -53q-61 0 -109 10q-68 -104 -120 -181t-68 -94q-37 -43 -82 -67.5t-109 -24.5q-58 0 -58 39v6q5 45 58 146q14 27 44 79t66 117.5t76.5 141t81.5 149.5q-41 -10 -88 -10t-91 14.5t-82.5 47t-61.5 87.5q-19 44 -19 91q0 44 17 92 q35 98 132 182t252.5 139t362.5 55q166 0 286 -46t194 -120q73 -72 101 -168q17 -59 17 -119q0 -37 -6 -74q-18 -97 -80.5 -190.5t-171.5 -162.5q33 -72 37 -152q1 -12 1 -23q0 -67 -20 -135q-24 -78 -75 -152.5t-129 -133.5q-141 -106 -297 -156q-155 -49 -307 -50h-8 q-147 0 -280 39q-136 40 -236 111q-100 70 -158 164q-50 82 -50 173q0 14 1 28zM724 953q9 -46 44 -82.5t88 -51.5q41 74 71 133t46 90q20 43 37.5 63.5t37 27t42 5.5t51.5 -1q31 0 67 -1q34 0 58 -18q23 -17 23 -55q0 -41 -44 -121l-102 -172h8q78 -10 142.5 -35.5 t113.5 -60.5q84 86 118 192q19 60 19 116q0 42 -11 81q-26 89 -114 147q-77 50 -212 51q-19 0 -38 -1q-133 -8 -223 -39t-142 -75t-70 -96q-12 -35 -13 -66q0 -16 3 -31zM973 498h25.5t29.5 2q74 4 139.5 24.5t120.5 55.5q-55 37 -155 55q-18 4 -36 5t-34 3 q-23 -37 -45.5 -72.5t-44.5 -72.5z" />
<glyph unicode="C" horiz-adv-x="1267" d="M44 309q5 172 97 365q47 98 112.5 190t147.5 172q-39 62 -39 125v7q2 66 29 124t68 101t77 59q19 8 33 8q13 0 25 -6q16 -10 17 -41q0 -13 -3 -29q-5 -30 -5 -59q0 -60 20 -115q121 74 257 115q124 37 257 37h26q119 -4 196 -47t111 -107q26 -51 26 -108q0 -15 -2 -31 q-9 -74 -62.5 -139.5t-149.5 -110.5t-235 -49q-18 -1 -36 -1q-97 1 -197 19q-118 22 -220 74q-57 -63 -103.5 -130.5t-78.5 -137.5q-63 -135 -86 -260q-14 -75 -13 -140q-1 -44 5 -84q16 -98 68 -158.5t140 -66.5q11 -1 21 -1q71 0 127 36q64 40 94 104q24 50 24 105 q0 15 -2 31q-8 72 -65 129q-29 27 -16.5 45t48.5 24q17 3 37 4q23 0 50 -4q51 -8 99 -31.5t87 -64.5t51 -102q4 -25 4 -50q-1 -54 -21 -108q-30 -78 -99.5 -139.5t-175 -98t-238.5 -36.5q-152 0 -269.5 75.5t-179.5 204.5q-58 119 -58 276v25zM768 1022q78 -57 173 -83 q60 -16 117 -17q33 0 64 6q100 14 151.5 60t54.5 93v6q0 43 -43 76q-37 28 -108 28q-16 0 -34 -1q-90 -8 -186.5 -52t-188.5 -116z" />
<glyph unicode="D" horiz-adv-x="1886" d="M12 219q8 106 58.5 178t115.5 115q66 42 134 60q53 14 93 14q11 0 21 -1q44 -5 52 -30q1 -3 1 -6q0 -23 -49 -57q-61 -43 -97 -105.5t-45 -129.5q-3 -24 -3 -48q0 -43 10 -85q16 -66 57 -116q41 -52 108 -82q63 -29 148 -28h11q119 2 231.5 50t214 127t185 183t143.5 221 q81 159 113 299q17 76 18 142q0 55 -12 102q-26 104 -115.5 167.5t-249.5 70.5q-20 1 -39 1q-86 0 -154 -22q-82 -27 -134 -71t-76 -98q-23 -50 -23 -97v-7q2 -50 30.5 -91t82.5 -56q41 74 70.5 133t45.5 90q20 43 39 63.5t38.5 27t42 5.5t50.5 -1q29 0 65 -1q35 0 59 -18 q23 -17 23 -55q0 -41 -44 -121q-29 -51 -77 -130t-103.5 -167t-113.5 -179t-107.5 -167t-86 -129t-49.5 -68q-37 -43 -82 -67.5t-108 -24.5q-59 0 -59 40v5q4 45 59 146q14 27 42.5 79t64.5 117.5t77 141t82 149.5q-41 -10 -88 -10t-91 14.5t-82 47t-63 87.5q-19 44 -19 91 q0 48 18 98q36 102 133.5 188t253.5 140q126 44 283 44q38 0 77 -2q227 -12 366.5 -100t197.5 -222q46 -105 47 -229q-1 -35 -5 -71q-16 -166 -98 -336q-70 -147 -180.5 -275t-254 -222.5t-316.5 -148.5q-167 -52 -353 -52h-14q-125 0 -232.5 42t-184.5 110.5t-118 156.5 q-36 77 -36 157q0 11 1 23z" />
<glyph unicode="E" horiz-adv-x="1298" d="M24 121q-4 28 -4 58q0 100 48 218q31 76 80 134.5t108 100.5t128 67.5t138 37.5q-3 24 -3 49q0 57 16 115q-37 27 -70 59.5t-57 73.5q-41 63 -41 128v6q2 68 27.5 125t66.5 100t77 60q20 9 36 9q14 0 24 -6q16 -10 17 -42q0 -13 -3 -30q-5 -33 -5 -63q-1 -37 7 -72 q14 -63 50 -116q45 51 100 93t118 72q64 30 134 48q63 16 133 17q8 0 16 -1q119 -2 196 -46t111 -108q26 -50 26 -107q0 -15 -2 -31q-9 -75 -61.5 -139.5t-148.5 -110.5t-235 -50q-22 -1 -45 -1q-109 0 -220 24q-4 -14 -6 -26.5t-4 -27.5q66 -10 120 -30.5t90 -48t52 -62.5 q8 -18 7 -37q0 -18 -7 -37q-12 -35 -46 -56.5t-80 -27.5q-17 -2 -34 -2q-30 0 -63 6q-51 10 -100 35q-80 43 -127 103q-86 -27 -146.5 -86.5t-94.5 -133t-39 -153.5q-1 -14 -1 -27q1 -66 21 -122q24 -68 80.5 -116t146.5 -59q14 -1 27 -1q66 0 116 34q60 40 86 104 q18 43 19 91q-1 21 -5 45q-12 72 -69 131q-29 27 -16.5 45t48.5 24q17 3 37 4q23 0 50 -4q51 -8 99 -31.5t87 -64.5t51 -102q4 -25 5 -50q0 -54 -22 -108q-30 -78 -100.5 -139.5t-175 -98t-237.5 -36.5t-249 47t-190 135t-92 211zM858 971q66 -31 134 -42q36 -6 71 -6 q32 0 63 5q100 14 151.5 60t54.5 94v6q0 44 -43 76q-37 28 -107 28q-16 0 -35 -2q-88 -8 -163 -70.5t-126 -148.5z" />
<glyph unicode="F" horiz-adv-x="1558" d="M9 40q5 48 18.5 76.5t30 31t28.5 -36.5q12 -43 41 -67t63 -31q16 -3 33 -3q20 0 41 4q39 8 72 31q29 18 55.5 47t52 62.5t48 69.5t40.5 69l68 129q-17 2 -34 2q-44 0 -83 -12q-28 -9 -48 -9q-15 0 -25 6q-22 13 -19.5 38.5t29 55t69.5 46.5q47 17 95 23q32 4 63 4 q14 0 29 -1q12 27 24.5 51.5t26.5 49.5q-52 -15 -101 -15h-6q-52 1 -98.5 16t-83.5 44t-57 70q-36 66 -36 144q0 11 1 23q6 91 60.5 172.5t156 142t248.5 77.5q90 9 171 9q64 1 123 -5q134 -12 247.5 -36t209 -48.5t178.5 -33.5q29 -3 57 -3q51 1 97 11q72 16 138 77 q35 33 57 33q3 0 7 -1q24 -7 30 -42q2 -11 2 -25q0 -28 -8 -64q-12 -54 -43 -108.5t-80 -103.5t-115 -74q-55 -20 -110 -20q-24 0 -48 4q-80 12 -164.5 45.5t-174 80t-184.5 84.5t-197 58q-61 12 -125 12q-43 0 -88 -6q-78 -12 -136.5 -47t-95.5 -81t-50 -96q-7 -26 -7 -50 q0 -22 6 -41q12 -45 45 -70t76 -31q16 -2 32 -2q28 0 58 6q47 10 86 33q35 57 71.5 106.5t75.5 85t80 55.5q37 19 76 19h8q45 -2 45 -28q0 -3 -1 -9q-9 -36 -73 -94q-57 -53 -113 -161.5t-114 -243.5q57 -16 111.5 -31.5t104.5 -21.5q20 -2 38 -2q29 0 56 6q44 8 85 43 q33 29 51 23q17 -6 19 -34v-8q1 -25 -11 -61q-14 -41 -40.5 -82t-64.5 -76t-87 -49q-23 -6 -46 -6q-16 0 -32 3q-40 7 -82 25.5t-86.5 43t-89.5 47.5q-31 -78 -61.5 -152t-60.5 -141q-47 -102 -107.5 -175t-129.5 -113t-141 -46q-11 -1 -22 -1q-60 0 -117 27q-59 29 -91 77 q-32 47 -42 99q-7 35 -7 69q0 16 2 31z" />
<glyph unicode="G" horiz-adv-x="1402" d="M54 307q5 174 98 367q47 98 112.5 190t147.5 172q-39 63 -39 126v6q2 67 28.5 124.5t67.5 100.5t77 59q19 9 35 9q14 0 25 -7q16 -10 16 -39q0 -13 -4 -31q-5 -30 -5 -59q0 -60 20 -115q121 74 257 115q124 37 258 37h26q119 -4 195.5 -47t110.5 -107q26 -51 26 -108 q0 -15 -2 -31q-9 -74 -62 -139.5t-149.5 -110.5t-235.5 -49q-19 -1 -38 -1q-93 0 -189 17q-115 19 -216 70q-106 -125 -172 -262q-63 -135 -84 -258q-14 -77 -14 -143q0 -40 5 -77q13 -96 61.5 -157t126.5 -74q28 -4 53 -4q57 0 102 21q64 32 99.5 85.5t46.5 116.5 q3 24 3 47q0 37 -11 71q-17 54 -62 86q-34 24 -83 24q-15 0 -32 -2q-22 -3 -40 -3q-23 0 -37 6q-25 11 -22 34.5t34 54t90 61.5q20 10 66.5 27.5t105.5 36t125.5 38t128 33t112.5 20.5q28 4 49 4q18 0 31 -3q31 -6 31 -51t-21.5 -93.5t-58.5 -80.5q-23 -19 -46 -19 q-15 0 -30 8q-51 27 -143 39q-68 8 -137 8l-47 -1q152 -33 234 -111q75 -73 75 -166v-14q-4 -72 -49 -145.5t-124 -135t-185.5 -102.5t-233.5 -47h-22q-139 0 -247 68q-118 75 -180 206q-58 121 -58 279v26zM782 1018q78 -55 172 -80q58 -16 113 -16q34 0 66 6 q100 14 151 60t54 93v6q0 43 -43 76q-37 28 -108 28q-16 0 -34 -1q-90 -8 -184.5 -54t-186.5 -118z" />
<glyph unicode="H" horiz-adv-x="1871" d="M18 -16q-1 10 -1 21q0 86 53 183q27 49 60.5 76t60 32t39 -10.5t-4.5 -52.5q-14 -32 -14 -66q0 -13 2 -27q8 -48 35.5 -86t70.5 -62q40 -22 87 -21h8q52 2 108 35t107 107q37 53 78 127.5t86 162.5q-66 -12 -118 -38.5t-92 -59.5t-64.5 -69.5t-31.5 -73.5 q-10 -45 -33.5 -51.5t-50 15t-49.5 63.5q-24 41 -34 95q-5 27 -5.5 54.5t5.5 55.5q10 56 51 106q39 47 96 77.5t126 44.5q65 14 137 14h10q78 -1 161 -18l92 185q-73 -19 -149 -21q-5 0 -10 -1q-71 0 -144 22q-63 18 -101 61t-56.5 93.5t-18.5 99.5t12.5 83t34.5 43t49 -22 q37 -43 94.5 -65.5t129.5 -30.5q36 -4 74 -4t79 4q82 8 168 27q165 259 290 259q33 0 64 -18q27 -16 36 -47q4 -15 4 -31q0 -17 -5 -39q-10 -40 -43 -85.5t-88 -90.5q-57 -47 -125 -94q-47 -86 -93 -184t-93 -203q70 -29 135.5 -65.5t126.5 -83.5q53 129 133 256 t178.5 237.5t212 197.5t236.5 134q37 14 60 8q22 -7 29 -21q3 -6 3 -13q0 -9 -5 -19q-9 -18 -34 -27q-51 -18 -106.5 -59t-110.5 -98.5t-107.5 -128t-99.5 -150.5q-84 -141 -130 -291.5t-53 -280.5q-1 -21 -1 -42q-1 -105 29 -183q36 -94 120 -118q41 -12 34 -35t-44 -43 q-38 -19 -96 -31q-35 -7 -70 -7q-24 0 -48 3q-60 8 -113.5 42t-80.5 105q-28 74 -28 165v31q6 110 43 232q-74 51 -145.5 81t-137.5 44q-63 -141 -125.5 -267t-124.5 -212q-82 -113 -182 -168t-200 -61q-15 -1 -29 -1q-83 0 -156 30q-86 34 -137.5 102t-59.5 162z" />
<glyph unicode="I" horiz-adv-x="1251" d="M22 -16q-1 10 -1 21q0 86 53 183q27 49 59.5 76t59 32t39 -10.5t-2.5 -52.5q-15 -33 -14 -68q0 -12 1 -25q7 -48 35 -86t72 -62q41 -22 88 -21h8q52 2 107.5 35t106.5 107q39 55 82 135t89 171t94 189.5t97 194.5q-73 -19 -149 -21q-5 0 -10 -1q-71 0 -144 22 q-63 18 -101 61t-55.5 93.5t-17.5 99.5t12.5 83t34.5 43t49 -22q37 -43 94.5 -66.5t129.5 -30.5q36 -4 74 -4t79 4q82 7 168 28q165 259 290 259q33 0 64 -18q27 -16 35 -47q4 -14 4 -29q0 -19 -6 -41q-10 -40 -41.5 -85.5t-87.5 -90.5q-31 -25 -62.5 -49t-66.5 -47 q-66 -119 -129 -261t-125.5 -283.5t-124 -267.5t-123.5 -212q-82 -113 -183 -168t-199 -61q-15 -1 -29 -1q-82 0 -157 30q-87 34 -137.5 102t-58.5 162z" />
<glyph unicode="J" horiz-adv-x="1433" d="M16 203q2 86 27 170q29 98 89.5 185t136 143.5t158.5 72.5q24 5 47 5q57 0 110 -29q76 -43 113.5 -95.5t46.5 -108.5q4 -24 4 -47q0 -32 -8 -64q-13 -54 -37.5 -98t-55.5 -75t-57.5 -39t-43.5 9q-12 14 -12 47q0 10 1 22q1 15 1 30q0 49 -10 93q-14 57 -43.5 92t-74.5 39 h-9q-42 0 -94 -35q-37 -25 -65.5 -72t-46 -105t-19.5 -121v-12q0 -56 16 -104q17 -55 55 -95t103 -52q22 -5 48 -5q28 0 60 6q62 11 128.5 49t136.5 104.5t131 169.5q61 102 131 244.5t145 289.5q-74 -6 -145.5 -6t-140.5 6q-140 12 -242 60q-78 35 -125 81t-71.5 94 t-27.5 92q-1 11 -1 21q0 30 7 51q9 29 30.5 39.5t46.5 -10.5q72 -61 170 -99t205.5 -59.5t218 -29.5t207.5 -8q53 86 109 155.5t114.5 110.5t118.5 48q10 1 20 1q51 0 102 -31q39 -25 58 -61q21 -39 21 -84q0 -41 -17 -82q-19 -43 -53 -80q-47 -51 -131 -91t-191 -69 q-45 -102 -92 -214.5t-96 -221t-97.5 -204t-95.5 -160.5q-98 -135 -206.5 -213t-215.5 -108q-75 -21 -146 -21q-30 0 -60 4q-99 12 -179 59q-72 43 -119 107.5t-68 143.5q-20 72 -20 150v15zM1507 1065q51 12 86 33.5t53 43.5q20 24 20 45q0 17 -15 25q-7 4 -15 4 q-23 0 -51 -32q-37 -41 -78 -119z" />
<glyph unicode="K" horiz-adv-x="1871" d="M18 -16q-1 10 -1 21q0 86 53 183q27 49 62.5 76t64 32t43 -10.5t-1.5 -52.5q-15 -33 -14 -67q0 -13 2 -26q8 -48 35.5 -86t70.5 -62q40 -22 87 -21h8q52 2 107.5 35t106.5 107q39 55 82 135t87 171t91 189.5t94 194.5q-75 -19 -151 -21q-5 0 -10 -1q-71 0 -144 22 q-63 18 -101 61t-56.5 93.5t-18.5 99.5t12.5 83t34.5 43t49 -22q37 -43 94.5 -66.5t129.5 -30.5q36 -4 74 -4t79 4q82 7 168 28q168 259 293 259q33 0 63 -18q27 -16 35 -47q4 -14 4 -29q0 -19 -6 -41q-10 -40 -43 -85.5t-88 -90.5q-57 -47 -125 -94q-43 -78 -85 -168 t-85 -184q6 -23 14.5 -47.5t18.5 -48.5q123 37 244 124t215 191.5t150 210.5q46 88 46 156q0 13 -2 26q-6 41 12.5 57.5t47 10.5t63.5 -30.5t61 -65.5q26 -40 38 -96q5 -24 6 -50q0 -33 -9 -69q-20 -86 -102 -174.5t-198.5 -166t-254 -138t-266.5 -89.5q49 -86 119 -176 t150.5 -172t169 -153.5t174.5 -123.5q85 -50 165 -76q61 -19 115 -19q17 0 33 1q11 1 20 1q30 0 40 -15q5 -8 5 -19q-1 -14 -11 -32q-18 -31 -58.5 -67t-99 -61.5t-130.5 -32.5q-15 -1 -31 -1q-58 0 -120 21q-86 27 -162 84t-143.5 132.5t-126 165t-105.5 180.5t-83 179 t-60 162h-43q-59 -135 -118.5 -253t-119.5 -200q-82 -113 -182 -168t-200 -61q-15 -1 -29 -1q-83 0 -156 30q-86 34 -137.5 102t-59.5 162z" />
<glyph unicode="L" horiz-adv-x="1855" d="M18 164q12 66 65.5 129t154.5 113q94 47 196 63q75 12 150 11q28 0 56 -1q103 -6 206.5 -29.5t202.5 -58.5q74 88 142.5 184.5t133.5 194.5h-51q-160 0 -265.5 22.5t-169 55.5t-90 69.5t-28.5 67.5t14 48t41 11q203 -53 378 -63q62 -4 121 -4q106 0 200 12 q76 106 148.5 196.5t146 147t147.5 73.5q22 5 45 5q52 0 106 -27q79 -42 79 -117q0 -72 -59 -154q-60 -83 -176 -161t-272 -127q-76 -127 -167 -263t-201 -265q88 -41 162.5 -81t134.5 -73q68 -39 106.5 -92t52.5 -109q11 -42 11 -81q0 -13 -1 -26q-5 -50 -22.5 -82 t-43.5 -39q-4 -1 -8 -1q-21 0 -44 27q-63 74 -189 174t-337 203q-137 -121 -298 -199t-354 -88q-19 -1 -37 -1q-83 1 -152 23q-85 28 -141 74q-58 48 -82 110q-16 41 -16 84q0 22 4 44zM238 115q8 -43 58 -75t146 -32q121 0 229.5 55.5t211.5 147.5q-35 12 -76 29 q-143 51 -253 54h-23q-95 0 -159 -22q-72 -26 -107 -70q-28 -36 -28 -71q0 -8 1 -16zM1784 1063q72 29 122 59q50 32 76 60q28 30 29 53q0 21 -26 33q-8 3 -17 3q-32 1 -72 -45q-50 -58 -112 -163z" />
<glyph unicode="M" horiz-adv-x="2103" d="M10 104q6 58 21.5 92.5t35 38t33.5 -44.5q14 -51 47 -79.5t74 -38.5q19 -5 40 -4q22 0 45 6q44 10 83 37q33 20 63.5 55t60.5 76t55.5 85t47.5 85q45 86 94.5 191.5t101.5 212t108.5 206.5t116 177t123.5 122q62 43 128 43h6q37 0 60.5 -13.5t30 -30.5t-4 -34.5 t-37.5 -30.5q-49 -20 -98 -111t-83 -221q-34 -129 -45 -279q-3 -43 -3 -86q0 -104 19 -202v12q1 48 29 118q32 79 93.5 171.5t147.5 189.5t191.5 185t225 158.5t248.5 109.5q63 18 106 18q42 2 58 -14q9 -9 10 -22q0 -10 -6 -22q-12 -28 -55 -64q-37 -31 -78 -76t-79.5 -101 t-72.5 -127t-59 -155q-29 -97 -40 -201q-8 -77 -8 -151q0 -27 1 -53q4 -100 23.5 -191.5t52.5 -165t79 -124t103 -66.5q43 -12 42 -35.5t-31 -45.5q-32 -22 -84 -34q-34 -8 -69 -8q-20 0 -42 3q-59 7 -119.5 42t-105.5 111q-51 84 -75 194q-22 101 -22 212v19 q2 122 28 248.5t73 245.5t112.5 225.5t149.5 186.5q-92 -53 -183 -135t-173 -184.5t-148.5 -221.5t-109.5 -246q-42 -126 -58 -258q-6 -54 -7 -107q0 -76 13 -149q6 -41 -5 -59t-33.5 -18t-51 18t-55.5 53q-49 61 -87 169t-58 241q-18 121 -17 255v27q2 150 33 293 q-35 -84 -66.5 -175t-62.5 -180t-61.5 -174t-61.5 -157q-53 -123 -124 -210t-149.5 -136t-161.5 -56q-13 -1 -25 -1q-70 0 -138 33q-70 35 -106 92t-48 119q-8 42 -8 83q0 20 2 39z" />
<glyph unicode="N" horiz-adv-x="1816" d="M16 104q6 58 21.5 92.5t35 38t33.5 -44.5q14 -51 47 -79.5t74 -38.5q19 -5 40 -4q23 0 46 6q45 10 84 37q33 20 64 55t59.5 76t54 85t48.5 85q47 86 95 191.5t101 212t109.5 206.5t116 177t123.5 122q62 43 129 43h6q37 0 59 -13.5t29.5 -30.5t-3 -34.5t-36.5 -30.5 q-33 -14 -68 -66t-66.5 -134t-55.5 -187q-26 -104 -34 -220q-4 -52 -4 -105q0 -65 6 -131q10 -120 48 -236q33 158 118.5 338t214.5 348t299 308.5t373 218.5q26 10 44 10q9 0 15 -2q22 -7 28 -21q3 -6 3 -13q0 -9 -5 -19q-9 -18 -34 -27q-51 -18 -125.5 -70.5 t-157.5 -129.5t-167 -176t-152 -214q-84 -141 -131 -291.5t-53 -280.5q-1 -19 -1 -37q1 -108 31 -188q36 -94 119 -118q39 -10 35 -31t-34 -41q-30 -19 -82 -32q-45 -11 -93 -11h-15q-56 2 -109.5 23.5t-90.5 72.5q-49 61 -95 176t-75 259q-30 144 -36 300q-1 27 -2 53 q0 127 26 246q-35 -84 -65.5 -175t-61.5 -180t-61.5 -174t-61.5 -157q-53 -123 -123.5 -210t-150.5 -136t-163 -56q-13 -1 -25 -1q-70 0 -138 33q-70 35 -106 92t-48 119q-8 41 -8 81q0 21 2 41z" />
<glyph unicode="O" horiz-adv-x="1615" d="M76 314q6 167 98 360q47 98 112.5 190t147.5 172q-39 63 -39 126v6q2 66 29 124t67.5 101t77.5 59q19 8 35 8q14 0 24 -6q17 -11 17 -44q0 -12 -2 -26q-6 -35 -6 -67q0 -57 18 -107q123 74 259 115q123 37 256 37h26q113 -4 188.5 -44t110.5 -100q32 -56 32 -120v-12 q-3 -70 -46 -134q18 -66 18 -148q1 -38 -3 -80q-12 -132 -62 -273.5t-130.5 -276.5t-190 -239.5t-245.5 -162.5q-109 -47 -230 -47q-31 0 -63 3q-152 14 -268.5 91t-176.5 203q-55 114 -55 262q0 15 1 30zM368 350q-9 -61 -9 -115q-1 -56 9 -105q18 -97 69.5 -161.5 t127.5 -83.5q40 -9 79 -9q58 0 114 20q94 34 175 106t144.5 172t100.5 206q36 106 42 212q1 15 0 30q0 88 -28 160q-27 -4 -55.5 -8t-57.5 -4q-18 -1 -37 -1q-98 1 -198 19q-118 22 -221 76q-53 -59 -98.5 -123.5t-75.5 -132.5q-63 -135 -81 -258zM799 1024q78 -59 174 -85 q61 -16 118 -17q33 0 64 6q100 14 151.5 60t54.5 93v6q0 43 -43 76q-37 28 -108 28q-16 0 -34 -1q-90 -8 -187.5 -52t-189.5 -114z" />
<glyph unicode="P" horiz-adv-x="1777" d="M14 40q6 48 19.5 76.5t30 31t28.5 -36.5q12 -43 40 -67t64 -31q16 -3 32 -3q20 0 41 4q38 8 73 31q27 18 54.5 47t52 62.5t47 69.5t41.5 69q45 84 94 185.5t102 201.5q-20 -2 -40 -2t-41 2q-42 4 -79.5 20.5t-70.5 47t-53 79.5q-19 45 -19 92q0 43 16 91q34 98 132 182 t253.5 139t362.5 55q170 0 290 -49t192 -130q74 -81 98 -184q13 -56 13 -113q1 -48 -9 -98q-20 -108 -85 -210t-173.5 -183t-260 -130t-344.5 -49q-98 0 -165 22l-82 -190q-47 -102 -107.5 -175t-128 -113t-140.5 -46q-12 -1 -23 -1q-61 0 -117 27q-59 29 -90 77 q-30 47 -42 99q-8 34 -8 67q0 17 2 33zM718 924q26 -66 99 -97q69 111 145 183q73 71 155 71h5q45 -2 45 -27q0 -4 -2 -10q-10 -36 -71 -94q-35 -33 -71 -89t-70.5 -127.5t-70.5 -154.5t-73 -169q25 -18 57 -30q25 -9 55 -10q9 0 19 1q104 6 194.5 50t161 109.5t118.5 146.5 t70 165q18 66 18 129q0 17 -1 33q-6 78 -45 137q-38 59 -112 92q-62 28 -153 28q-16 0 -34 -1q-190 -12 -293.5 -69.5t-137.5 -128.5q-19 -40 -19 -78q-1 -31 11 -60z" />
<glyph unicode="Q" horiz-adv-x="1562" d="M33 309q2 172 94 365q47 102 117.5 196.5t156.5 176.5q-33 59 -33 117v14q5 65 31.5 120.5t66.5 97.5t77 58q19 8 33 8q15 0 25 -8q15 -11 15 -43q0 -12 -2 -27q-5 -31 -5 -60q0 -15 1 -29q4 -42 17 -81q123 72 260 112q125 36 256 36h26q113 -4 188 -44t111 -100 q32 -54 32 -119v-11q-3 -72 -46 -136q19 -65 19 -147q0 -48 -7 -103q-18 -145 -79.5 -296.5t-162 -292t-235.5 -238.5q123 -92 240 -145q97 -43 178 -43q17 0 33 2q11 1 19 1q31 0 40 -16q5 -8 5 -18q0 -15 -10 -33q-17 -31 -58 -66.5t-100.5 -61t-131.5 -33.5 q-15 -1 -31 -1q-57 0 -118 21q-98 33 -184.5 102.5t-161.5 161.5q-74 -18 -152 -18q-152 0 -272.5 75.5t-186.5 204.5q-65 125 -65 291v10zM316 341q-6 -51 -6 -97q0 -67 14 -124q22 -97 76.5 -159.5t131.5 -75.5q21 -4 45 -4q16 0 33 2q-59 92 -107 187.5t-83 185.5 q-10 26 -10 54q0 12 2 24q6 41 22.5 69.5t37 37t34.5 -18.5q61 -111 153.5 -224.5t200.5 -211.5q90 68 163 168t117 210.5t53 219.5q2 22 2 43q0 84 -30 155q-27 -4 -55.5 -8t-56.5 -4q-18 -1 -36 -1q-101 0 -205 19q-122 23 -226 82q-59 -63 -108.5 -130.5t-82.5 -139.5 q-63 -135 -79 -259zM768 1026q78 -59 175 -86q62 -17 121 -17q33 0 64 5q100 14 151.5 60t54.5 93v6q0 43 -43 76q-37 28 -108 28q-16 0 -34 -1q-88 -8 -186.5 -51t-194.5 -113z" />
<glyph unicode="R" horiz-adv-x="1769" d="M20 42q6 48 19.5 76.5t30 31t28.5 -36.5q12 -43 41 -67q29 -22 64 -30q16 -4 34 -4q19 0 39 4q38 8 72 31q27 18 54.5 46t52 61.5t47 70.5t41.5 70q45 84 94 185.5t102 201.5q-20 -2 -40 -2t-41 2q-42 4 -79.5 20.5t-70.5 47t-53 79.5q-19 44 -19 91q0 44 18 92 q36 98 133 182t252.5 139.5t360.5 55.5q219 0 356 -75q138 -76 195 -188q42 -83 42 -177q1 -33 -5 -69q-20 -134 -116.5 -251t-265.5 -201t-409 -96q80 -125 194 -247t237 -216q122 -95 242 -149q98 -45 179 -44q18 0 35 2q11 1 20 1q30 0 40 -15q5 -8 5 -19q-1 -14 -11 -32 q-18 -31 -58.5 -66.5t-99 -61.5t-130.5 -33q-15 -1 -31 -1q-58 0 -120 21q-123 39 -227.5 137t-189.5 222t-149.5 258t-103.5 247q-10 2 -20 3t-21 5q-29 -72 -57.5 -139.5t-56.5 -130.5q-47 -102 -107.5 -175t-128 -113t-140.5 -46q-11 -1 -22 -1q-61 0 -118 28 q-59 29 -90 77q-30 46 -42 98q-7 33 -8 65q0 18 2 35zM725 926q27 -66 98 -97q69 111 145 183q73 71 155 71h5q45 -2 45 -28q0 -3 -1 -9q-9 -36 -72 -94q-55 -51 -109.5 -152.5t-107.5 -230.5q8 -27 17 -53.5t24 -54.5q14 0 22 2q139 10 253 74.5t187.5 156.5t105.5 196 q19 61 19 115q1 38 -9 73q-22 84 -105 138q-71 47 -196 47q-19 0 -38 -1q-190 -12 -293.5 -69.5t-137.5 -128.5q-19 -40 -19 -78q0 -31 12 -60z" />
<glyph unicode="S" horiz-adv-x="1376" d="M34 133q-4 24 -4 48q0 88 50 171q47 80 105.5 115t115.5 41q15 2 29 2q42 0 78 -14q50 -18 78 -41t28 -46.5t-41 -31.5q-63 -12 -103 -57.5t-54 -102.5q-8 -33 -9 -68q1 -27 5 -53q10 -64 44 -114q36 -50 94 -78q41 -20 93 -20q22 0 47 3q90 12 161.5 63.5t100.5 119.5 q20 49 24 103q1 10 0 20q0 45 -12 89q-16 54 -51 106t-92 95q-53 39 -92 89.5t-61 106.5q-23 57 -28 117q-1 14 -1 28q0 46 12 91q-66 49 -109 121q-41 63 -41 128v6q2 68 28 125t67 100q42 43 78 59q19 9 35 9q15 0 25 -7q16 -10 16 -41q0 -13 -3 -31q-5 -31 -5 -61 q0 -33 6 -63q11 -58 40 -107q98 95 232 155q125 56 262 56h18q113 -2 185.5 -46t104.5 -108q25 -49 24 -104q0 -17 -2 -34q-10 -75 -59.5 -139.5t-141.5 -110.5t-226 -50q-21 -1 -42 -1q-122 0 -246 30q23 -31 55.5 -63.5t73.5 -61.5q86 -68 134 -142.5t68 -152.5 q14 -54 13 -109q-1 -24 -3 -47q-8 -78 -34 -149q-27 -68 -78 -130.5t-118.5 -109.5t-149.5 -75.5t-168 -30.5h-19q-134 0 -248 53q-122 57 -196.5 147t-92.5 203zM831 1006q76 -47 163 -69q55 -14 107 -14q31 0 60 5q86 14 130 59t47 93v7q0 44 -34 79q-36 38 -110 38 q-43 0 -92 -12t-95 -34.5t-86 -52.5t-67 -67z" />
<glyph unicode="T" horiz-adv-x="1169" d="M18 42q6 48 18.5 76.5t29 31t28.5 -36.5q12 -43 41 -67q29 -22 63 -30q16 -4 34 -4q19 0 40 4q39 8 72 31q29 18 55.5 46t52 61.5t48.5 70.5t41 70q37 70 77.5 152.5t83.5 167.5t89.5 165t95.5 146q-154 2 -287 23.5t-221 60.5q-61 27 -98 72.5t-55.5 96t-18.5 97.5 t11 78q10 30 32 38q4 1 9 1q18 0 40 -25q39 -45 131 -82t215 -62.5t263 -37.5q105 -9 207 -9q34 0 67 1q41 27 88 51t94 41.5t91 29t81 13.5q11 1 22 1q61 0 102 -20q48 -24 60 -63q3 -10 3 -21q0 -30 -24 -65q-32 -47 -114 -88q-104 -53 -236 -84t-274 -41 q-51 -55 -101 -154.5t-100.5 -218.5t-100.5 -246t-101 -239q-47 -102 -107.5 -175t-129 -113t-140.5 -46q-11 -1 -22 -1q-60 0 -117 28q-59 29 -91 77q-33 46 -43 98q-7 34 -6 67q0 17 2 33z" />
<glyph unicode="U" horiz-adv-x="1642" d="M4 1059q0 49 12.5 83t34.5 43t49 -22q33 -39 85.5 -61.5t116.5 -31.5q44 -6 92 -6q22 0 44 1q74 4 152 18q55 74 114.5 129.5t113.5 89.5t102 44q16 4 29 3q28 0 50 -14q39 -26 39 -77q0 -18 -5 -40q-19 -82 -130 -176q-66 -53 -140.5 -104t-158.5 -88 q-68 -104 -110 -215q-63 -162 -86 -286q-15 -80 -15 -145q1 -35 5 -65q12 -86 55 -135t110 -61q15 -3 31 -2q54 -1 112 31q76 42 151 123t145.5 190.5t132 230.5t108.5 245t73 233q26 110 30 196q0 10 1 19q0 72 -24 112q-23 37 -11 55t42 18h3q32 -1 77 -20.5t87 -56.5 t73.5 -93.5t39.5 -127.5q2 -21 2 -43q0 -91 -32 -207q-40 -144 -118.5 -294.5t-187 -295.5t-233.5 -257q-125 -111 -258 -175q-110 -53 -218 -53q-22 0 -44 2q-115 12 -189.5 93t-98.5 216q-10 55 -10 117q0 91 21 199q35 180 142 393q-46 -8 -92 -8q-10 1 -22 1 q-58 2 -118 21q-63 18 -101 61t-55.5 93.5t-17.5 99.5z" />
<glyph unicode="V" horiz-adv-x="1286" d="M68 1254q32 22 88 37q38 10 79 10q19 -1 39 -3q62 -6 124.5 -40.5t107.5 -108.5q54 -90 72 -207q10 -68 10 -140q0 -51 -4 -103q-12 -126 -47 -255t-85.5 -246.5t-109.5 -217t-119 -166.5q86 49 166 137t158 200.5t154.5 241.5t155.5 260t162 256t171 228.5t184 177.5 t203 102q52 13 97 13q22 0 42 -3q62 -10 106 -39.5t70.5 -67.5t33.5 -72q3 -13 3 -23q0 -18 -8 -31q-12 -20 -45 -12q-34 7 -67 7q-73 1 -145 -33q-106 -50 -211 -148.5t-210.5 -232.5t-213 -278.5t-217.5 -287.5t-223.5 -260t-231 -196t-240.5 -93q-7 -1 -14 -1 q-19 0 -33 8q-20 11 -25.5 30.5t1.5 47.5t34 56q72 80 123 205t78.5 268.5t30.5 291.5v32q0 131 -22 243q-26 126 -79 215t-139 113q-40 11 -40 34q0 26 36 51z" />
<glyph unicode="W" horiz-adv-x="1777" d="M49 1254q33 22 89 36q38 10 79 11q19 -1 38 -3q62 -6 124.5 -40.5t107.5 -108.5q55 -90 73 -207q11 -69 10 -141q0 -50 -4 -102q-12 -126 -47.5 -255t-85.5 -246.5t-109.5 -217t-118.5 -166.5q109 45 210 138t186 214t145 258t88 272q19 94 20 182q0 38 -4 76 q-12 123 -76 213q-20 29 -10 47.5t38 27.5q25 8 58 8h7q38 -1 76 -12t68 -33.5t42 -55.5q55 -90 73 -207q10 -68 10 -140q0 -51 -6 -103q-12 -126 -46.5 -255t-85 -246.5t-110 -217t-118.5 -166.5q86 49 166 137t157.5 200.5t154.5 241.5t156 260t162 256t171 228.5 t184 177.5t203 102q52 13 96 13q22 0 43 -3q61 -10 105.5 -39.5t71 -67.5t33.5 -72q3 -13 3 -23q0 -18 -8 -31q-12 -20 -45 -12q-34 7 -67 7l-145 -33q-106 -50 -211.5 -148.5t-211 -232.5t-213 -278.5t-217 -287.5t-223 -260t-231.5 -196t-240 -93q-7 -1 -14 -1 q-18 0 -32 8q-20 11 -26 30.5t1 47.5t34 56q78 86 131 223.5t80 292.5q-59 -115 -135 -220t-168.5 -193t-201 -151.5t-235.5 -92.5q-7 -1 -14 -1q-18 0 -32 8q-19 11 -25.5 30.5t1 47.5t31.5 56q72 80 124.5 205t80 268.5t29.5 291.5v23q-1 136 -23 252q-24 126 -78.5 215 t-138.5 113q-40 11 -40 34q0 26 36 51z" />
<glyph unicode="X" horiz-adv-x="1732" d="M18 8q2 64 26 119t52 85t48 24q17 -5 17 -48q0 -8 -1 -18t-1 -20q-1 -48 25 -74q30 -31 77 -39q19 -3 40 -3q27 0 59 6q54 11 95 34q35 18 72.5 45.5t75.5 61.5t75 70t67 71q43 47 101.5 109.5t128.5 133.5q-6 88 -10 177t-9 176q-59 -39 -130.5 -65t-159.5 -36 q-23 -3 -45 -3q-45 0 -87 12q-62 16 -111.5 44.5t-82.5 64.5t-42 63q-8 28 8 44q10 9 32 9q14 0 33 -4q60 -12 130 -12q3 1 6 1q73 0 147.5 15.5t147 46t136.5 73.5q6 129 41 214t92 94q6 1 11 1q45 0 75 -60q19 -39 19 -97q0 -41 -9 -90q-12 -57 -35.5 -109.5t-60.5 -99.5 q14 -78 29.5 -150.5t34.5 -142.5q119 121 246.5 243t245.5 218q117 96 215 156q94 59 153 59h4q37 -1 37 -19q0 -7 -6 -18q-22 -35 -109 -92q-47 -31 -126 -106.5t-177 -177t-208 -220.5t-216 -237q49 -135 107.5 -241t122.5 -178q66 -73 136 -108q56 -28 114 -28q15 0 30 2 q13 1 24 1q34 -1 44 -15q12 -20 -8.5 -51.5t-68.5 -67t-111.5 -61.5t-137.5 -34q-19 -2 -38 -2q-55 0 -108 17q-66 20 -114.5 70t-84.5 122t-60.5 163t-39.5 193l-210 -245q-86 -102 -174.5 -175t-172.5 -113t-158 -46q-11 -1 -23 -1q-60 0 -107 28q-80 47 -110 111 q-28 60 -28 121v9z" />
<glyph unicode="Y" horiz-adv-x="1339" d="M22 1070q5 50 19 84t36.5 43t47.5 -21q59 -78 172 -118q73 -26 161 -26q48 0 101 8q66 86 134.5 154t131 108.5t114.5 53.5q20 6 37 6q28 0 48 -14q32 -23 32 -68q0 -23 -8 -52q-26 -85 -143 -177q-90 -72 -196 -138q-43 -74 -70 -145.5t-34 -130.5q-3 -21 -3 -40 q0 -35 8 -63q13 -45 49 -61q27 -14 55 -14q19 0 38 7q49 15 98 56t97 101.5t93 130.5q51 90 104.5 178t109 166t113 142.5t112.5 105.5q37 29 63 30h1q24 0 34 -14q6 -8 6 -20q0 -9 -4 -21q-8 -27 -39 -53q-70 -61 -136.5 -189.5t-134 -287t-139 -329.5t-147.5 -319 q-66 -127 -146.5 -218t-167.5 -141t-174 -58q-13 -1 -27 -1q-72 0 -140 35q-70 35 -102.5 90.5t-41.5 112.5q-5 26 -5 51q0 30 7 58q11 53 29 81.5t38.5 26.5t31.5 -51q10 -53 38.5 -86t68.5 -45q28 -8 60 -8q14 0 28 1q48 5 98 29q51 25 106 78.5t105.5 117t89.5 127 t55 108.5h-2q-41 -53 -101.5 -103.5t-128 -85.5t-136.5 -46q-19 -3 -37 -3q-47 0 -87 20q-53 27 -90 77t-44 127q-1 16 -1 32q0 66 21 147q28 103 106 236q-25 -12 -58.5 -24.5t-69.5 -18.5t-70 -7h-7q-31 0 -57 9q-59 20 -93 63.5t-47 94.5q-11 38 -11 76q0 13 1 25z" />
<glyph unicode="Z" horiz-adv-x="1642" d="M10 28q2 52 39 97t108.5 76.5t180.5 36.5q45 2 89 2q33 0 65 -1q76 -3 151 -10q70 66 138.5 142.5t140.5 158.5q45 51 103 116t123.5 133.5t135.5 137t137 130.5q-69 -7 -140 -7q-35 0 -71 2q-106 5 -200 31q-47 -90 -132 -162.5t-214 -117.5q-58 -20 -116 -20h-14 q-64 3 -119 20.5t-94.5 44t-55 52t-3.5 44t64 18.5q66 2 137.5 20.5t142 51.5t135 79t117.5 103q-25 44 -30 92q-2 16 -2 30q0 31 8 60q10 42 31.5 72.5t49.5 40.5q15 5 31 5q10 0 20 -2q26 -5 47 -28.5t34.5 -64.5t15.5 -102q0 -20 -1 -39t-3 -37q69 -25 147 -32 q60 -5 121 -6q17 0 34 1q77 2 149.5 13.5t131.5 23.5q43 43 96.5 89t105.5 78t98 38q6 1 12 1q37 0 57 -32q18 -27 18 -55q-1 -17 -7 -34q-18 -46 -67.5 -88t-128.5 -78t-173 -62q-49 -47 -107.5 -118t-124 -155t-137.5 -179t-147 -194q-23 -29 -50.5 -63.5t-56.5 -70.5 t-55.5 -68.5t-46.5 -57.5q242 -53 401 -141q68 -39 107 -92t53 -109q10 -42 10 -80q0 -14 -1 -27q-5 -50 -22.5 -82t-43.5 -39q-4 -1 -8 -1q-21 0 -44 27q-27 31 -90 75.5t-150 96t-191.5 101.5t-211.5 91q-53 -37 -113.5 -68.5t-120 -54t-114.5 -36t-96 -13.5 q-96 0 -159.5 28.5t-94.5 72.5q-29 41 -29 89v6zM193 41q-1 -15 25 -25q18 -8 50 -7q12 0 25 1q41 4 84 22.5t90 49.5q-71 12 -129 12q-26 0 -49 -2q-49 -6 -72.5 -21.5t-23.5 -29.5z" />
<glyph unicode="[" horiz-adv-x="804" d="M61 -197.5q2 19.5 13 45.5q16 45 51 131.5t80 195t95 230t99.5 237.5t91 216t70.5 168q16 41 39 65.5t43 34.5l29 13q31 8 75 12t91 6t94 1t86 -3q33 -2 42 -24.5t0 -50t-35 -50t-58 -24.5q-61 -4 -135 -6.5t-134 -4.5l-10 -20q-20 -37 -55 -112t-77 -172t-90 -205.5 t-94 -216t-90 -203t-79 -162.5q66 10 150.5 10t150.5 -4q33 -2 42 -24.5t0 -50.5t-35 -50.5t-58 -24.5q-43 -4 -94.5 -5t-100.5 -2t-91 -2t-67 -3q-31 0 -37 23q-4 12 -2 31.5z" />
<glyph unicode="\" horiz-adv-x="747" d="M7 1367.5q7 41.5 31.5 53t57.5 -13.5t56 -92q10 -35 39.5 -112t71.5 -181t91 -228t100.5 -252t100.5 -253t89 -230.5t67.5 -184.5t38.5 -116q10 -41 6 -65.5t-16.5 -28.5t-32 10.5t-37.5 51.5q-20 43 -68.5 155.5t-110 260t-131 315.5t-133 324.5t-116.5 283.5t-82 195 q-29 66 -22 107.5z" />
<glyph unicode="]" horiz-adv-x="886" d="M-163 -162.5q9 27.5 34 50t59 24.5q61 4 134 6t133 4l12 21q20 37 54 111.5t77 171t90 206t94 216t91 201.5t79 165q-66 -10 -150.5 -10t-150.5 4q-33 2 -42 24.5t0 50t34 50t59 24.5q43 2 94.5 4t100.5 3t91 2t67 3q31 0 34 -22q10 -27 -8 -78q-16 -45 -51 -131 t-80 -194.5t-95 -230.5t-99 -237.5t-91 -216t-71 -168.5q-18 -41 -40 -65.5t-44 -34.5q-6 -4 -13.5 -7t-13.5 -5q-31 -8 -75 -13.5t-91 -6.5t-94 0t-86 3q-33 2 -42 25t0 50.5z" />
<glyph unicode="^" horiz-adv-x="929" d="M271.5 790.5q7.5 32.5 41.5 71.5q25 29 64 67t81 74.5t80 67.5t58 43q29 18 71 21.5t76 -29.5q16 -16 42 -48t52.5 -74t51 -90t41.5 -95q16 -51 11 -78t-22.5 -32t-45 10.5t-56.5 50.5q-37 41 -89 91t-101 91q-70 -33 -138.5 -82t-130.5 -109q-25 -25 -48 -23.5t-34.5 21 t-4 52z" />
<glyph unicode="_" horiz-adv-x="712" d="M-277 -169q-6 19 5.5 46t35 50.5t52.5 31.5q20 6 68 9t109.5 6t130.5 4.5t131 1.5t113 -1.5t78 -3.5q33 -2 42.5 -24.5t0 -50t-35 -50t-58.5 -24.5q-29 -2 -83 -3t-118.5 -2t-135 -2t-131 -2t-106.5 -2t-63 -1q-29 -2 -35 17z" />
<glyph unicode="`" horiz-adv-x="671" d="M48 1226q5 44 25.5 63.5t53.5 -15.5q31 -35 96.5 -74t137 -73.5t134 -61.5t91.5 -37t30.5 -31.5t-13.5 -42t-43 -31t-54 4.5q-18 8 -74.5 20.5t-121 28.5t-123 34.5t-83.5 39.5q-35 29 -48 80t-8 95z" />
<glyph unicode="a" horiz-adv-x="1003" d="M-45 160q-9 34 -9 72q0 42 11 90q20 90 88 182q63 86 143 142t160 79q50 14 98 15q28 0 56 -6q74 -14 127 -66q16 29 29.5 46t30 27.5t38 15.5t51.5 11q34 4 62 6h12q20 0 32 -5q16 -7 18.5 -26.5t-17.5 -56.5q-20 -39 -46 -83t-51.5 -88t-49 -85t-42.5 -72 q-18 -33 -34.5 -64.5t-24.5 -57t-4 -42t31 -16.5q37 0 84 20.5t94 55.5t89 80t73 96q20 33 42 44t36 3q17 -9 16 -36q0 -22 -17 -54q-35 -63 -101.5 -132t-140 -125t-146 -93t-120.5 -37q-68 0 -114.5 28.5t-52.5 90.5q-45 -47 -106.5 -83t-139.5 -36q-80 0 -133.5 44 t-71.5 116zM148 256q6 -27 28.5 -43t59.5 -16q86 0 169.5 90t155.5 243q-20 29 -51 39q-22 8 -48 8q-15 0 -32 -3q-45 -7 -91 -31.5t-89 -64.5t-74 -91q-20 -35 -28 -69q-4 -18 -4 -35q1 -14 4 -27z" />
<glyph unicode="b" horiz-adv-x="745" d="M-44 198v18q0 94 46 228q51 146 184 340q92 135 179.5 228.5t164 146.5t138.5 65q20 4 38 4q38 0 66 -18q43 -28 43 -79q0 -30 -15 -68q-40 -102 -182 -232q-41 -37 -90 -75.5t-99 -77.5t-99 -75t-90 -66q-29 -57 -46 -115q-18 -58 -21 -104q-1 -9 0 -17q-1 -35 9 -61 q12 -32 41 -39q31 -10 60.5 0t55.5 30.5t46.5 47t32.5 51.5q-46 33 -60 90q-4 18 -5 37q0 40 20 82q16 37 40.5 63.5t51.5 41.5t53.5 19.5t46.5 -4.5q57 -23 69 -91q2 -9 1 -19q0 -65 -64 -168q27 -9 58 -9q19 0 37 3q52 8 79 55q20 33 45 43q24 10 40 2q17 -9 17 -33 q0 -23 -24 -55q-35 -47 -75 -75q-39 -26 -80 -38q-33 -9 -65 -10l-17 1q-41 3 -76 16q-39 -61 -87 -112.5t-98.5 -88.5t-100.5 -58.5t-91 -21.5q-72 0 -122 50t-55 148zM389 760q61 51 117.5 101t96.5 92q41 42 61 71q14 19 13 30q0 5 -3 9q-3 2 -8 2q-12 1 -32 -15 q-28 -22 -66 -65t-84 -102.5t-95 -122.5z" />
<glyph unicode="c" horiz-adv-x="784" d="M-36 293q7 88 56 186q35 70 91.5 133.5t125 106.5t144.5 56q23 4 46 4q52 0 103 -21q61 -25 89 -69q27 -42 27 -89q0 -50 -28 -96q-28 -45 -79 -70q-42 -21 -74 -21q-15 1 -27 5q-40 14 -52 49q-4 11 -4 24q0 26 16 57q22 46 85 79q18 29 -5 37q-6 2 -14 2q-21 0 -52 -14 q-43 -20 -96.5 -74t-94.5 -148q-29 -64 -31 -110v-10q0 -40 14 -68q16 -32 42 -49t57 -23q19 -4 40 -4q37 0 79 12q66 18 131 53t125.5 86.5t105.5 112.5q25 31 48.5 41t38 2t14.5 -30.5t-23 -55.5q-61 -88 -135 -159.5t-153.5 -122t-163.5 -78t-168 -27.5q-94 0 -160 38 t-96 102q-24 52 -23 120q0 16 1 33z" />
<glyph unicode="d" horiz-adv-x="1064" d="M-43 160q-9 35 -9 74q0 42 10 88q19 90 87 182q59 80 132 133t147 79q64 23 125 24q9 0 18 -1q70 -4 125 -39q20 49 46 106.5t50.5 111t46 99.5t33.5 75q20 45 33.5 72.5t28 45t35 27.5t57.5 20q36 9 72 19q32 9 56 9h4q24 -1 34 -16.5t-7 -54.5q-12 -27 -36.5 -80 t-56.5 -121.5t-67.5 -145t-67.5 -147.5t-59.5 -130.5t-41.5 -91.5q-23 -49 -42.5 -101.5t-24.5 -96.5q-1 -12 -1 -23q0 -29 10 -49q14 -28 58 -27q90 0 172 63.5t141 165.5q20 33 41.5 44t37.5 3q18 -9 17 -36q0 -22 -18 -54q-45 -76 -109.5 -145.5t-137.5 -124t-147.5 -86 t-138.5 -31.5q-72 0 -110.5 50t-42.5 124q-23 -29 -51.5 -58.5t-65.5 -56t-82 -43t-96 -16.5q-80 0 -133.5 44t-71.5 116zM150 256q6 -27 28.5 -43t59.5 -16q86 0 153.5 97t138.5 267l-20 8q-22 8 -48 8q-15 0 -31 -3q-44 -7 -90 -31.5t-89 -64.5t-74 -91q-20 -35 -28 -69 q-4 -18 -4 -35q1 -14 4 -27z" />
<glyph unicode="e" horiz-adv-x="784" d="M-38 293q7 88 58 186q35 70 89.5 134.5t120.5 107.5t140 57q23 5 47 5q50 0 101 -21q55 -25 84 -64t31 -86v-7q1 -44 -21 -90q-24 -50 -73 -93q-66 -59 -159 -99t-187 -55q10 -45 41.5 -68.5t68.5 -29.5q19 -4 40 -4q37 0 79 12q66 18 131 53t125.5 86.5t105.5 112.5 q25 31 48.5 41t38 2t14.5 -30.5t-23 -55.5q-61 -88 -135 -159.5t-153.5 -122t-164.5 -78t-167 -27.5q-94 0 -160 38t-96 102q-25 52 -25 121q0 16 1 32zM203 389q68 12 140.5 44t125.5 104q25 33 25 58q0 11 -6 21q-15 25 -49 25q-6 0 -12 -1q-44 -5 -102.5 -54t-105.5 -156 z" />
<glyph unicode="f" horiz-adv-x="526" d="M-213 -74q-1 4 -1 9q0 24 24 73q27 57 65.5 147.5t87.5 198t108.5 227t128 236.5t144.5 224.5t160 191.5q53 53 104 73q36 13 66 13q13 0 24 -2q39 -8 62 -40q22 -29 22 -72v-7q0 -35 -24.5 -86t-64.5 -110.5t-91 -125t-102 -128.5q-123 -147 -279 -314q39 -57 82 -78 q35 -18 69 -18q8 0 16 1q42 5 78 30.5t60 60.5q23 33 46.5 42t39 2t16.5 -30.5t-24 -56.5q-47 -66 -111.5 -122t-126.5 -75q-25 -8 -49 -8q-35 0 -67 18q-53 29 -78 136q-16 -43 -32.5 -95.5t-35.5 -105.5q-20 -61 -53 -113.5t-108 -80.5q-31 -12 -66 -25q-33 -13 -56 -13 h-3q-25 1 -31 23zM322 670q27 31 67.5 80t84.5 104t87 112.5t76 105.5t49 83q11 23 11 36q0 6 -3 9q-5 6 -12 6q-17 0 -46 -28q-42 -41 -95.5 -119t-111.5 -181.5t-107 -207.5z" />
<glyph unicode="g" horiz-adv-x="954" d="M-252 -140q2 54 35 105t102 90q23 12 47.5 21.5t51.5 19.5q-36 59 -36 142q0 20 2 42q11 109 95 224q61 82 137 137t154 79q59 19 114 19q18 0 36 -2q71 -8 126 -51q14 23 26.5 37t28 22.5t36 13.5t49.5 9q33 4 62 6h12q20 0 32 -5q16 -7 18.5 -26.5t-18.5 -56.5 q-20 -39 -45 -83t-50.5 -88t-49 -85t-43.5 -72q-31 -49 -58.5 -105t-56.5 -116q111 43 212 112.5t187 180.5q23 27 46.5 38t39.5 5t16 -29q0 -21 -24 -57q-51 -80 -114.5 -140.5t-134 -106.5t-146.5 -80.5t-152 -59.5q-57 -104 -133 -191.5t-190 -127.5q-88 -31 -160 -31 h-16q-78 4 -131.5 32.5t-80.5 76.5q-26 45 -26 94v7zM-102 -110q-1 -5 -1 -10q0 -24 19 -44q23 -22 70 -22q57 0 132 45t154 155q-57 12 -117 12h-5q-62 -1 -117 -20q-66 -23 -98.5 -54.5t-36.5 -61.5zM150 256q6 -27 28.5 -43t59.5 -16q86 0 153.5 97t138.5 267l-18 8 q-22 8 -48 8q-15 0 -32 -3q-45 -7 -91 -31.5t-89 -64.5t-74 -91q-20 -35 -28 -69q-4 -19 -4 -35q0 -14 4 -27z" />
<glyph unicode="h" horiz-adv-x="956" d="M-188 74q8 32 38 92q45 86 125 225t177.5 293t200 300t192.5 249q51 57 100 77q34 13 61 13q13 0 24 -3q36 -9 56 -42q17 -28 18 -65q0 -7 -1 -15q-6 -68 -56.5 -130t-118 -125.5t-138 -130.5t-117.5 -146q63 51 126.5 81.5t125.5 30.5q79 0 111 -34q30 -31 29 -82v-10 q-3 -58 -36 -134t-88 -160q-20 -31 -36.5 -63.5t-23 -58t1 -42t33.5 -16.5q39 0 85.5 20.5t93.5 55.5t89 80t72 96q20 33 42 44t36 3q17 -9 17 -36q0 -22 -17 -54q-35 -63 -95 -132t-134 -125t-154 -93t-155 -37q-61 0 -100.5 23.5t-56.5 62.5q-13 29 -13 65q0 13 2 26 q6 52 37 110q27 53 68.5 112.5t71.5 108.5t35 81t-38 29q-31 -2 -72 -26.5t-92 -78.5t-111.5 -142t-132.5 -215l-8 -21q-25 -51 -38 -78.5t-29.5 -40t-42 -14.5t-72.5 -2q-35 0 -58.5 4t-33.5 20q-5 9 -5 22q1 13 5 28z" />
<glyph unicode="i" horiz-adv-x="487" d="M-80 256q31 68 54.5 122t45 100t41 86t37.5 79t33.5 61.5t33 35t40 17.5t55.5 11q33 4 61.5 6t46 -5t18.5 -26.5t-19 -56.5q-20 -39 -46 -83t-50.5 -88t-48 -85t-42.5 -72q-18 -33 -34.5 -64.5t-25.5 -57t-4 -42t29 -16.5q39 0 85 20.5t93.5 55.5t90.5 80t73 96 q20 33 42 44t37 3q14 -7 16 -31v-5q0 -22 -19 -54q-35 -63 -100.5 -132t-140 -125t-146.5 -93t-121 -37q-47 0 -86 14t-61 46q-21 30 -20 76q0 50 32 120zM235 1010q13 34 41.5 62t67.5 47.5t77 23.5q9 1 17 1q28 0 53 -10q32 -14 48 -49q7 -18 7 -37q0 -16 -6 -32 q-12 -34 -41.5 -61t-69.5 -44.5t-79 -20.5q-8 -1 -15 -1q-29 0 -55 10q-32 12 -44 45q-7 17 -7 34q0 16 6 32z" />
<glyph unicode="j" horiz-adv-x="479" d="M-608 -184q14 57 75.5 103t174.5 52q35 2 60.5 3t45.5 1q12 23 42 75t65.5 119t76.5 140.5t77 140t64 118.5t40 75q18 39 33.5 61.5t33 35t39 17.5t55.5 11q33 4 62 6t45 -5t18 -26.5t-18 -56.5q-20 -39 -46 -83t-51.5 -88t-49 -85t-41.5 -72q-37 -66 -71 -122t-67 -107 q117 43 224.5 113.5t199.5 187.5q20 27 44 38t39 5q17 -6 17 -29q0 -21 -24 -57q-53 -84 -120.5 -148.5t-143.5 -111.5t-158 -81t-162 -58q-47 -113 -101 -186.5t-112.5 -114.5t-119.5 -53q-29 -5 -59 -5q-31 0 -62 6q-74 16 -107 69q-23 38 -23 77q0 17 5 35zM-478 -206 q7 -13 42 -13t65.5 24.5t53.5 57.5h-45h-10q-33 0 -59 -11q-30 -14 -42 -30q-8 -9 -8 -18q0 -5 3 -10zM241 1010q13 34 41.5 62t67.5 47.5t77 23.5q9 1 17 1q28 0 53 -10q32 -14 48 -49q8 -19 8 -37q0 -16 -6 -32q-12 -33 -42 -60.5t-70 -45t-79 -20.5q-8 -1 -15 -1 q-30 0 -55 10q-32 12 -44 45q-7 17 -7 34q0 16 6 32z" />
<glyph unicode="k" horiz-adv-x="880" d="M-203 24q-4 8 -4 20q0 14 5 30q9 32 42 92q31 57 81 140t110.5 178.5t129 199.5t139.5 203.5t140.5 188.5t132.5 157q53 57 103 77q34 13 61 13q13 0 24 -3q35 -9 55 -42q14 -24 15 -56q0 -11 -2 -24q-6 -57 -50 -116.5t-105.5 -121t-131 -126t-128.5 -129.5 q90 49 160.5 49t113.5 -36q42 -36 52 -98q2 -14 2 -29q0 -51 -25 -110q-37 -82 -86 -129t-94 -71q-53 -29 -109 -41q0 -23 10 -41q8 -16 27.5 -28.5t56.5 -12.5q39 0 88 23.5t99.5 61.5t95.5 87t76 100q20 33 41.5 44t35.5 3q17 -9 17 -36q0 -22 -19 -54q-35 -63 -100 -132 t-139 -125t-146.5 -93t-119.5 -37q-78 0 -130.5 33t-85 81t-48 102t-21.5 97q-6 -10 -12.5 -20t-10.5 -21l-69 -137q-25 -51 -39.5 -78.5t-31.5 -40t-43 -14.5t-73 -2q-35 0 -58.5 4t-31.5 20zM199 367q38 -14 77 -14q32 -1 64 9q70 20 120 60.5t68 86.5q7 17 7 32 q0 24 -19 41q-22 19 -53 19q-34 0 -77 -23q-83 -43 -187 -211z" />
<glyph unicode="l" horiz-adv-x="579" d="M-43 198v15q0 95 47 231q51 146 184 340q92 135 179.5 228.5t164 146.5t138.5 65q20 4 38 4q38 0 66 -18q43 -28 43 -79q0 -31 -15 -69q-40 -102 -181 -231q-41 -37 -91.5 -76.5t-100.5 -78.5t-100 -75t-91 -66q-25 -55 -39.5 -107.5t-16.5 -96.5v-14q0 -36 8 -64 q10 -34 35 -52q16 -11 40 -11q11 0 23 2q40 7 89 36.5t101 80.5t102 121q20 33 42.5 43t37 3t15.5 -30.5t-20 -58.5q-49 -84 -111.5 -154.5t-131 -122t-140 -81t-139.5 -29.5q-72 0 -122 50t-54 148zM389 760q61 51 117.5 101t97.5 92q42 42 62 71q14 19 13 30q0 5 -3 9 q-3 2 -8 2q-12 1 -32 -15q-28 -22 -66 -65t-85 -102.5t-96 -122.5z" />
<glyph unicode="m" horiz-adv-x="1298" d="M-145 80q16 47 30.5 88t36.5 88q29 68 52.5 122t45 100t42 86t38.5 79t38 61.5t42.5 36t48 18.5t60.5 9q7 1 13 1q43 0 43 -28q0 -27 -28 -88q59 55 121 90t125 35q149 0 149 -104q0 -10 -1 -21q59 55 120.5 90t124.5 35q78 0 112 -36.5t34 -97t-31 -135.5t-80 -151 q-20 -31 -37.5 -62.5t-24.5 -58t-2 -43t31 -16.5q39 0 85.5 20.5t93.5 55.5t88.5 80t72.5 96q20 33 42 44t36 3q17 -9 17 -36q0 -22 -17 -54q-35 -63 -101.5 -132t-140 -125t-146.5 -93t-120 -37q-49 0 -89 14.5t-63.5 46t-25.5 79.5v6q0 46 29 110q25 51 63.5 115.5 t67.5 120t34 92.5t-38 34q-35 -2 -86 -57t-106.5 -137t-105.5 -174t-83 -168q-20 -45 -150 -45q-31 0 -42 16.5t-6 45t20.5 69.5t38.5 88q25 51 63.5 115.5t67 120t34 92.5t-37.5 34q-35 -2 -90.5 -57t-116 -137t-114.5 -174t-87 -168q-18 -45 -31.5 -63.5t-36.5 -18.5h-51 q-50 0 -68 16q-10 9 -10 28q0 15 7 36z" />
<glyph unicode="n" horiz-adv-x="905" d="M-145 80q16 47 30.5 88t34.5 88q29 68 53.5 122t46 100t42 86t38.5 79t38 61.5t42.5 36t48 18.5t60.5 9q7 1 13 1q43 0 43 -28q0 -27 -28 -88q59 55 121 90t125 35q78 0 119 -30q41 -32 47 -86q1 -10 1 -20q0 -48 -22 -108q-28 -74 -87 -163q-20 -31 -42 -65t-33 -62.5 t-9 -47t26 -18.5q39 0 85 20.5t93 55.5t90 80t74 96q20 33 42 44t36 3q16 -9 16 -36q0 -22 -18 -54q-35 -63 -100.5 -132t-139 -125t-146.5 -93t-120 -37q-49 0 -90 14t-65 46q-25 33 -24 83q0 47 30 113q25 51 63.5 115.5t67 120t34 92.5t-37.5 34q-35 -2 -90.5 -57 t-116 -137t-114.5 -174t-87 -168q-20 -45 -33.5 -63.5t-34.5 -18.5h-51q-48 0 -68 16q-10 9 -11 27q0 15 8 37z" />
<glyph unicode="o" horiz-adv-x="880" d="M-44 236v5q0 69 26 146q27 80 74.5 150.5t111 123t136.5 83t151 30.5q74 0 126 -29.5t79.5 -80t30.5 -118.5v-16q0 -62 -21 -131q20 -12 49 -20t58.5 -6t57 15t46.5 42q20 33 44.5 43t40.5 2q17 -9 16 -33q0 -23 -24 -55q-37 -51 -80 -79q-44 -28 -90 -38q-31 -7 -60 -7 q-14 0 -28 2q-43 5 -77 24q-35 -63 -82 -116.5t-102.5 -92.5t-118 -60.5t-125.5 -21.5q-76 0 -129.5 30.5t-81 83t-28.5 124.5zM196 276q24 -62 109 -63q72 0 132.5 46t94.5 118q-29 37 -40 72.5t-13 68.5t5.5 60.5t15.5 50.5q-10 4 -23.5 6t-27.5 2q-86 0 -152 -61.5 t-96 -149.5q-16 -48 -16 -88q0 -33 11 -62z" />
<glyph unicode="p" horiz-adv-x="905" d="M-274 -221q4 14 19 51t34.5 85t41 101.5t42 101.5t36 85t23.5 53q29 68 52.5 122t45 100t42 86t38.5 79t38 61.5t42.5 36t48 18.5t60.5 9h12q44 0 44 -27q0 -30 -36 -104q53 57 115.5 97t130.5 40q80 0 120 -50t43 -128v-13q0 -73 -30 -160q-33 -95 -100 -187 q-31 -43 -64 -76q59 18 117.5 49t110 67.5t91.5 76.5t62 77q20 33 42 44t36 3q16 -9 16 -36q0 -22 -18 -54q-53 -94 -152.5 -168t-214 -123t-227.5 -74q-98 -23 -168 -23q-12 0 -22 1h-14q-39 0 -74 9q-41 11 -76 36l-117 -266q-20 -45 -33.5 -63.5t-36.5 -18.5h-49 q-49 0 -69 17q-10 10 -10 28q0 15 8 37zM96 190q14 -16 43 -26q17 -6 37 -6t42 6q44 12 90 43t88 75t73 95q20 37 33 75q13 34 13 64q0 34 -17 56q-17 20 -54 20q-39 0 -85 -34t-92 -90t-90 -129t-81 -149z" />
<glyph unicode="q" horiz-adv-x="907" d="M-45 160q-9 33 -9 72q0 42 11 90q20 90 88 182q63 86 143 142t161 79q51 14 99 14q29 0 56 -5q74 -13 127 -66q35 59 73.5 75.5t100.5 24.5q9 1 16 1q29 0 37 -13q10 -15 -4 -53.5t-49 -104.5t-82 -162q-16 -35 -57 -125t-88 -196q88 78 176 150.5t153 164.5 q23 33 45.5 42t37.5 2q15 -8 15 -32q0 -23 -22 -55q-47 -72 -96 -121t-98.5 -89t-97.5 -74.5t-93 -78.5t-87 -102.5t-79 -142.5q-20 -45 -33.5 -63.5t-36.5 -18.5h-49q-49 0 -69 17q-10 10 -10 28q0 15 8 37q4 14 16 45t28.5 73t36 89t37.5 92q-41 -35 -91 -56.5t-109 -21.5 q-80 0 -133.5 44t-71.5 116zM148 318q-3 -17 -3 -32q0 -16 3 -30q8 -27 30.5 -43t59.5 -16q78 0 154.5 75.5t144.5 206.5l24 53q-18 25 -51 37q-22 8 -48 8q-15 0 -32 -3q-45 -7 -91 -31.5t-88 -64.5t-73 -91q-23 -35 -30 -69z" />
<glyph unicode="r" horiz-adv-x="702" d="M-27 372q2 24 27 58q16 23 31.5 48.5t29.5 51.5q-33 33 -38 78q-1 13 -1 26q0 34 8 68q12 48 40 93t63 77t73 46q19 7 36 7q18 0 34 -7q25 -10 29 -31t-1 -46.5t-17.5 -54t-22.5 -57.5q34 -10 62 -10q7 0 13 1q32 3 56.5 17.5t43 36t34.5 45.5q18 25 44 21t45.5 -25.5 t26.5 -54.5q2 -9 2 -18q0 -24 -13 -48q-2 -2 -3 -4q-12 -20 -37.5 -67.5t-54 -98.5t-53 -98t-35.5 -68q-16 -33 -32.5 -65.5t-25.5 -58t-5 -41t30 -15.5q39 0 85.5 20.5t93.5 55.5t89 80t72 96q20 33 42 44t36 3q17 -9 17 -36q0 -22 -17 -54q-35 -63 -96 -132t-133 -125 t-145.5 -93t-133.5 -37q-98 0 -112 86q-2 13 -3 28q0 80 68 203q35 59 70 113.5t67 101.5q-53 -35 -111 -47q-29 -6 -56 -6t-52 6q-29 -55 -65 -98q-29 -33 -54.5 -44t-39.5 -3q-12 7 -11 26v6z" />
<glyph unicode="s" horiz-adv-x="761" d="M-80 268q16 78 80 162q68 90 112 150.5t74.5 98.5t54 57.5t49 27.5t58.5 8h84q47 0 75 -3t41 -10t17 -18.5t4 -25.5q0 -31 -14 -39t-30.5 -14.5t-28.5 -22.5q-9 -12 -10 -43q0 -10 1 -21q5 -51 5 -100t-5 -95q-10 -93 -43 -171q43 8 88.5 28.5t88.5 49t79.5 65.5t61.5 78 q20 33 42 44t36 3q17 -9 16 -36q0 -22 -18 -54q-43 -78 -104.5 -134t-130 -96t-138.5 -62.5t-129 -31.5q-86 -63 -211 -63q-76 0 -128 36q-53 36 -73 95q-11 33 -11 71q0 31 7 66zM50 282q-1 -9 -1 -17q1 -41 19 -65q22 -28 61 -29h3q37 0 65 28q39 39 52 97t15 120 q1 41 1 79v37v9q0 50 11 82q-27 -31 -55 -66q-25 -29 -53.5 -66.5t-54.5 -72.5q-59 -80 -63 -136z" />
<glyph unicode="t" horiz-adv-x="546" d="M-56 198q3 98 60 245t191 341q23 33 50 76t60 88h-190q-25 0 -26 14.5t11.5 33t36 33.5t49.5 18q78 8 163 34.5t138 48.5q45 18 93 36t80 21h10q27 0 26 -16q0 -18 -41 -63l-8 -10q104 14 193.5 25.5t132.5 21.5q33 7 42 -5q5 -6 5 -16q0 -8 -4 -18q-8 -22 -30.5 -49 t-52.5 -51.5t-61.5 -41t-58.5 -16.5h-283q-51 -72 -103 -148.5t-93 -137.5q-45 -68 -80 -145t-54.5 -142.5t-22.5 -113.5v-12q0 -37 16 -48q17 -11 40 -11q13 0 25 3q40 8 87.5 37.5t100 79.5t101.5 120q20 33 42.5 43t37 3t15.5 -30.5t-19 -58.5q-49 -84 -111.5 -154.5 t-131.5 -122t-140.5 -81t-139.5 -29.5q-72 0 -116 50q-41 47 -40 136v12z" />
<glyph unicode="u" horiz-adv-x="907" d="M-72 70q-13 32 -13 74q0 49 17 112q33 115 86.5 214t106.5 173q25 35 44 57.5t38.5 36t43 19.5t58.5 12q33 4 59.5 5t40 -7t11.5 -26.5t-27 -53.5q-109 -152 -164 -248t-73 -150q-11 -34 -12 -55q0 -13 4 -20q12 -20 36 -20q39 0 71 22.5t60.5 59t56 85t58.5 99.5 q25 53 45.5 97t42.5 87q18 39 33.5 61.5t33 35t40 17.5t55.5 11q34 4 62 6h12q20 0 32 -5q16 -7 18.5 -26.5t-18.5 -56.5q-20 -39 -45.5 -83t-50 -88t-48.5 -85t-42 -72q-18 -33 -34.5 -64.5t-26 -57t-4 -42t29.5 -16.5q39 0 85 20.5t93.5 55.5t90.5 80t73 96q20 33 42 44 t36 3q15 -7 17 -31v-6q0 -22 -19 -53q-35 -63 -100.5 -132t-140 -125t-146.5 -93t-121 -37q-72 0 -122 34q-46 31 -46 96v11q-61 -72 -126.5 -106.5t-129.5 -34.5q-95 0 -123 70z" />
<glyph unicode="v" horiz-adv-x="827" d="M-58 234q10 66 35 138t62 143t78 128q25 35 44 57.5t39.5 36t43 19.5t57.5 12q33 4 59.5 5t41 -7t12.5 -26.5t-27 -53.5q-109 -152 -157 -247t-57 -148q-3 -17 -3 -30q0 -29 14 -45q20 -22 43 -23q7 -1 14 -1q24 0 50 11q33 14 64.5 41.5t63.5 65.5t62 81q-23 52 -23 105 q0 55 17 104q33 98 84 142q44 38 81 38q6 0 12 -1q42 -7 58 -65q4 -16 3 -36q0 -51 -27 -125q-14 -39 -34.5 -79t-43.5 -75q20 -20 49 -30.5t60 -6.5t60.5 19.5t49.5 48.5t44 43q25 10 39 3q15 -7 15 -32q0 -23 -20 -57q-39 -66 -88 -97.5t-99 -36.5q-12 -1 -24 -1 q-36 0 -72 12q-46 16 -79 41q-104 -141 -219 -223t-228 -82q-68 0 -104 32t-48 84q-6 27 -7 58q0 28 5 60z" />
<glyph unicode="w" horiz-adv-x="1214" d="M-74 70q-12 31 -13 71q0 50 19 115q33 115 85.5 214t105.5 173q25 35 44 57.5t39.5 36t43 19.5t57.5 12q33 4 59.5 5t41 -7t12.5 -26.5t-27 -53.5q-109 -152 -165 -248t-74 -150q-11 -34 -12 -55q0 -13 4 -20q12 -20 38 -20q35 0 63.5 18t55.5 50t51.5 73t51.5 86 q25 59 56.5 116.5t65.5 106.5q25 35 44.5 57.5t40 36t43 19.5t57.5 12q33 4 60.5 5t40.5 -7t11 -26.5t-26 -53.5q-109 -152 -156 -246t-56 -148q-3 -17 -3 -31q0 -29 13 -43q19 -20 44 -25q7 -1 15 -1q44 0 94 50q58 59 116 155q-23 50 -23 101q0 53 17 102q33 98 85 142 q45 38 82 38q6 0 12 -1q41 -7 57 -65q4 -16 4 -36q0 -51 -27 -125q-14 -39 -34.5 -79t-43.5 -75q20 -20 50 -29.5t61 -6.5t59.5 18.5t48.5 48.5t43 43t37 3q15 -7 16 -32q0 -23 -20 -57q-39 -66 -88 -97.5t-99 -36.5q-12 -1 -24 -1q-37 0 -71 12q-45 16 -78 41 q-49 -72 -101.5 -130t-104.5 -99q-52 -42 -106 -62q-42 -16 -85 -15q-12 0 -25 1q-80 8 -115 54t-39 116q-76 -86 -155.5 -128t-147.5 -42q-97 0 -125 70z" />
<glyph unicode="x" horiz-adv-x="878" d="M-104 14q-1 3 -1 5q0 18 25 44q12 12 39 40t64.5 66t84 85t97.5 96q-14 61 -23.5 106.5t-15.5 86.5q-20 -41 -43 -81t-47 -75q-25 -35 -49.5 -47t-38 -4t-13.5 32.5t25 61.5q55 88 95 167t57 114q12 45 81 57q31 4 58.5 6t49 -5t35 -26.5t17.5 -56.5l13 -137 q66 66 117.5 117t76.5 73q40 39 96 53q41 10 76 9q13 0 25 -1q45 -5 65.5 -24.5t-10.5 -46.5l-424 -367q0 -2 2 -4q6 -37 14.5 -69.5t20.5 -57t29.5 -39t44.5 -14.5q39 0 85 20.5t93 55.5t89 80t73 96q20 33 42.5 44t36.5 3q16 -9 15 -36q0 -22 -17 -54q-35 -63 -100 -132 t-140 -125t-146.5 -93t-120.5 -37q-86 0 -134.5 45t-76.5 150l-220 -193q-18 -16 -46 -19q-9 -1 -17 -1q-17 0 -33 5q-22 7 -26 27z" />
<glyph unicode="y" horiz-adv-x="882" d="M-326 -140q2 54 36 105t104 90q49 25 104 43q-4 20 -4 45q0 48 16 113q35 115 87.5 214t105.5 173q25 35 44 57.5t38.5 36t43 19.5t58.5 12q33 4 59.5 5t41 -7t11.5 -26.5t-28 -53.5q-109 -152 -164 -248t-73 -150q-12 -34 -12 -55q0 -12 4 -20q12 -20 36 -20 q39 0 71 22.5t61.5 59t57 85t56.5 99.5q25 53 45.5 97t42.5 87q18 39 33.5 61.5t33 35t39 17.5t56.5 11q33 4 62 6h12q20 0 32 -5q17 -7 19 -26.5t-19 -56.5q-20 -39 -44.5 -83l-49 -88t-49.5 -85t-43 -72q-33 -49 -60.5 -105t-56.5 -116q111 43 212.5 112.5t189.5 180.5 q20 27 43.5 38t39.5 5t16 -29q0 -21 -24 -57q-51 -80 -114.5 -140.5t-134 -106.5t-146.5 -80.5t-151 -59.5q-59 -104 -134 -191.5t-190 -127.5q-88 -31 -159 -31h-16q-77 4 -131 32.5t-82 76.5q-26 45 -26 94v7zM-176 -110q-1 -5 -1 -10q0 -24 19 -44q23 -22 70 -22 q57 0 132 45t157 155q-61 12 -124 12q-1 1 -3 1q-61 0 -115 -21q-66 -23 -98.5 -54.5t-36.5 -61.5z" />
<glyph unicode="z" horiz-adv-x="854" d="M-104 14q-1 3 0 6q0 17 24 43q16 18 67.5 69.5t121 120.5t148.5 145.5t149 146.5q-84 -39 -134 -39q-12 0 -24 2q-54 12 -74 49q-23 -45 -46.5 -90t-49.5 -80q-27 -35 -51.5 -47t-38 -4t-13.5 32.5t25 61.5q57 90 97 168t57 111q10 47 82 59q31 4 57 6t47.5 -5t35 -26.5 t17.5 -56.5q4 -39 20.5 -50t43 -2t62.5 36.5t81 68.5q40 39 96 53q41 10 76 9q13 0 25 -1q45 -5 65.5 -24.5t-10.5 -46.5l-662 -575q88 49 142 59q30 6 55 6q20 0 36 -4q36 -8 60.5 -22.5t55.5 -14.5q39 0 82 20.5t85 55.5t79.5 80t68.5 96q20 33 43 44t36 3q15 -9 15 -36 q0 -22 -16 -54q-35 -63 -97.5 -132t-131 -125t-137 -93t-115.5 -37q-33 0 -63 13.5t-60.5 28.5t-62.5 28.5t-68.5 13.5t-80.5 -17.5t-96 -62.5q-18 -16 -46 -20q-10 -1 -19 -1q-17 0 -31 5q-22 8 -28 26z" />
<glyph unicode="{" horiz-adv-x="933" d="M131 143q4 53 27.5 99.5t51.5 84.5t55.5 67.5t43 50t11 30.5t-38.5 12q-25 0 -33 13.5t-2 29t28.5 29.5t61.5 19q47 6 62.5 28.5t27.5 60.5t33.5 90t83.5 117q43 45 105.5 79t138 61.5t156.5 52t161 51.5q59 18 94 16.5t41 -17t-21.5 -38t-93.5 -45.5 q-102 -35 -181 -70.5t-137 -80.5t-97 -103.5t-62 -138.5q-8 -31 -19.5 -57.5t-32 -48t-54 -35t-84.5 -15.5q41 -29 54 -54t9 -50t-22.5 -47.5t-42.5 -44.5q-104 -96 -112.5 -207t73.5 -219q29 -37 27.5 -57.5t-21 -25.5t-51 5t-64.5 37q-37 27 -71.5 62.5t-59 76.5t-37 87 t-8.5 95z" />
<glyph unicode="|" horiz-adv-x="1122" d="M106.5 -349.5q-2.5 23.5 12.5 62.5q12 33 43 105.5t74 170t95 213t106.5 237.5t108.5 242t101 225.5t85.5 189.5t58.5 135q29 66 65.5 89t62 13t29.5 -51t-30 -102q-18 -33 -54.5 -107t-83.5 -175t-103 -223t-113.5 -247t-115 -246t-106.5 -222t-87 -176t-58 -108 q-25 -37 -44.5 -49t-31.5 -6t-14.5 29.5z" />
<glyph unicode="}" horiz-adv-x="825" d="M-395 -195.5q-6 15.5 21.5 38t92.5 44.5q100 33 180.5 70t138.5 82t97 103.5t62 138.5q8 31 19 57.5t31.5 48t53.5 34.5t86 15q-41 29 -54.5 54.5t-9 50t23 47t42.5 45.5q104 96 112.5 206.5t-73.5 219.5q-29 37 -28 57.5t20.5 25.5t51.5 -5.5t65 -36.5q76 -55 130 -138 t46 -184q-6 -53 -28.5 -99t-50.5 -84t-55.5 -67.5t-43 -50t-11.5 -32t39 -11.5q25 0 33 -13t2 -28.5t-28.5 -30t-61.5 -18.5q-47 -6 -62.5 -28.5t-27.5 -60.5t-34 -91t-83 -117q-43 -45 -105.5 -79t-138 -61.5t-156.5 -52t-161 -51.5q-59 -18 -94 -16t-41 17.5z" />
<glyph unicode="~" horiz-adv-x="858" d="M68.5 346q-7.5 16 9 44t69.5 59q104 63 193.5 83.5t138.5 -26.5q25 -23 47.5 -38t47 -20.5t53 4t65.5 35.5q35 25 63.5 26t40 -14.5t1 -42t-53.5 -57.5q-98 -70 -164.5 -97.5t-114.5 -29.5t-81 16.5t-59 41.5q-47 37 -76 44t-80 -24q-37 -23 -64.5 -21.5t-35 17.5z" />
<glyph unicode="&#xa1;" horiz-adv-x="802" d="M-49 -188.5q-8 16.5 14 47.5q23 31 60.5 85t85 122.5t97.5 143.5t96 144.5t85 129t64 96.5q35 55 68.5 76.5t58 20.5t35 -20.5t-2.5 -44.5q-8 -16 -29.5 -60t-52 -103.5t-66.5 -130t-72 -141.5t-68.5 -136.5t-55.5 -114.5q-18 -37 -54 -64.5t-77 -45t-82 -24.5t-68.5 -2 t-35.5 21.5zM565 989q0 61 45 106.5t109 45.5q61 0 106 -45.5t45 -106.5q0 -63 -45 -108t-106 -45q-63 0 -108.5 45t-45.5 108z" />
<glyph unicode="&#xa2;" horiz-adv-x="784" d="M-31.5 201.5q-11.5 58.5 1 129t50.5 148.5q31 61 77 117.5t103.5 98.5t122 64.5t130.5 16.5l34 82q29 66 66 89.5t62.5 13t29.5 -51.5t-31 -102l-18 -31.5t-21 -40.5q94 -51 114 -129t-38 -176q-33 -57 -73.5 -81.5t-73.5 -25.5t-50.5 14t-2.5 40q47 78 61 140.5t4 103.5 l-227 -449q4 0 7 -1t7 -1q53 -10 118.5 7.5t131 53t126 87t105.5 112.5q25 31 48.5 41t38 2t14.5 -30.5t-23 -55.5q-61 -88 -135 -159.5t-153.5 -122t-163.5 -78t-168 -27.5h-22.5t-20.5 2l-64 -108q-25 -37 -44 -49.5t-31.5 -6.5t-14.5 29.5t12 62.5q8 20 17.5 45t23.5 54 q-53 25 -85.5 69.5t-44 103zM188 326q-4 -45 11 -78q49 100 101 207.5t99 208.5q-39 -23 -85 -79.5t-93 -154.5q-29 -59 -33 -104z" />
<glyph unicode="&#xa3;" horiz-adv-x="1591" d="M25.5 130q9.5 48 48.5 95t114 84q70 35 145 47.5t151.5 7t153.5 -22.5t150 -44l41 53h-47q-23 0 -26.5 14.5t4.5 33t24.5 37t38.5 24.5q33 8 95 10l75 111h-39q-119 0 -196.5 16t-124.5 39.5t-66.5 51.5t-21.5 50.5t10 35.5t31 9q150 -41 279.5 -48t238.5 7 q55 80 109.5 145.5t108.5 108.5t108.5 55.5t111.5 -16.5t58.5 -84t-43 -116.5t-129.5 -119t-201 -93.5l-92 -148q31 -2 55.5 -2t40.5 -2q25 -2 31 -18.5t-0.5 -36t-24.5 -37t-43 -19.5l-143 -6q-23 -31 -47.5 -62.5t-51.5 -60.5q66 -31 122 -61.5t100 -52.5 q76 -43 102.5 -107.5t21 -119t-31 -81t-56.5 10.5q-47 53 -140 127.5t-249 150.5q-102 -90 -221 -147.5t-260 -65.5q-78 -4 -140.5 16.5t-104.5 55.5t-60.5 81t-9 94zM188.5 95q6.5 -32 43 -55.5t108.5 -23.5q90 0 170 41t154 109q-14 4 -27.5 9t-28.5 11q-106 39 -186 41 t-134.5 -16t-80 -51t-19 -65zM1331 797q106 41 147.5 87t2.5 62q-29 10 -66 -31t-84 -118z" />
<glyph unicode="&#xa4;" horiz-adv-x="995" d="M33 63.5q-8 16.5 16 38.5q33 27 89.5 77t115.5 104q-25 49 -25 108q0 92 58 160q-18 35 -33.5 71.5t-28.5 67.5q-10 27 8.5 47.5t48 29.5t60.5 4t47 -30l53 -100q10 2 20.5 3t20.5 1q41 0 78 -12t68 -35q41 37 83 74t79 69q29 25 63.5 30t59 -4t29.5 -29.5t-21 -47.5 q-41 -45 -97.5 -98t-109.5 -98q23 -49 22 -103q0 -45 -15 -85t-42 -75q23 -41 40 -74.5t30 -54.5q12 -23 -5.5 -39t-46 -24t-61.5 -4t-51 22q-16 16 -31.5 37t-30.5 45q-10 -2 -20 -2h-21q-80 0 -139 41q-41 -37 -82 -68.5t-74 -52.5q-29 -18 -63.5 -22t-59 4t-32.5 24.5z M360 391q0 -51 36 -87t87 -36t87 36t36 87t-35.5 87t-87.5 36q-51 0 -87 -36t-36 -87z" />
<glyph unicode="&#xa5;" horiz-adv-x="1017" d="M54 864q3 33 13.5 55.5t24.5 28.5t31 -14q39 -51 113.5 -79t173.5 -11q43 57 88 102t87 73t75.5 36t56.5 -6q33 -23 16.5 -80.5t-94.5 -116.5q-29 -25 -62.5 -47.5t-68.5 -44.5q-29 -49 -46.5 -96.5t-21.5 -86t4.5 -67.5t32.5 -41q29 -14 59.5 -5t62.5 35.5t63.5 65.5 t60.5 84q35 59 70.5 118.5t73.5 112t76 95.5t75 72q25 18 42 19t23.5 -9t1 -26.5t-25.5 -35.5q-43 -39 -86 -119.5t-86 -181t-88 -210t-94 -205.5q16 0 30.5 -1.5t28.5 -1.5q25 -2 33 -14t3 -27.5t-21.5 -27.5t-43.5 -14q-20 -2 -39.5 -3.5t-42.5 -1.5q-86 -135 -193.5 -186 t-203.5 -4q-45 23 -66.5 59.5t-27.5 74.5t1 72t19.5 53t25.5 18t19 -33q16 -70 72.5 -86.5t122.5 14.5l22 12q-18 0 -34.5 -1t-26.5 -1q-29 -2 -36 13.5t2 35t29.5 35t49.5 15.5q25 -2 54.5 -1t64.5 1q39 45 68.5 93t41.5 83h-2q-25 -35 -64.5 -69t-84.5 -57.5t-90 -29.5 t-82 12q-37 16 -61.5 49t-28.5 84.5t14 120t70 156.5q-33 -18 -84 -28.5t-90 -0.5q-39 12 -61.5 42t-32 63.5t-6.5 66.5z" />
<glyph unicode="&#xa6;" horiz-adv-x="1122" d="M106.5 -349.5q-2.5 23.5 12.5 62.5q25 68 50.5 129.5t55 127t63.5 143.5t77 178q29 66 65.5 89t62 13t29.5 -51t-30 -102q-35 -63 -70 -135t-72 -146t-74.5 -146.5t-78.5 -136.5q-25 -37 -44.5 -49t-31.5 -6t-14.5 29.5zM543 570.5q-2 23.5 12 62.5q25 68 50.5 129 t55 126.5t63.5 143.5t77 178q29 66 65.5 89.5t62 13.5t30 -51t-30.5 -103q-35 -63 -70 -135t-71.5 -145.5t-74.5 -146.5t-79 -136q-25 -37 -44.5 -49t-31.5 -6t-14 29.5z" />
<glyph unicode="&#xa7;" horiz-adv-x="1011" d="M5 -36q-5 56 26 126q23 51 53.5 75.5t63 31t61.5 -3t46 -23.5t20.5 -31.5t-15.5 -27.5q-78 -45 -105.5 -90.5t-23.5 -81t34 -57t65.5 -20.5t72.5 28.5t55 93.5q16 53 3 112.5t-40.5 114.5t-62.5 100t-61 72q-31 31 -44.5 53.5t-8 43t30 44t71.5 60.5q41 31 81 57.5 t72 40.5q-8 92 29 172t131 139q37 25 88 30t103.5 -6t98.5 -40t75.5 -71t35 -99t-25.5 -127q-23 -51 -53.5 -75.5t-63.5 -31t-61.5 3t-46 24.5t-21.5 31.5t17 29.5q78 45 105.5 90t23 80.5t-34 57t-65.5 20.5t-72.5 -29.5t-55.5 -94.5q-16 -53 -3 -112.5t41 -114.5 t62.5 -100t61.5 -72q31 -31 44 -52.5t8 -42t-29.5 -45t-71.5 -59.5q-41 -33 -82 -59.5t-72 -42.5q8 -90 -28.5 -170t-130.5 -139q-37 -25 -88.5 -30t-103.5 7.5t-98 40t-76 70.5t-35 99zM362 514q0 -12 10.5 -25.5l24.5 -31.5q51 -66 88 -134.5t60 -136.5q31 25 44 41.5 t13 29.5t-10 25.5t-25 30.5q-51 66 -89 134.5t-58 136.5q-31 -25 -44.5 -41.5t-13.5 -28.5z" />
<glyph unicode="&#xa8;" horiz-adv-x="755" d="M49 1085q0 57 41 98.5t98 41.5t98.5 -41t41.5 -99q0 -57 -41 -98t-99 -41q-57 0 -98 41t-41 98zM403 1085q0 57 41 98.5t99 41.5q57 0 98 -41t41 -99q0 -57 -41 -98t-98 -41t-98.5 41t-41.5 98z" />
<glyph unicode="&#xa9;" horiz-adv-x="1634" d="M162 387q0 135 51 254t140 208t208 140t252 51q135 0 254 -51t208 -140t140 -208t51 -254q0 -133 -51 -252t-140 -208t-208 -140t-254 -51q-133 0 -252 51t-208 140t-140 208t-51 252zM262 387q0 -113 44 -213t119 -175t175 -119t213 -44q115 0 216 44t176 119t119 175 t44 213q0 115 -44 216.5t-119 176t-176 118.5t-216 44q-113 0 -213 -44t-175 -118.5t-119 -176t-44 -216.5zM406.5 293q7.5 88 56.5 186q35 70 91 133.5t125 106.5t144.5 56t149.5 -17q61 -25 89 -69t26.5 -92t-29 -93t-78.5 -70q-61 -31 -101 -16.5t-51.5 49.5t11 81 t86.5 79q18 29 -5.5 37t-66.5 -12.5t-96 -74t-94 -147.5q-29 -63 -31 -109.5t13.5 -78t42 -49t56.5 -23.5q53 -10 119 7.5t131.5 53t126 87t105.5 112.5q25 31 48 41t37.5 2t15 -30.5t-22.5 -55.5q-61 -88 -135 -159.5t-154 -122t-164 -78t-168 -27.5q-94 0 -159.5 38 t-95.5 102.5t-22.5 152.5z" />
<glyph unicode="&#xaa;" horiz-adv-x="1003" d="M208.5 608.5q-18.5 71.5 2 161.5t88.5 182q63 86 143 142.5t160 79t153.5 9t127.5 -66.5q16 29 29.5 46.5t29.5 27.5t37.5 15t52.5 12q33 4 61.5 6t45 -5.5t18.5 -26.5t-18 -56q-20 -39 -46 -83t-51.5 -88t-49 -85t-42.5 -72q-18 -33 -34.5 -64.5t-24.5 -57.5t-4 -42 t31 -16q37 0 84 20.5t94 55t89 79.5t72 97q20 33 42 44t36.5 3t16.5 -32t-17 -58q-35 -63 -101.5 -132t-140 -125.5t-146.5 -93t-120 -36.5q-68 0 -114.5 28.5t-53.5 89.5q-45 -47 -106 -82.5t-139 -35.5q-80 0 -133.5 44t-72 115.5zM401.5 704.5q6.5 -26.5 28.5 -43 t59 -16.5q86 0 170 90t156 244q-20 29 -51 39q-35 12 -80 5t-91 -31.5t-89 -64.5t-74 -91q-20 -35 -27.5 -70t-1 -61.5z" />
<glyph unicode="&#xab;" horiz-adv-x="1077" d="M113 477q8 41 49 66q20 12 66 37.5t104.5 52t120 47t110.5 22.5q68 4 90.5 -14t5.5 -47q53 23 108.5 40t102.5 21q53 2 79 -9t26 -29.5t-22.5 -41t-63.5 -40.5q-25 -12 -64 -38t-82 -56.5t-82.5 -59.5t-66.5 -47q10 -20 34.5 -49t54.5 -60.5t61.5 -63.5t56.5 -58 q25 -27 15.5 -47.5t-37 -24.5t-69.5 11t-81 61q-25 27 -57.5 61.5t-63.5 69t-55.5 67t-30.5 55.5q-4 16 -5 35t3 39l-133 -96q10 -20 34.5 -49t54.5 -60.5t61.5 -63.5t56.5 -58q25 -27 15.5 -47.5t-37.5 -24.5t-70 11t-80 61q-25 27 -58 61.5t-63.5 69t-55 67.5t-30.5 55 q-10 33 -2 74z" />
<glyph unicode="&#xac;" horiz-adv-x="970" d="M131 361.5q-6 19.5 5 46t35 50t52 31.5q20 6 67.5 9.5t109 6.5t129 4t130 1t112.5 -1t77 -3q35 -4 42 -27.5t-3 -52.5q-12 -37 -29.5 -80t-37 -84t-40 -79t-41.5 -62q-18 -25 -50 -37t-59.5 -12t-43 12t-2.5 39q16 35 43.5 99.5t58.5 129.5q-66 -2 -147.5 -3t-158.5 -2 t-135.5 -2t-78.5 -1q-29 -2 -35 17.5z" />
<glyph unicode="&#xad;" horiz-adv-x="712" d="M131 361.5q-6 19.5 5 46t35 50t52 31.5q31 8 75 12.5t91 6.5t94 1t86 -3q33 -2 42.5 -24.5t0 -50.5t-35 -50.5t-58.5 -24.5q-43 -4 -94 -5t-100.5 -2t-91.5 -2t-66 -3q-29 -2 -35 17.5z" />
<glyph unicode="&#xae;" horiz-adv-x="1634" d="M162 387q0 135 51 254t140 208t208 140t252 51q135 0 254 -51t208 -140t140 -208t51 -254q0 -133 -51 -252t-140 -208t-208 -140t-254 -51q-133 0 -252 51t-208 140t-140 208t-51 252zM262 387q0 -113 44 -213t119 -175t175 -119t213 -44q115 0 216 44t176 119t119 175 t44 213q0 115 -44 216.5t-119 176t-176 118.5t-216 44q-113 0 -213 -44t-175 -118.5t-119 -176t-44 -216.5zM465 310.5q2 23.5 27 58.5q16 23 31.5 48t29.5 52q-33 33 -39 78t7.5 93t41 93t62 78t72.5 46t71 -1q25 -10 29 -30.5t-1 -46t-17.5 -54t-22.5 -57.5 q43 -12 74.5 -9t56 17t43 35.5t35.5 46.5q18 25 43.5 20.5t45 -26t26.5 -54t-11 -65.5q-2 -2 -2 -4q-12 -20 -37.5 -67.5t-54.5 -98.5t-53.5 -98.5t-34.5 -67.5q-16 -33 -32.5 -65.5t-26 -58.5t-5.5 -41t31 -15q39 0 85 20.5t93 55t89 79.5t73 97q20 33 41.5 44t36 3 t16.5 -32t-16 -58q-35 -63 -96.5 -132t-133 -125.5t-145.5 -93t-133 -36.5q-98 0 -112.5 86t65.5 231q35 59 69.5 113.5t67.5 101.5q-53 -35 -111.5 -47t-107.5 0q-29 -55 -66 -98q-29 -33 -54.5 -44.5t-38.5 -3t-11 32z" />
<glyph unicode="&#xaf;" horiz-adv-x="970" d="M131 986.5q-6 19.5 5 46t35 50t52 31.5q20 6 64.5 9t100.5 6.5t118.5 4.5t121 1t105.5 -1.5t74 -3.5q33 -2 42 -24.5t0 -50t-35 -50t-58 -24.5q-29 -2 -79 -3t-110.5 -2t-124 -2t-120 -2t-98.5 -2t-58 -1q-29 -2 -35 17.5z" />
<glyph unicode="&#xb0;" horiz-adv-x="692" d="M297 807q0 51 20.5 98t54.5 81t80 54.5t99 20.5q51 0 98 -20.5t81 -54.5t54.5 -81t20.5 -98q0 -53 -20.5 -99t-54.5 -80t-81 -54.5t-98 -20.5q-53 0 -99 20.5t-80 54.5t-54.5 80t-20.5 99zM428 807q0 -51 36 -87t87 -36t87 36t36 87t-36 87t-87 36t-87 -36t-36 -87z" />
<glyph unicode="&#xb1;" horiz-adv-x="899" d="M-57.5 -66.5q-5.5 13.5 5.5 32t34.5 35.5t52.5 26q31 8 106.5 12t161.5 6t165 1t118 -3q33 -2 42 -18.5t-0.5 -36t-35 -35.5t-57.5 -19q-29 -2 -77 -3t-104.5 -2t-116 -2t-111.5 -2t-92 -2t-57 -1q-29 -2 -34.5 11.5zM131 376q-6 13 5 31.5t35 36t52 25.5q27 6 85.5 10 t129.5 6q27 61 50.5 113.5t39.5 83.5t41 44t45.5 11t31.5 -19.5t-1 -47.5q-10 -29 -29.5 -77t-44.5 -106h117.5t85.5 -2q33 -2 42 -18t0 -35.5t-34.5 -36t-58.5 -18.5q-33 -4 -87 -5t-118 -3q-31 -68 -59.5 -122t-44.5 -77q-18 -25 -44 -36t-45.5 -11t-28.5 12t3 39l86 195 q-76 -2 -136.5 -2t-82.5 -2q-29 -2 -35 11z" />
<glyph unicode="&#xb2;" horiz-adv-x="903" d="M144 556q-3 38 12.5 76t46.5 64q41 35 90 45.5t98 3t93 -30t79 -55.5q33 23 70 48.5t78 60.5q98 80 135 143.5t31.5 108.5t-40 67.5t-80.5 19.5t-93 -34t-74 -94q-14 -33 -32.5 -28t-32 34t-15.5 75t16.5 96t61.5 97t121 80q76 31 145.5 12.5t116.5 -71.5t64.5 -133 t-11.5 -175.5t-113 -196.5t-239 -196q37 -10 80 -2.5t79.5 25.5t64.5 49t34 70q6 37 27.5 31.5t41 -37t27.5 -83t-10 -104.5q-18 -49 -55 -80.5t-85.5 -46t-101.5 -11.5t-102 24q-41 16 -69 42.5t-52 55.5q-104 -49 -180 -62.5t-125 -1t-74 44t-28 69.5zM286.5 566 q12.5 -9 53.5 -4t111 36q-41 20 -86 14q-53 -6 -72 -21.5t-6.5 -24.5z" />
<glyph unicode="&#xb3;" horiz-adv-x="808" d="M177 647q-1 53 22.5 102.5t52.5 80t51.5 33.5t20.5 -36q-4 -59 19.5 -110t63 -82t93 -34t108.5 34q43 27 72 59.5t41 64.5t9 59.5t-25 45.5q-27 -10 -53.5 -17t-55.5 -11q-86 -12 -120 12t-24.5 59t59.5 66t132 31q55 0 98 -17q16 18 28.5 37.5t16.5 38.5q4 33 -16 54.5 t-56 27.5t-83 -4t-94 -43q-27 -18 -41.5 -7t-12.5 39.5t20.5 67.5t55.5 72t93.5 54.5t133.5 16.5q86 -6 126 -51t40 -106.5t-35.5 -129t-101.5 -122.5q33 -43 35 -103.5t-22.5 -123t-70.5 -121t-110.5 -96t-142.5 -48t-166 20.5t-124 82t-37 104z" />
<glyph unicode="&#xb4;" horiz-adv-x="731" d="M39 996.5q8 21.5 39 31.5t102.5 37t153.5 61.5t158.5 73.5t119.5 74q45 35 59.5 15.5t5.5 -63.5t-38 -95.5t-72 -79.5q-31 -20 -95 -39t-133 -35t-129 -28.5t-83 -20.5q-31 -14 -54.5 -4t-32.5 30.5t-1 42z" />
<glyph unicode="&#xb5;" horiz-adv-x="907" d="M-317 -248q8 20 35.5 83t65.5 148t85 182t93 189t89 169t74 120q25 35 44 57.5t38.5 36t43 19.5t58.5 12q33 4 59.5 5t40 -7t11.5 -26.5t-27 -53.5q-109 -152 -164 -248t-73.5 -150.5t-7 -74.5t35.5 -20q39 0 71 22.5t60.5 59t56 85t58.5 99.5q25 53 45.5 97t42.5 87 q18 39 33.5 61.5t33 35t40 17.5t55.5 11q33 4 61.5 6t45 -5t18.5 -26.5t-19 -56.5q-20 -39 -45.5 -83t-50 -88t-48.5 -85t-42 -72q-18 -33 -34.5 -64.5t-26 -57t-4 -42t29.5 -16.5q39 0 85 20.5t93.5 55.5t90.5 80t73 96q20 33 42 44t36 3t16.5 -31.5t-18.5 -58.5 q-35 -63 -100.5 -132t-140 -125t-146.5 -93t-121 -37q-72 0 -122 34t-46 107q-61 -72 -126.5 -106.5t-129.5 -34.5q-82 0 -117 57q-23 -66 -21.5 -121t7.5 -101t10 -81t-10 -57q-25 -37 -70 -47t-87 0t-68.5 36.5t-11.5 65.5z" />
<glyph unicode="&#xb6;" horiz-adv-x="1122" d="M106.5 -349.5q-2.5 23.5 12.5 62.5q16 45 61 148.5t104.5 235.5t127 280.5t129.5 286.5q-68 10 -101.5 54t-35 103.5t27.5 125t84 120.5t135 91t180 36h512q39 0 43.5 -28.5t-14 -62.5t-54.5 -61.5t-75 -27.5q-49 0 -104 6q-4 -4 -4 -6q-25 -43 -74 -146.5t-112.5 -237.5 t-133.5 -283.5t-134.5 -284t-117.5 -239t-80 -147.5q-25 -37 -44 -49t-31.5 -6t-14.5 29.5t13 62.5q16 43 57 139.5t96 219.5t118.5 263t124 273t113 247t82.5 187l-125 27q-10 -25 -24 -55q-23 -43 -73 -146.5t-113.5 -237.5t-133 -283.5t-134 -284t-118 -239t-79.5 -147.5 q-25 -37 -44.5 -49t-31.5 -6t-14.5 29.5z" />
<glyph unicode="&#xb7;" horiz-adv-x="720" d="M215 418q0 63 45 108t107 45q63 0 108 -45t45 -108q0 -61 -45 -106.5t-108 -45.5q-61 0 -106.5 45.5t-45.5 106.5z" />
<glyph unicode="&#xb8;" horiz-adv-x="563" d="M24 -247q1 42 20 64.5t38 -5.5q25 -39 73 -55.5t97 -14.5t87 17.5t40 39.5q2 35 -45 58.5t-117 23.5q-35 0 -49 6.5t-16 15.5t5 20t17 22q29 33 56.5 65.5t45.5 59.5q25 33 66 45t76 9t50 -19.5t-11 -38.5q-20 -18 -43 -42t-39.5 -45.5t-23.5 -36t3 -14.5q29 0 56.5 -9 t49 -24.5t34 -40t12.5 -55.5q0 -41 -25.5 -82t-72 -71.5t-111 -45t-139.5 2.5q-78 16 -106.5 62t-27.5 88z" />
<glyph unicode="&#xb9;" horiz-adv-x="638" d="M223 471q6 14 31 61.5t58.5 111t72.5 139t76 147t67.5 132t49.5 97.5q-70 -29 -95.5 -25.5t-20.5 24t35.5 54t75.5 68.5q43 31 103.5 46t112 14t77 -21.5t-5.5 -58.5q-20 -27 -54 -82.5t-75 -126t-85 -149.5t-85 -150.5t-75.5 -132t-53.5 -91.5q-31 -47 -72 -70.5 t-74.5 -27.5t-53 7.5t-9.5 33.5z" />
<glyph unicode="&#xba;" horiz-adv-x="870" d="M223 713q2 84 33 176t84 173t118.5 141.5t136 95t136.5 34.5q76 0 124 -34.5t69.5 -95t16.5 -141.5t-36 -173t-81 -176t-112.5 -146.5t-136 -100.5t-149.5 -38q-66 0 -112 38t-69.5 100.5t-21.5 146.5zM429 741q30 -71 106 -71q94 0 164.5 71t103.5 177q18 53 22 105 t-5 93t-31.5 66.5t-61.5 25.5q-43 0 -88 -25.5t-85 -66.5t-71.5 -93t-48.5 -105q-35 -106 -5 -177z" />
<glyph unicode="&#xbb;" horiz-adv-x="1095" d="M98 114.5q0 18.5 22.5 41t63.5 41.5q25 12 64 37.5t82 56.5t83 59.5t66 46.5q-10 20 -34.5 49t-54.5 61t-61.5 63.5t-56.5 58.5t-15.5 47t37.5 24.5t68.5 -11t81.5 -60.5q25 -29 58 -63t63.5 -68.5t55 -67.5t30.5 -55q6 -20 5 -46t-11 -48q47 33 90 64.5t72 51.5 q-10 20 -34.5 49t-54.5 61t-61.5 63.5t-56.5 58.5t-15.5 47t37 24.5t68.5 -11t82 -60.5q25 -29 57.5 -63t63.5 -68.5t55.5 -67t30.5 -55.5q10 -33 2 -74t-49 -65q-20 -12 -66.5 -38t-105 -52.5t-119.5 -47t-111 -22.5q-78 -4 -96 19.5t10 54.5q-59 -29 -123.5 -50.5 t-117.5 -23.5q-53 -4 -79 8t-26 30.5z" />
<glyph unicode="&#xbc;" horiz-adv-x="1890" d="M45 326q8 16 36 70.5t66.5 129t85 161.5t89.5 170t78.5 153.5t56.5 111.5q-80 -31 -111 -28.5t-24.5 27t42.5 62.5t89 79q49 37 119.5 55t129 16t88 -25.5t-5.5 -68.5q-23 -29 -61.5 -93.5t-86.5 -146t-99.5 -173t-99.5 -175.5t-88 -152.5t-62 -105.5q-35 -55 -82 -81.5 t-87 -32t-62.5 8t-10.5 38.5zM65.5 39.5q6.5 23.5 32.5 54.5q31 37 115 125t196.5 202t239.5 244t246 249.5t215 218t147 151.5q49 51 91.5 61.5t63 -8t11 -58.5t-64.5 -87q-29 -25 -88.5 -82t-139 -136t-174 -172t-192.5 -190.5t-193.5 -191.5t-176.5 -172t-142.5 -135.5 t-91.5 -79.5q-35 -25 -58.5 -31t-33 4t-3 33.5zM790.5 177q2.5 30 37 75t112.5 98q51 37 101.5 88t91.5 107.5t69.5 112t36.5 99.5t-7.5 72.5t-62.5 30.5q-37 2 -38 20.5t21 41t59.5 41t81.5 21.5t86 -17.5t73 -77.5q27 -51 22.5 -104.5t-27 -103.5t-61 -98t-81.5 -91 q-102 -98 -252 -191l329 66q39 74 81 152.5t80 151t70 135t52 103.5q18 37 54 64.5t77 45t82 25t68.5 2t36 -22.5t-14.5 -46q-23 -31 -62.5 -95.5t-89 -148.5t-102.5 -176t-103 -178t-91 -155.5t-64 -106.5q-35 -55 -81 -82t-86 -32t-62.5 8.5t-9.5 37.5q6 16 32.5 65.5 t63.5 118.5q-57 -12 -121 -25t-124 -26.5t-108.5 -25t-74.5 -19.5q-43 -12 -70 -1t-24.5 41z" />
<glyph unicode="&#xbd;" horiz-adv-x="1845" d="M45 326q8 16 36 70.5t66.5 129t85 161.5t89.5 170t78.5 153.5t56.5 111.5q-80 -31 -111 -28.5t-24.5 27t42.5 62.5t89 79q49 37 119.5 55t129 16t88 -25.5t-5.5 -68.5q-23 -29 -61.5 -93.5t-86.5 -146t-99.5 -173t-99.5 -175.5t-88 -152.5t-62 -105.5q-35 -55 -82 -81.5 t-87 -32t-62.5 8t-10.5 38.5zM65.5 39.5q6.5 23.5 32.5 54.5q31 37 115 125t196.5 202t239.5 244t246 249.5t215 218t147 151.5q49 51 91.5 61.5t63 -8t11 -58.5t-64.5 -87q-29 -25 -88.5 -82t-139 -136t-174 -172t-192.5 -190.5t-193.5 -191.5t-176.5 -172t-142.5 -135.5 t-91.5 -79.5q-35 -25 -58.5 -31t-33 4t-3 33.5zM651 136q-4 44 13.5 88t54.5 75q49 41 106.5 53.5t113.5 4t108.5 -35t91.5 -63.5q39 25 82 55.5t90 69.5q113 92 155.5 167t37.5 126t-46 78.5t-94 23.5t-108.5 -39.5t-86.5 -109.5q-16 -37 -37.5 -32t-36 38t-17.5 86 t17.5 111.5t71 113.5t142.5 92q88 35 169 14.5t136 -82t74.5 -154.5t-14.5 -202.5t-132 -227.5t-278 -228q43 -12 93 -5t93 29.5t74.5 57t40.5 82.5q6 43 31.5 36.5t48 -43t33 -96t-12.5 -121.5q-20 -57 -64.5 -94t-99.5 -53.5t-116.5 -13t-118.5 27.5q-47 20 -81 51t-63 64 q-123 -57 -210 -72.5t-143 -1.5t-85 50t-33 80zM815 151.5q14 -10.5 62.5 -6t130.5 40.5q-46 23 -101 17q-61 -8 -83.5 -24.5t-8.5 -27z" />
<glyph unicode="&#xbe;" horiz-adv-x="2281" d="M99 640q-1 62 26 120.5t60.5 93.5t60 38t24.5 -42q-4 -70 22.5 -130.5t74 -95t110 -38.5t127.5 39q49 31 82 68.5t48.5 75.5t11 70.5t-30.5 55.5q-61 -27 -125 -35q-68 -10 -108 0t-55 32.5t-8 50.5t35.5 53.5t77 43t111.5 17.5q35 0 63.5 -5t53.5 -16q20 23 33.5 45.5 t17.5 44.5q6 37 -18.5 62.5t-66.5 33t-96.5 -5t-109.5 -49.5q-33 -23 -49 -8t-13 48.5t23.5 77.5t64.5 83t109.5 64.5t155.5 19.5q100 -6 148.5 -58.5t48.5 -125t-42 -152.5t-120 -143q39 -51 41 -122t-27 -144.5t-84 -141t-130 -111.5t-166 -56.5t-193 24.5 q-104 37 -145.5 96.5t-42.5 121.5zM414 39.5q6 23.5 32 54.5q31 37 115 125t196.5 202t239.5 244t246 249.5t215.5 218t147.5 151.5q49 51 91 61.5t62.5 -8t11 -58.5t-64.5 -87q-29 -25 -88 -82t-139 -136t-174.5 -172t-192.5 -190.5t-193.5 -191.5t-176 -172t-142 -135.5 t-92.5 -79.5q-35 -25 -58.5 -31t-32.5 4t-3 33.5zM1139 177q2 30 36.5 75t112.5 98q51 37 101.5 88t91.5 107.5t69.5 112t36.5 99.5t-7 72.5t-62 30.5q-37 2 -38 20.5t20.5 41t59 41t82 21.5t86 -17.5t72.5 -77.5q27 -51 23 -104.5t-26.5 -103.5t-61.5 -98t-82 -91 q-102 -98 -252 -191l330 66q39 74 80.5 152.5t79.5 151t70 135t52 103.5q18 37 54 64.5t77 45t82 25t68.5 2t36 -22.5t-14.5 -46q-23 -31 -62.5 -95.5t-88.5 -148.5t-102.5 -176t-103.5 -178t-91 -155.5t-64 -106.5q-35 -55 -81 -82t-86 -32t-62.5 8.5t-9.5 37.5 q6 16 32.5 65.5t63.5 118.5q-57 -12 -120.5 -25t-124 -26.5t-108.5 -25t-75 -19.5q-43 -12 -69.5 -1t-24.5 41z" />
<glyph unicode="&#xbf;" horiz-adv-x="1105" d="M-18.5 -141q-8.5 43 4 91t59.5 95q-16 68 5.5 141.5t76.5 141t143 124t205 91.5q23 6 65 18t86 27.5t81.5 30t50.5 26.5q33 29 69.5 41t64.5 9t40 -18t-2 -42q-23 -37 -63 -66.5t-89 -55.5t-100 -50.5t-96 -50.5q-68 -41 -118 -90.5t-81 -102.5q74 16 145.5 19.5 t137.5 -9.5q86 -16 136 -63t63.5 -104.5t-10.5 -117t-84 -103.5t-156.5 -61.5t-229.5 7.5q-139 27 -225 90q-45 -62 -43 -117q2 -33 -16.5 -38t-42 10.5t-46 49.5t-31 77zM354 35q14 -31 45 -54.5t82 -35.5q82 -18 137.5 -4t76 42.5t4 61.5t-73.5 49q-53 14 -126 -3 t-145 -56zM860 999q0 61 45 106.5t109 45.5q61 0 106 -45.5t45 -106.5q0 -63 -45 -108t-106 -45q-63 0 -108.5 45t-45.5 108z" />
<glyph unicode="&#xc0;" horiz-adv-x="1927" d="M12 -101.5q-4 33.5 10.5 54t47.5 12.5q98 -23 199.5 21.5t206 130.5t212 205.5t215.5 248.5q-92 6 -171 -15t-137 -58t-95 -84t-45 -92q-10 -45 -34 -51.5t-50.5 15t-50 64.5t-34 95.5t0 108.5t51.5 105q49 59 126 92t169 41.5t196.5 -7t208.5 -54.5q115 135 230.5 260 t231.5 213t230.5 128t229.5 7q51 -16 50 -62t-71 -81q-43 -20 -85 -63t-78.5 -103.5t-68.5 -134.5t-56 -158q-29 -96 -40.5 -200.5t-7 -205t24 -191.5t52 -164.5t78.5 -124t104 -66.5q43 -12 42 -35.5t-32 -45t-83 -34t-111.5 -5.5t-120 42t-105.5 111q-66 111 -87.5 255 t-4.5 304q-59 49 -119.5 85t-118.5 58q-90 -131 -182 -260t-189.5 -237.5t-198.5 -186.5t-208 -106q-78 -20 -137.5 -10t-101.5 39.5t-65.5 67.5t-27.5 71.5zM1212 649q45 -27 88 -57.5t84 -65.5q23 109 63 213.5t94 197.5t122 169t147 129q-76 -16 -150.5 -68.5 t-149 -131.5t-148.5 -178t-150 -208zM1633 1684.5q5 44.5 25.5 63.5t53.5 -15q31 -35 96.5 -74t137 -74t134 -61.5t91.5 -36.5t31 -31.5t-13.5 -42t-43 -31t-54.5 3.5q-18 8 -74.5 20.5t-121 29t-123 35t-82.5 38.5q-35 29 -48.5 80t-8.5 95.5z" />
<glyph unicode="&#xc1;" horiz-adv-x="1927" d="M12 -101.5q-4 33.5 10.5 54t47.5 12.5q98 -23 199.5 21.5t206 130.5t212 205.5t215.5 248.5q-92 6 -171 -15t-137 -58t-95 -84t-45 -92q-10 -45 -34 -51.5t-50.5 15t-50 64.5t-34 95.5t0 108.5t51.5 105q49 59 126 92t169 41.5t196.5 -7t208.5 -54.5q115 135 230.5 260 t231.5 213t230.5 128t229.5 7q51 -16 50 -62t-71 -81q-43 -20 -85 -63t-78.5 -103.5t-68.5 -134.5t-56 -158q-29 -96 -40.5 -200.5t-7 -205t24 -191.5t52 -164.5t78.5 -124t104 -66.5q43 -12 42 -35.5t-32 -45t-83 -34t-111.5 -5.5t-120 42t-105.5 111q-66 111 -87.5 255 t-4.5 304q-59 49 -119.5 85t-118.5 58q-90 -131 -182 -260t-189.5 -237.5t-198.5 -186.5t-208 -106q-78 -20 -137.5 -10t-101.5 39.5t-65.5 67.5t-27.5 71.5zM1212 649q45 -27 88 -57.5t84 -65.5q23 109 63 213.5t94 197.5t122 169t147 129q-76 -16 -150.5 -68.5 t-149 -131.5t-148.5 -178t-150 -208zM1708 1479.5q8 21.5 39 31.5t102.5 37t153.5 62t158.5 73.5t119.5 73.5q45 35 59.5 15.5t5.5 -63.5t-38 -95t-72 -80q-31 -20 -95 -38.5t-133 -35t-129 -29t-83 -20.5q-31 -14 -54.5 -4t-32.5 30.5t-1 42z" />
<glyph unicode="&#xc2;" horiz-adv-x="1927" d="M12 -101.5q-4 33.5 10.5 54t47.5 12.5q98 -23 199.5 21.5t206 130.5t212 205.5t215.5 248.5q-92 6 -171 -15t-137 -58t-95 -84t-45 -92q-10 -45 -34 -51.5t-50.5 15t-50 64.5t-34 95.5t0 108.5t51.5 105q49 59 126 92t169 41.5t196.5 -7t208.5 -54.5q115 135 230.5 260 t231.5 213t230.5 128t229.5 7q51 -16 50 -62t-71 -81q-43 -20 -85 -63t-78.5 -103.5t-68.5 -134.5t-56 -158q-29 -96 -40.5 -200.5t-7 -205t24 -191.5t52 -164.5t78.5 -124t104 -66.5q43 -12 42 -35.5t-32 -45t-83 -34t-111.5 -5.5t-120 42t-105.5 111q-66 111 -87.5 255 t-4.5 304q-59 49 -119.5 85t-118.5 58q-90 -131 -182 -260t-189.5 -237.5t-198.5 -186.5t-208 -106q-78 -20 -137.5 -10t-101.5 39.5t-65.5 67.5t-27.5 71.5zM1212 649q45 -27 88 -57.5t84 -65.5q23 109 63 213.5t94 197.5t122 169t147 129q-76 -16 -150.5 -68.5 t-149 -131.5t-148.5 -178t-150 -208zM1566 1429.5q7 32.5 42 71.5q25 29 63.5 67t80.5 74.5t80 67.5t58 43q29 18 71 21.5t77 -29.5q16 -16 41.5 -48t52.5 -74t51.5 -90t40.5 -95q16 -51 11 -78t-22.5 -32t-45 10.5t-56.5 50.5q-37 41 -89 91t-101 91q-70 -33 -138.5 -82 t-129.5 -109q-25 -25 -48.5 -23.5t-34.5 21t-4 52z" />
<glyph unicode="&#xc3;" horiz-adv-x="1927" d="M12 -101.5q-4 33.5 10.5 54t47.5 12.5q98 -23 199.5 21.5t206 130.5t212 205.5t215.5 248.5q-92 6 -171 -15t-137 -58t-95 -84t-45 -92q-10 -45 -34 -51.5t-50.5 15t-50 64.5t-34 95.5t0 108.5t51.5 105q49 59 126 92t169 41.5t196.5 -7t208.5 -54.5q115 135 230.5 260 t231.5 213t230.5 128t229.5 7q51 -16 50 -62t-71 -81q-43 -20 -85 -63t-78.5 -103.5t-68.5 -134.5t-56 -158q-29 -96 -40.5 -200.5t-7 -205t24 -191.5t52 -164.5t78.5 -124t104 -66.5q43 -12 42 -35.5t-32 -45t-83 -34t-111.5 -5.5t-120 42t-105.5 111q-66 111 -87.5 255 t-4.5 304q-59 49 -119.5 85t-118.5 58q-90 -131 -182 -260t-189.5 -237.5t-198.5 -186.5t-208 -106q-78 -20 -137.5 -10t-101.5 39.5t-65.5 67.5t-27.5 71.5zM1212 649q45 -27 88 -57.5t84 -65.5q23 109 63 213.5t94 197.5t122 169t147 129q-76 -16 -150.5 -68.5 t-149 -131.5t-148.5 -178t-150 -208zM1635 1478.5q-7 16.5 9.5 44t69.5 58.5q104 63 193.5 84t138.5 -27q25 -23 47.5 -38t47 -20t53 4t65.5 36q35 25 63.5 26t40 -14.5t1 -42t-53.5 -57.5q-98 -70 -164.5 -97.5t-115 -29.5t-81 16.5t-59.5 40.5q-47 37 -75.5 44t-79.5 -23 q-37 -23 -65 -22t-35 17.5z" />
<glyph unicode="&#xc4;" horiz-adv-x="1927" d="M12 -101.5q-4 33.5 10.5 54t47.5 12.5q98 -23 199.5 21.5t206 130.5t212 205.5t215.5 248.5q-92 6 -171 -15t-137 -58t-95 -84t-45 -92q-10 -45 -34 -51.5t-50.5 15t-50 64.5t-34 95.5t0 108.5t51.5 105q49 59 126 92t169 41.5t196.5 -7t208.5 -54.5q115 135 230.5 260 t231.5 213t230.5 128t229.5 7q51 -16 50 -62t-71 -81q-43 -20 -85 -63t-78.5 -103.5t-68.5 -134.5t-56 -158q-29 -96 -40.5 -200.5t-7 -205t24 -191.5t52 -164.5t78.5 -124t104 -66.5q43 -12 42 -35.5t-32 -45t-83 -34t-111.5 -5.5t-120 42t-105.5 111q-66 111 -87.5 255 t-4.5 304q-59 49 -119.5 85t-118.5 58q-90 -131 -182 -260t-189.5 -237.5t-198.5 -186.5t-208 -106q-78 -20 -137.5 -10t-101.5 39.5t-65.5 67.5t-27.5 71.5zM1212 649q45 -27 88 -57.5t84 -65.5q23 109 63 213.5t94 197.5t122 169t147 129q-76 -16 -150.5 -68.5 t-149 -131.5t-148.5 -178t-150 -208zM1626 1550q0 57 41 98.5t98 41.5t98.5 -41t41.5 -99q0 -57 -41 -98t-99 -41q-57 0 -98 41t-41 98zM1980 1550q0 57 41 98.5t99 41.5q57 0 98 -41t41 -99q0 -57 -41 -98t-98 -41t-98.5 41t-41.5 98z" />
<glyph unicode="&#xc5;" horiz-adv-x="1927" d="M12 -101.5q-4 33.5 10.5 54t47.5 12.5q98 -23 199.5 21.5t206 130.5t212 205.5t215.5 248.5q-92 6 -171 -15t-137 -58t-95 -84t-45 -92q-10 -45 -34 -51.5t-50.5 15t-50 64.5t-34 95.5t0 108.5t51.5 105q49 59 126 92t169 41.5t196.5 -7t208.5 -54.5q115 135 230.5 260 t231.5 213t230.5 128t229.5 7q51 -16 50 -62t-71 -81q-43 -20 -85 -63t-78.5 -103.5t-68.5 -134.5t-56 -158q-29 -96 -40.5 -200.5t-7 -205t24 -191.5t52 -164.5t78.5 -124t104 -66.5q43 -12 42 -35.5t-32 -45t-83 -34t-111.5 -5.5t-120 42t-105.5 111q-66 111 -87.5 255 t-4.5 304q-59 49 -119.5 85t-118.5 58q-90 -131 -182 -260t-189.5 -237.5t-198.5 -186.5t-208 -106q-78 -20 -137.5 -10t-101.5 39.5t-65.5 67.5t-27.5 71.5zM1212 649q45 -27 88 -57.5t84 -65.5q23 109 63 213.5t94 197.5t122 169t147 129q-76 -16 -150.5 -68.5 t-149 -131.5t-148.5 -178t-150 -208zM1827 1634q0 51 20.5 98.5t54 81t80 54t99.5 20.5q51 0 98 -20.5t81 -54t54.5 -80.5t20.5 -99q0 -53 -20.5 -99t-54.5 -80t-81 -54.5t-98 -20.5q-53 0 -99.5 20.5t-80 54.5t-54 80t-20.5 99zM1958 1634q0 -51 36 -87t87 -36t87 36t36 87 t-36 87t-87 36t-87 -36t-36 -87z" />
<glyph unicode="&#xc6;" horiz-adv-x="2652" d="M12 -101.5q-4 33.5 10.5 54t47.5 12.5q98 -23 200.5 21.5t208 130.5t214 205.5t218.5 248.5q-94 6 -174 -14t-140 -57t-97 -85t-45 -93q-10 -45 -34 -51.5t-50.5 15t-50 64.5t-34 95.5t0 108.5t51.5 105q49 59 127 93t171 42.5t198.5 -9t209.5 -56.5q113 133 227.5 255 t229.5 210t229.5 130t229.5 15q100 -25 151 -61q72 41 154 63.5t172 20.5q119 -2 196 -46t110.5 -107.5t24.5 -138.5t-61.5 -139.5t-148.5 -110.5t-236 -50q-29 0 -63.5 2t-68 9t-65.5 22.5t-52 42.5q-18 -55 -25 -107q66 -10 120 -30.5t90 -48t51 -62.5t1 -74 q-12 -35 -46 -56.5t-80 -27.5t-97 4.5t-100 34.5q-41 20 -71 45t-52 54q-80 -29 -134.5 -89.5t-84 -134t-33.5 -153.5t18.5 -147.5t70.5 -113.5t126 -55q84 -8 143.5 33t86 104.5t14 136t-69.5 130.5q-29 27 -16.5 45t48 24.5t87 -1t99.5 -31t87 -64.5t51 -102 q14 -80 -16.5 -158t-101 -139.5t-175 -98t-237.5 -36.5t-249 47t-189.5 134t-93 211t41.5 275q-57 43 -112.5 74t-108.5 53q-92 -131 -185 -261t-189.5 -238.5t-196 -187.5t-201.5 -105q-78 -20 -137.5 -10t-101.5 39.5t-65.5 67.5t-27.5 71.5zM1206 653q109 -63 197 -143 q72 98 176 152.5t215 74.5q-14 98 25.5 203t117.5 195q-84 72 -172 57.5t-179 -87.5t-186 -192.5t-194 -259.5zM2212 1077q-2 -45 15.5 -75.5t44 -48t60 -23.5t66.5 -2q100 14 151.5 60t54.5 94t-43 82t-142 26q-59 -6 -110.5 -36t-96.5 -77z" />
<glyph unicode="&#xc7;" horiz-adv-x="1308" d="M47 357.5q14 150.5 94 316.5q47 98 112.5 190t147.5 172q-41 66 -38.5 132.5t29 124t67.5 100.5t76.5 59t59 1.5t13.5 -69.5q-14 -92 15 -174q121 74 257 115t283 37q119 -4 196 -47t110.5 -107.5t24.5 -138.5t-62.5 -139.5t-149.5 -110.5t-235 -49q-115 -4 -233 17.5 t-220 74.5q-57 -63 -103.5 -130.5t-78.5 -137.5q-63 -135 -86 -260t-7.5 -223.5t67.5 -159t140 -66.5q84 -6 147.5 35t94.5 104.5t22.5 135t-65.5 129.5q-29 27 -16.5 45t48.5 24.5t87 -1t99 -31t87 -64.5t51 -102q14 -80 -16.5 -158t-100 -139.5t-175 -98t-238.5 -36.5h-10 q-25 -29 -40.5 -52.5t-0.5 -23.5q29 0 56.5 -9.5t49 -24.5t33.5 -39.5t12 -55.5q0 -41 -25.5 -82t-71.5 -72t-110.5 -45t-140.5 2q-78 16 -106.5 62.5t-27.5 88.5t20.5 64.5t37.5 -6.5q25 -39 73 -55.5t97 -14t87 17.5t40 40q2 35 -45 58.5t-117 23.5q-35 0 -49 6t-16 15 t5 20.5t17 21.5q16 23 35 43.5t35 40.5q-115 37 -197.5 124t-120.5 209t-24 272.5zM768 1022q78 -57 173 -83t181 -11q100 14 151.5 60t54.5 93t-43 82t-142 27q-90 -8 -186.5 -52t-188.5 -116z" />
<glyph unicode="&#xc8;" horiz-adv-x="1298" d="M24.5 121q-18.5 123 43.5 276q31 76 80 134.5t108 100.5t128 67.5t138 37.5q-10 80 13 164q-37 27 -70 59.5t-57 73.5q-43 66 -41 133.5t27.5 125t66.5 100.5t77.5 60t60 2.5t13.5 -71.5q-12 -72 2.5 -135t49.5 -116q45 51 100 93t118.5 72.5t134 48t148.5 15.5 q119 -2 196 -46t110.5 -107.5t24.5 -138.5t-61.5 -139.5t-148.5 -110.5t-235 -50q-131 -6 -265 23q-4 -14 -6 -26.5t-4 -27.5q66 -10 120 -30.5t90 -48t51.5 -62.5t0.5 -74q-12 -35 -46 -56.5t-80 -27.5t-97 4.5t-100 34.5q-80 43 -127 103q-86 -27 -146.5 -86.5t-94.5 -133 t-39 -153.5t19.5 -148.5t81 -116.5t146.5 -59q84 -8 143.5 33t86 104.5t14 136t-69.5 130.5q-29 27 -16.5 45t48.5 24.5t87 -1t99 -31t87 -64.5t51 -102q14 -80 -16.5 -158t-101 -139.5t-175 -98t-237.5 -36.5t-249 47t-189.5 135t-92 211zM858 971q66 -31 134.5 -42 t133.5 -1q100 14 151.5 60t54.5 94t-43 82t-142 26q-88 -8 -163 -70.5t-126 -148.5zM923 1678q5 44 25.5 63.5t52.5 -15.5q31 -35 96.5 -73.5t137.5 -73.5t134 -61.5t91 -36.5t31 -32t-13.5 -42.5t-43 -30.5t-54.5 4q-18 8 -74.5 20.5t-121 29t-122.5 35t-83 38.5 q-35 29 -48 80t-8 95z" />
<glyph unicode="&#xc9;" horiz-adv-x="1298" d="M24.5 121q-18.5 123 43.5 276q31 76 80 134.5t108 100.5t128 67.5t138 37.5q-10 80 13 164q-37 27 -70 59.5t-57 73.5q-43 66 -41 133.5t27.5 125t66.5 100.5t77.5 60t60 2.5t13.5 -71.5q-12 -72 2.5 -135t49.5 -116q45 51 100 93t118.5 72.5t134 48t148.5 15.5 q119 -2 196 -46t110.5 -107.5t24.5 -138.5t-61.5 -139.5t-148.5 -110.5t-235 -50q-131 -6 -265 23q-4 -14 -6 -26.5t-4 -27.5q66 -10 120 -30.5t90 -48t51.5 -62.5t0.5 -74q-12 -35 -46 -56.5t-80 -27.5t-97 4.5t-100 34.5q-80 43 -127 103q-86 -27 -146.5 -86.5t-94.5 -133 t-39 -153.5t19.5 -148.5t81 -116.5t146.5 -59q84 -8 143.5 33t86 104.5t14 136t-69.5 130.5q-29 27 -16.5 45t48.5 24.5t87 -1t99 -31t87 -64.5t51 -102q14 -80 -16.5 -158t-101 -139.5t-175 -98t-237.5 -36.5t-249 47t-189.5 135t-92 211zM858 971q66 -31 134.5 -42 t133.5 -1q100 14 151.5 60t54.5 94t-43 82t-142 26q-88 -8 -163 -70.5t-126 -148.5zM942 1475.5q8 21.5 39 31.5t102.5 37t153.5 61.5t159 73.5t120 74q45 35 59 15.5t5 -63.5t-38 -95t-72 -80q-31 -20 -95 -38.5t-132.5 -35t-129 -29t-83.5 -20.5q-31 -14 -54.5 -4 t-32.5 30.5t-1 42z" />
<glyph unicode="&#xca;" horiz-adv-x="1298" d="M24.5 121q-18.5 123 43.5 276q31 76 80 134.5t108 100.5t128 67.5t138 37.5q-10 80 13 164q-37 27 -70 59.5t-57 73.5q-43 66 -41 133.5t27.5 125t66.5 100.5t77.5 60t60 2.5t13.5 -71.5q-12 -72 2.5 -135t49.5 -116q45 51 100 93t118.5 72.5t134 48t148.5 15.5 q119 -2 196 -46t110.5 -107.5t24.5 -138.5t-61.5 -139.5t-148.5 -110.5t-235 -50q-131 -6 -265 23q-4 -14 -6 -26.5t-4 -27.5q66 -10 120 -30.5t90 -48t51.5 -62.5t0.5 -74q-12 -35 -46 -56.5t-80 -27.5t-97 4.5t-100 34.5q-80 43 -127 103q-86 -27 -146.5 -86.5t-94.5 -133 t-39 -153.5t19.5 -148.5t81 -116.5t146.5 -59q84 -8 143.5 33t86 104.5t14 136t-69.5 130.5q-29 27 -16.5 45t48.5 24.5t87 -1t99 -31t87 -64.5t51 -102q14 -80 -16.5 -158t-101 -139.5t-175 -98t-237.5 -36.5t-249 47t-189.5 135t-92 211zM858 971q66 -31 134.5 -42 t133.5 -1q100 14 151.5 60t54.5 94t-43 82t-142 26q-88 -8 -163 -70.5t-126 -148.5zM894 1448q7 33 42 72q25 29 63.5 66.5t80.5 74.5t80.5 68t58.5 43q29 18 70.5 21t76.5 -30q16 -16 42 -48t52.5 -74t51 -90t40.5 -95q16 -51 11.5 -77.5t-22 -32t-45.5 10t-56 50.5 q-37 41 -89.5 91t-101.5 91q-70 -33 -138.5 -82t-129.5 -108q-25 -25 -48.5 -24t-34.5 20.5t-4 52.5z" />
<glyph unicode="&#xcb;" horiz-adv-x="1298" d="M24.5 121q-18.5 123 43.5 276q31 76 80 134.5t108 100.5t128 67.5t138 37.5q-10 80 13 164q-37 27 -70 59.5t-57 73.5q-43 66 -41 133.5t27.5 125t66.5 100.5t77.5 60t60 2.5t13.5 -71.5q-12 -72 2.5 -135t49.5 -116q45 51 100 93t118.5 72.5t134 48t148.5 15.5 q119 -2 196 -46t110.5 -107.5t24.5 -138.5t-61.5 -139.5t-148.5 -110.5t-235 -50q-131 -6 -265 23q-4 -14 -6 -26.5t-4 -27.5q66 -10 120 -30.5t90 -48t51.5 -62.5t0.5 -74q-12 -35 -46 -56.5t-80 -27.5t-97 4.5t-100 34.5q-80 43 -127 103q-86 -27 -146.5 -86.5t-94.5 -133 t-39 -153.5t19.5 -148.5t81 -116.5t146.5 -59q84 -8 143.5 33t86 104.5t14 136t-69.5 130.5q-29 27 -16.5 45t48.5 24.5t87 -1t99 -31t87 -64.5t51 -102q14 -80 -16.5 -158t-101 -139.5t-175 -98t-237.5 -36.5t-249 47t-189.5 135t-92 211zM858 971q66 -31 134.5 -42 t133.5 -1q100 14 151.5 60t54.5 94t-43 82t-142 26q-88 -8 -163 -70.5t-126 -148.5zM922 1538q0 57 41 98t98 41t98 -41t41 -98t-41 -98t-98 -41t-98 41t-41 98zM1276 1538q0 57 41 98t98 41t98 -41t41 -98t-40.5 -98t-98.5 -41q-57 0 -98 41t-41 98z" />
<glyph unicode="&#xcc;" horiz-adv-x="1251" d="M21.5 -16.5q-7.5 94.5 52.5 204.5q27 49 59.5 76t59 32t39 -10.5t-2.5 -52.5q-20 -45 -13 -93t35 -86t72 -61.5t96 -21.5t107.5 35t106.5 107q39 55 82 135t89 171t94 189.5t97 194.5q-74 -20 -149.5 -21.5t-153.5 21.5q-63 18 -101 61t-55.5 93.5t-17.5 99.5t12.5 83 t34.5 43t49 -22q37 -43 94.5 -66.5t129 -30.5t153.5 0t168 28q209 328 354 241q27 -16 35 -47t-2 -70.5t-41.5 -85t-87.5 -90.5q-31 -25 -62.5 -49t-66.5 -47q-66 -119 -129 -261t-125.5 -283.5t-124 -267.5t-123.5 -212q-82 -113 -183 -168t-199.5 -61t-185.5 28.5 t-138 102t-58.5 162zM1129.5 1686.5q5.5 44.5 26 63.5t52.5 -15q31 -35 96.5 -74t137 -74t134 -61.5t91.5 -36.5t31 -31.5t-13.5 -42t-43 -31t-54.5 4.5q-18 8 -74.5 20t-121 28.5t-123 35t-82.5 38.5q-35 29 -48.5 80t-8 95.5z" />
<glyph unicode="&#xcd;" horiz-adv-x="1251" d="M21.5 -16.5q-7.5 94.5 52.5 204.5q27 49 59.5 76t59 32t39 -10.5t-2.5 -52.5q-20 -45 -13 -93t35 -86t72 -61.5t96 -21.5t107.5 35t106.5 107q39 55 82 135t89 171t94 189.5t97 194.5q-74 -20 -149.5 -21.5t-153.5 21.5q-63 18 -101 61t-55.5 93.5t-17.5 99.5t12.5 83 t34.5 43t49 -22q37 -43 94.5 -66.5t129 -30.5t153.5 0t168 28q209 328 354 241q27 -16 35 -47t-2 -70.5t-41.5 -85t-87.5 -90.5q-31 -25 -62.5 -49t-66.5 -47q-66 -119 -129 -261t-125.5 -283.5t-124 -267.5t-123.5 -212q-82 -113 -183 -168t-199.5 -61t-185.5 28.5 t-138 102t-58.5 162zM1257 1467.5q8 21.5 39 31.5t102.5 37t153.5 61.5t159 73.5t120 74q45 35 59.5 15.5t5 -63.5t-38 -95.5t-71.5 -79.5q-31 -20 -95.5 -39t-133 -35t-129 -28.5t-82.5 -20.5q-31 -14 -54.5 -4t-33 30.5t-1.5 42z" />
<glyph unicode="&#xce;" horiz-adv-x="1251" d="M21.5 -16.5q-7.5 94.5 52.5 204.5q27 49 59.5 76t59 32t39 -10.5t-2.5 -52.5q-20 -45 -13 -93t35 -86t72 -61.5t96 -21.5t107.5 35t106.5 107q39 55 82 135t89 171t94 189.5t97 194.5q-74 -20 -149.5 -21.5t-153.5 21.5q-63 18 -101 61t-55.5 93.5t-17.5 99.5t12.5 83 t34.5 43t49 -22q37 -43 94.5 -66.5t129 -30.5t153.5 0t168 28q209 328 354 241q27 -16 35 -47t-2 -70.5t-41.5 -85t-87.5 -90.5q-31 -25 -62.5 -49t-66.5 -47q-66 -119 -129 -261t-125.5 -283.5t-124 -267.5t-123.5 -212q-82 -113 -183 -168t-199.5 -61t-185.5 28.5 t-138 102t-58.5 162zM1097 1442q7 33 42 71q25 29 63.5 67t80.5 75t80 67.5t58 42.5q29 18 71 21.5t77 -29.5q16 -16 41.5 -48t52.5 -74t51.5 -90t40.5 -95q16 -51 11 -77.5t-22.5 -32t-45 10t-56.5 50.5q-37 41 -89 91t-101 91q-70 -33 -138.5 -82t-129.5 -108 q-25 -25 -48.5 -24t-34.5 20.5t-4 52.5z" />
<glyph unicode="&#xcf;" horiz-adv-x="1251" d="M21.5 -16.5q-7.5 94.5 52.5 204.5q27 49 59.5 76t59 32t39 -10.5t-2.5 -52.5q-20 -45 -13 -93t35 -86t72 -61.5t96 -21.5t107.5 35t106.5 107q39 55 82 135t89 171t94 189.5t97 194.5q-74 -20 -149.5 -21.5t-153.5 21.5q-63 18 -101 61t-55.5 93.5t-17.5 99.5t12.5 83 t34.5 43t49 -22q37 -43 94.5 -66.5t129 -30.5t153.5 0t168 28q209 328 354 241q27 -16 35 -47t-2 -70.5t-41.5 -85t-87.5 -90.5q-31 -25 -62.5 -49t-66.5 -47q-66 -119 -129 -261t-125.5 -283.5t-124 -267.5t-123.5 -212q-82 -113 -183 -168t-199.5 -61t-185.5 28.5 t-138 102t-58.5 162zM1165 1509q0 57 41 98.5t99 41.5q57 0 98 -41t41 -99q0 -57 -41 -98t-98 -41t-98.5 41t-41.5 98zM1520 1509q0 57 41 98.5t98 41.5t98 -41t41 -99q0 -57 -41 -98t-98 -41t-98 41t-41 98z" />
<glyph unicode="&#xd0;" horiz-adv-x="1886" d="M12 219q8 106 58.5 178t116 115t134 60.5t113.5 12.5t52.5 -30t-48.5 -63q-61 -43 -97 -105.5t-45 -129.5t7 -132.5t57 -116.5t108 -81.5t159 -28.5q119 2 231.5 50t214 127t185 183t143.5 221q82 160 113.5 299.5t5 243.5t-115.5 167.5t-249 70.5q-111 6 -192.5 -21 t-134 -71t-77 -98t-22.5 -104.5t30.5 -91t82.5 -55.5q41 74 70.5 133.5t45.5 89.5q20 43 39 63.5t38.5 27t42 5.5t50.5 -1q29 0 65 -1t59.5 -18.5t22.5 -57.5t-44 -118q-31 -55 -83 -140t-112 -181q45 0 84 -0.5t62 -2.5q33 -2 42 -24.5t-0.5 -50t-35 -50t-58.5 -24.5 q-31 -4 -83 -5t-111 -1q-43 -66 -82 -127.5t-71.5 -109.5t-56.5 -80.5t-32 -43.5q-37 -43 -82 -67.5t-108 -24.5t-59 45t59 146l141 258q-33 0 -57.5 -1t-34.5 -1q-29 -2 -35 17.5t5.5 46t35 50t51.5 31.5q33 8 121 12l41 74q-41 -10 -88 -10t-92 14.5t-83 47t-63 87.5 q-37 86 -1 188.5t133.5 188.5t253 140.5t360.5 41.5q227 -12 366.5 -100t198 -222t42 -300t-98.5 -336q-70 -147 -180.5 -275t-254 -222.5t-316.5 -148.5t-367 -52q-125 0 -232.5 42t-184.5 110.5t-118 156.5t-35 180z" />
<glyph unicode="&#xd1;" horiz-adv-x="1816" d="M16.5 103.5q6.5 58.5 21.5 93t34.5 38t33.5 -44.5q14 -51 47 -79.5t74 -38t86 1t84 37.5q33 20 64 55t59.5 76t54 85t48.5 85q47 86 95 191.5t101 212t109.5 206.5t116 177t124 122t134.5 43q37 0 59 -13.5t29.5 -30.5t-3 -34.5t-36.5 -30.5q-33 -14 -68 -66t-66.5 -134 t-56 -186.5t-33 -220.5t2 -236.5t47.5 -235.5q33 158 118.5 338t214.5 348t299 308.5t373 218.5q37 14 58.5 8t28.5 -20.5t-2 -33t-34 -26.5q-51 -18 -125.5 -70.5t-157.5 -129.5t-167 -176t-152 -214q-84 -141 -131 -291.5t-53 -280.5t29.5 -224.5t119.5 -118.5 q39 -10 35 -31t-34.5 -40.5t-82 -32.5t-107.5 -11t-109.5 23.5t-90.5 72.5q-49 61 -95 176t-75.5 258.5t-36 300t24.5 299.5q-35 -84 -65.5 -175t-61.5 -180t-61.5 -174t-61.5 -157q-53 -123 -123.5 -210t-150.5 -136t-163 -56t-163 32q-70 35 -105.5 92t-48 119.5t-6 121z M1391.5 1413.5q-7.5 16.5 9 44t69.5 58.5q104 63 193.5 83.5t138.5 -26.5q25 -23 47.5 -38t47 -20.5t53 4t65.5 35.5q35 25 63.5 26t40 -14.5t1 -42t-53.5 -57.5q-98 -70 -164.5 -97.5t-114.5 -29.5t-81 16.5t-59 41.5q-47 37 -76 44t-80 -24q-37 -23 -64.5 -21.5t-35 18z " />
<glyph unicode="&#xd2;" horiz-adv-x="1615" d="M76 314q6 167 98 360q47 98 112.5 190t147.5 172q-41 66 -39 132.5t29 124t67.5 100.5t77.5 59t59.5 1.5t14.5 -69.5q-16 -96 12 -174q123 74 258.5 115t282.5 37q113 -4 188.5 -44t110.5 -100.5t32 -131t-46 -134.5q27 -96 14.5 -228t-62 -273.5t-130 -276.5 t-190 -239.5t-246 -163t-292.5 -43.5q-152 14 -268.5 91t-176.5 202.5t-54 292.5zM368 350q-18 -123 0.5 -220t69.5 -161.5t127 -83.5q98 -23 192.5 11t175.5 106t144.5 172t100 206.5t42 212t-27.5 189.5q-27 -4 -55.5 -8t-57.5 -4q-117 -4 -235.5 17.5t-220.5 76.5 q-53 -59 -98.5 -123.5t-75.5 -132.5q-63 -135 -81 -258zM799 1024q78 -59 174 -85t182 -11q100 14 151.5 60t54.5 93t-43 82t-142 27q-90 -8 -187.5 -52t-189.5 -114zM927 1697q5 44 25.5 63.5t53.5 -15.5q31 -35 96 -74t137 -73.5t134 -61.5t91 -37t31 -31.5t-13.5 -42 t-43 -31t-54.5 4.5q-18 8 -74.5 20.5t-121 28.5t-122.5 34.5t-83 39.5q-35 29 -48 80t-8 95z" />
<glyph unicode="&#xd3;" horiz-adv-x="1615" d="M76 314q6 167 98 360q47 98 112.5 190t147.5 172q-41 66 -39 132.5t29 124t67.5 100.5t77.5 59t59.5 1.5t14.5 -69.5q-16 -96 12 -174q123 74 258.5 115t282.5 37q113 -4 188.5 -44t110.5 -100.5t32 -131t-46 -134.5q27 -96 14.5 -228t-62 -273.5t-130 -276.5 t-190 -239.5t-246 -163t-292.5 -43.5q-152 14 -268.5 91t-176.5 202.5t-54 292.5zM368 350q-18 -123 0.5 -220t69.5 -161.5t127 -83.5q98 -23 192.5 11t175.5 106t144.5 172t100 206.5t42 212t-27.5 189.5q-27 -4 -55.5 -8t-57.5 -4q-117 -4 -235.5 17.5t-220.5 76.5 q-53 -59 -98.5 -123.5t-75.5 -132.5q-63 -135 -81 -258zM799 1024q78 -59 174 -85t182 -11q100 14 151.5 60t54.5 93t-43 82t-142 27q-90 -8 -187.5 -52t-189.5 -114zM985 1492q8 22 39 32t102.5 36.5t153.5 61.5t159 74t120 73q45 35 59 15.5t5 -63.5t-38 -95t-72 -80 q-31 -20 -95 -38.5t-132.5 -35t-129 -28.5t-83.5 -21q-31 -14 -54.5 -3.5t-32.5 30.5t-1 42z" />
<glyph unicode="&#xd4;" horiz-adv-x="1615" d="M76 314q6 167 98 360q47 98 112.5 190t147.5 172q-41 66 -39 132.5t29 124t67.5 100.5t77.5 59t59.5 1.5t14.5 -69.5q-16 -96 12 -174q123 74 258.5 115t282.5 37q113 -4 188.5 -44t110.5 -100.5t32 -131t-46 -134.5q27 -96 14.5 -228t-62 -273.5t-130 -276.5 t-190 -239.5t-246 -163t-292.5 -43.5q-152 14 -268.5 91t-176.5 202.5t-54 292.5zM368 350q-18 -123 0.5 -220t69.5 -161.5t127 -83.5q98 -23 192.5 11t175.5 106t144.5 172t100 206.5t42 212t-27.5 189.5q-27 -4 -55.5 -8t-57.5 -4q-117 -4 -235.5 17.5t-220.5 76.5 q-53 -59 -98.5 -123.5t-75.5 -132.5q-63 -135 -81 -258zM799 1024q78 -59 174 -85t182 -11q100 14 151.5 60t54.5 93t-43 82t-142 27q-90 -8 -187.5 -52t-189.5 -114zM929 1495q7 33 42 72q25 29 63.5 66.5t80.5 74.5t80 68t58 43q29 18 71 21t77 -30q16 -16 41.5 -47.5 t52.5 -73.5t51.5 -90.5t40.5 -95.5q16 -51 11 -77.5t-22 -31.5t-45 10t-56 50q-37 41 -89.5 91t-101.5 91q-70 -33 -138.5 -82t-129.5 -108q-25 -25 -48.5 -24t-34.5 20.5t-4 52.5z" />
<glyph unicode="&#xd5;" horiz-adv-x="1615" d="M76 314q6 167 98 360q47 98 112.5 190t147.5 172q-41 66 -39 132.5t29 124t67.5 100.5t77.5 59t59.5 1.5t14.5 -69.5q-16 -96 12 -174q123 74 258.5 115t282.5 37q113 -4 188.5 -44t110.5 -100.5t32 -131t-46 -134.5q27 -96 14.5 -228t-62 -273.5t-130 -276.5 t-190 -239.5t-246 -163t-292.5 -43.5q-152 14 -268.5 91t-176.5 202.5t-54 292.5zM368 350q-18 -123 0.5 -220t69.5 -161.5t127 -83.5q98 -23 192.5 11t175.5 106t144.5 172t100 206.5t42 212t-27.5 189.5q-27 -4 -55.5 -8t-57.5 -4q-117 -4 -235.5 17.5t-220.5 76.5 q-53 -59 -98.5 -123.5t-75.5 -132.5q-63 -135 -81 -258zM799 1024q78 -59 174 -85t182 -11q100 14 151.5 60t54.5 93t-43 82t-142 27q-90 -8 -187.5 -52t-189.5 -114zM951 1491q-7 16 9.5 43.5t69.5 58.5q104 63 193.5 84t138.5 -26q25 -23 47.5 -38.5t47 -20.5t53 4.5 t65.5 35.5q35 25 63.5 26t40 -14.5t1 -42t-53.5 -57.5q-98 -70 -164.5 -97.5t-115 -29.5t-81 16.5t-59.5 41.5q-47 37 -75.5 44t-79.5 -24q-37 -23 -65 -21.5t-35 17.5z" />
<glyph unicode="&#xd6;" horiz-adv-x="1615" d="M76 314q6 167 98 360q47 98 112.5 190t147.5 172q-41 66 -39 132.5t29 124t67.5 100.5t77.5 59t59.5 1.5t14.5 -69.5q-16 -96 12 -174q123 74 258.5 115t282.5 37q113 -4 188.5 -44t110.5 -100.5t32 -131t-46 -134.5q27 -96 14.5 -228t-62 -273.5t-130 -276.5 t-190 -239.5t-246 -163t-292.5 -43.5q-152 14 -268.5 91t-176.5 202.5t-54 292.5zM368 350q-18 -123 0.5 -220t69.5 -161.5t127 -83.5q98 -23 192.5 11t175.5 106t144.5 172t100 206.5t42 212t-27.5 189.5q-27 -4 -55.5 -8t-57.5 -4q-117 -4 -235.5 17.5t-220.5 76.5 q-53 -59 -98.5 -123.5t-75.5 -132.5q-63 -135 -81 -258zM799 1024q78 -59 174 -85t182 -11q100 14 151.5 60t54.5 93t-43 82t-142 27q-90 -8 -187.5 -52t-189.5 -114zM930 1573q0 57 41 98t98 41t98 -41t41 -98t-41 -98t-98 -41t-98 41t-41 98zM1284 1573q0 57 41 98t98 41 t98.5 -41t41.5 -98t-41 -98t-99 -41q-57 0 -98 41t-41 98z" />
<glyph unicode="&#xd7;" horiz-adv-x="899" d="M169 116.5q-3 18.5 4 48.5t26 58q16 25 60 68t101 94q-25 53 -44 98t-27 74q-8 31 3 58.5t29.5 45t38 17.5t31.5 -27q10 -25 34 -69.5t50 -98.5q66 53 120 100.5t83 75.5q29 27 47 26t23.5 -19.5t-4 -47t-35.5 -59.5q-27 -31 -76 -76t-109 -98q29 -59 48.5 -109.5 t21.5 -76.5q0 -29 -12.5 -56.5t-28.5 -45t-32.5 -18.5t-22.5 23q-6 20 -31 71.5t-57 113.5q-66 -57 -119 -103.5t-70 -64.5q-23 -25 -36 -23t-16 20.5z" />
<glyph unicode="&#xd8;" horiz-adv-x="1615" d="M73.5 255q-10.5 189 100.5 419q47 98 112.5 190t147.5 172q-41 66 -39 132.5t29 124t67.5 100.5t77.5 59t59.5 2t14.5 -70q-16 -96 12 -174q123 74 258.5 115t282.5 37q98 -4 166 -34t108 -77l31 33q59 61 109.5 73.5t75 -10t12.5 -70.5t-76 -103l-94 -89 q-2 -68 -47 -133q27 -96 14.5 -228t-62 -273.5t-130 -276.5t-190 -239.5t-246 -163t-292.5 -43.5q-184 18 -313 125l-65 -56q-41 -31 -69 -37t-39 6.5t-3 40t39 64.5q10 12 24.5 28.5t32.5 37.5q-98 129 -108.5 318zM367 129q66 68 142.5 145.5t157.5 159.5t165.5 167 t166.5 169q-98 4 -194 25.5t-182 68.5q-53 -59 -98.5 -123.5t-75.5 -132.5q-63 -135 -82 -258t0 -221zM418 -2q53 -88 147 -113q96 -23 189.5 10t173.5 102t143.5 166t101 202.5t46 210t-20.5 188.5q-96 -96 -200.5 -198.5t-207 -204t-197.5 -194.5t-175 -169zM799 1024 q78 -59 173 -85t181 -11q55 55 105.5 105t93.5 95q-16 31 -60 48.5t-116 13.5q-90 -8 -187.5 -52t-189.5 -114z" />
<glyph unicode="&#xd9;" horiz-adv-x="1642" d="M4 1059q0 49 12.5 83t34.5 43t49 -22q33 -39 85.5 -61.5t116 -31.5t137 -5t151.5 18q55 74 114.5 129.5t113.5 89t101.5 44t79.5 -10.5q53 -35 34 -117.5t-130 -175.5q-66 -53 -140.5 -104t-158.5 -88q-68 -104 -110 -215q-63 -162 -86 -286t-10.5 -210t55.5 -135 t110 -61q68 -12 143.5 29.5t150.5 122.5t145.5 190.5t132 230.5t108.5 245t73.5 233.5t30 195.5t-23.5 131q-23 37 -10.5 55.5t44.5 17.5t77 -20.5t87 -56.5t73.5 -93.5t39.5 -127.5q10 -106 -30.5 -250t-118.5 -294.5t-186.5 -295.5t-233.5 -257t-258 -175.5t-262 -50.5 q-115 12 -189.5 93t-98.5 216t11 315.5t142 393.5q-57 -10 -114.5 -7.5t-117.5 21.5q-63 18 -101 61t-55.5 93.5t-17.5 99.5zM875.5 1758q5.5 44 26 63.5t52.5 -15.5q31 -35 96.5 -73.5t137.5 -73.5t134 -61.5t91 -36.5t31 -32t-13.5 -42.5t-43 -30.5t-54.5 4 q-18 8 -74.5 20.5t-121 29t-123 35t-82.5 38.5q-35 29 -48.5 80t-8 95z" />
<glyph unicode="&#xda;" horiz-adv-x="1642" d="M4 1059q0 49 12.5 83t34.5 43t49 -22q33 -39 85.5 -61.5t116 -31.5t137 -5t151.5 18q55 74 114.5 129.5t113.5 89t101.5 44t79.5 -10.5q53 -35 34 -117.5t-130 -175.5q-66 -53 -140.5 -104t-158.5 -88q-68 -104 -110 -215q-63 -162 -86 -286t-10.5 -210t55.5 -135 t110 -61q68 -12 143.5 29.5t150.5 122.5t145.5 190.5t132 230.5t108.5 245t73.5 233.5t30 195.5t-23.5 131q-23 37 -10.5 55.5t44.5 17.5t77 -20.5t87 -56.5t73.5 -93.5t39.5 -127.5q10 -106 -30.5 -250t-118.5 -294.5t-186.5 -295.5t-233.5 -257t-258 -175.5t-262 -50.5 q-115 12 -189.5 93t-98.5 216t11 315.5t142 393.5q-57 -10 -114.5 -7.5t-117.5 21.5q-63 18 -101 61t-55.5 93.5t-17.5 99.5zM999 1496.5q8 21.5 39 31.5t102.5 36.5t153.5 61.5t159 74t120 74q45 35 59.5 15t5 -64t-38 -95t-71.5 -80q-31 -20 -95.5 -38.5t-133 -35 t-129 -28.5t-83.5 -21q-31 -14 -54 -3.5t-32.5 31t-1.5 42z" />
<glyph unicode="&#xdb;" horiz-adv-x="1642" d="M4 1059q0 49 12.5 83t34.5 43t49 -22q33 -39 85.5 -61.5t116 -31.5t137 -5t151.5 18q55 74 114.5 129.5t113.5 89t101.5 44t79.5 -10.5q53 -35 34 -117.5t-130 -175.5q-66 -53 -140.5 -104t-158.5 -88q-68 -104 -110 -215q-63 -162 -86 -286t-10.5 -210t55.5 -135 t110 -61q68 -12 143.5 29.5t150.5 122.5t145.5 190.5t132 230.5t108.5 245t73.5 233.5t30 195.5t-23.5 131q-23 37 -10.5 55.5t44.5 17.5t77 -20.5t87 -56.5t73.5 -93.5t39.5 -127.5q10 -106 -30.5 -250t-118.5 -294.5t-186.5 -295.5t-233.5 -257t-258 -175.5t-262 -50.5 q-115 12 -189.5 93t-98.5 216t11 315.5t142 393.5q-57 -10 -114.5 -7.5t-117.5 21.5q-63 18 -101 61t-55.5 93.5t-17.5 99.5zM896 1513.5q7 32.5 42 71.5q25 29 63.5 67t80.5 74.5t80.5 67.5t58.5 43q29 18 70.5 21.5t76.5 -29.5q16 -16 42 -48t52.5 -74t51 -90t40.5 -95 q16 -51 11.5 -78t-22 -32t-45.5 10.5t-56 50.5q-37 41 -89.5 91t-101.5 91q-70 -33 -138.5 -82t-129.5 -109q-25 -25 -48.5 -23.5t-34.5 21t-4 52z" />
<glyph unicode="&#xdc;" horiz-adv-x="1642" d="M4 1059q0 49 12.5 83t34.5 43t49 -22q33 -39 85.5 -61.5t116 -31.5t137 -5t151.5 18q55 74 114.5 129.5t113.5 89t101.5 44t79.5 -10.5q53 -35 34 -117.5t-130 -175.5q-66 -53 -140.5 -104t-158.5 -88q-68 -104 -110 -215q-63 -162 -86 -286t-10.5 -210t55.5 -135 t110 -61q68 -12 143.5 29.5t150.5 122.5t145.5 190.5t132 230.5t108.5 245t73.5 233.5t30 195.5t-23.5 131q-23 37 -10.5 55.5t44.5 17.5t77 -20.5t87 -56.5t73.5 -93.5t39.5 -127.5q10 -106 -30.5 -250t-118.5 -294.5t-186.5 -295.5t-233.5 -257t-258 -175.5t-262 -50.5 q-115 12 -189.5 93t-98.5 216t11 315.5t142 393.5q-57 -10 -114.5 -7.5t-117.5 21.5q-63 18 -101 61t-55.5 93.5t-17.5 99.5zM915 1585q0 57 41 98t99 41q57 0 98 -41t41 -98t-41 -98t-98 -41t-98.5 41t-41.5 98zM1270 1585q0 57 41 98t98 41t98 -41t41 -98t-41 -98t-98 -41 t-98 41t-41 98z" />
<glyph unicode="&#xdd;" horiz-adv-x="1339" d="M22.5 1070q4.5 50 18.5 84t36.5 43t47.5 -21q59 -78 172 -118t262 -18q66 86 134.5 154t131 108.5t114.5 54t85 -8.5q49 -35 23.5 -120t-142.5 -177q-90 -72 -196 -138q-43 -74 -70 -145.5t-34 -130.5t5.5 -103.5t48.5 -60.5q45 -23 93.5 -7.5t97.5 56.5t97 101.5 t93 130.5q51 90 104.5 178t109 166t113 142.5t112.5 105.5q37 29 62.5 29.5t35.5 -13.5t2 -41t-39 -53q-70 -61 -136.5 -189.5t-134 -287t-139 -329.5t-147.5 -319q-66 -127 -146.5 -218t-167.5 -141t-174 -57.5t-167 33.5q-70 35 -102.5 90.5t-42 112.5t2 109.5t29.5 81 t38.5 26.5t31.5 -51q10 -53 38.5 -86t68.5 -45t88 -7t98 29q51 25 106 78.5t105.5 117t89.5 127t55 108.5h-2q-41 -53 -101.5 -103.5t-128 -85.5t-136 -46t-124.5 17q-53 27 -90 77t-44 127t20.5 179.5t105.5 235.5q-25 -12 -58.5 -24.5t-69.5 -18.5t-70.5 -7t-63.5 9 q-59 20 -93 63.5t-47.5 94.5t-9 101zM1067 1473.5q8 21.5 39 31.5t102.5 37t153.5 61.5t158.5 73.5t119.5 74q45 35 59.5 15.5t5.5 -63.5t-38 -95.5t-72 -79.5q-31 -20 -95 -39t-133 -35t-129 -28.5t-83 -20.5q-31 -14 -54.5 -4t-32.5 30.5t-1 42z" />
<glyph unicode="&#xde;" horiz-adv-x="1751" d="M14 40q6 48 19.5 76.5t30 31t28.5 -36.5q12 -43 40 -67t63.5 -31t73.5 1.5t73 30.5q27 18 54.5 47t52 62.5t47 69.5t41.5 69l110 213q-41 -16 -93 -23.5t-104.5 5t-98.5 46t-72 97.5q-37 86 -2.5 183t132 181t253 139.5t362.5 55.5h14q72 94 139 152.5t126 56.5 q53 -2 42.5 -38t-71.5 -93q-29 -29 -74 -97q174 -35 275.5 -132t130 -223t-13.5 -262t-150.5 -250t-283.5 -187.5t-413 -73.5q-55 0 -88 8q-47 -96 -106 -164.5t-126 -106.5t-136.5 -42t-136.5 26q-59 29 -90 77t-42.5 99.5t-5.5 99.5zM547.5 847q-25.5 -73 10.5 -137 t116 -87q20 -8 26 -13q57 111 122 227.5t130 221.5q-186 -16 -282.5 -77.5t-122 -134.5zM715 176q24 -10 55 -8q127 8 232.5 69.5t179 150.5t113.5 193.5t37 200t-52 169t-152 100.5q-51 -92 -106 -206t-109.5 -231.5t-105.5 -231.5t-92 -206z" />
<glyph unicode="&#xdf;" horiz-adv-x="927" d="M-266 -125.5q-10 53.5 55 172.5q31 57 83 153.5t116.5 211t137.5 238.5t146.5 236.5t144 204t132.5 142.5q61 51 138 63.5t141.5 -13.5t103.5 -87t24 -160q-10 -61 -36.5 -111.5t-65.5 -90t-87 -70.5t-101 -55q41 -27 57 -77t10 -113.5t-36.5 -136.5t-86.5 -146 q-31 -43 -63 -76q59 18 117.5 49t109.5 67.5t91 76.5t63 77q20 33 41.5 44t36 3t16.5 -31.5t-18 -58.5q-53 -94 -152.5 -168t-214.5 -123t-227.5 -74.5t-190.5 -21.5q-43 -2 -94 12.5t-86 36.5l-16 -33q-25 -51 -48.5 -79.5t-48 -45t-53 -26t-61.5 -21.5q-68 -23 -78 30.5z M119 190q14 -16 43 -26q35 -12 79 0t90 43t88 75t73 95q20 37 33.5 74.5t12.5 68.5t-17.5 51.5t-53.5 20.5q-39 0 -85 -34t-92 -90t-90 -129t-81 -149zM399 676q53 10 112.5 51t113 91t93.5 100.5t56 78.5q25 45 31 85t-1 64.5t-28.5 32t-54.5 -13.5q-33 -20 -81 -85.5 t-96 -143.5t-88.5 -151.5t-56.5 -108.5z" />
<glyph unicode="&#xe0;" horiz-adv-x="1003" d="M-45 159.5q-18 71.5 2 162t88 182.5q63 86 143 142t160 79t153.5 9.5t127.5 -66.5q16 29 29.5 46t30 27.5t38 15.5t51.5 11q33 4 61.5 6t45 -5t18.5 -26.5t-18 -56.5q-20 -39 -46 -83t-51.5 -88t-49 -85t-42.5 -72q-18 -33 -34.5 -64.5t-24.5 -57t-4 -42t31 -16.5 q37 0 84 20.5t94 55.5t89 80t73 96q20 33 41.5 44t36 3t16.5 -31.5t-17 -58.5q-35 -63 -101.5 -132t-140 -125t-146 -93t-120.5 -37q-68 0 -114.5 28.5t-52.5 90.5q-45 -47 -106.5 -83t-139.5 -36q-80 0 -133.5 44t-71.5 115.5zM147.5 256q6.5 -27 29 -43t59.5 -16 q86 0 169.5 90t155.5 243q-20 29 -51 39q-35 12 -80 5t-91 -31.5t-89 -64.5t-74 -91q-20 -35 -27.5 -69.5t-1 -61.5zM394 1226q5 44 25.5 63.5t53.5 -15.5q31 -35 96.5 -74t137 -73.5t134 -61.5t91.5 -37t31 -31.5t-13.5 -42t-43 -31t-54.5 4.5q-18 8 -74.5 20.5t-121 28.5 t-123 34.5t-82.5 39.5q-35 29 -48.5 80t-8.5 95z" />
<glyph unicode="&#xe1;" horiz-adv-x="1003" d="M-45 159.5q-18 71.5 2 162t88 182.5q63 86 143 142t160 79t153.5 9.5t127.5 -66.5q16 29 29.5 46t30 27.5t38 15.5t51.5 11q33 4 61.5 6t45 -5t18.5 -26.5t-18 -56.5q-20 -39 -46 -83t-51.5 -88t-49 -85t-42.5 -72q-18 -33 -34.5 -64.5t-24.5 -57t-4 -42t31 -16.5 q37 0 84 20.5t94 55.5t89 80t73 96q20 33 41.5 44t36 3t16.5 -31.5t-17 -58.5q-35 -63 -101.5 -132t-140 -125t-146 -93t-120.5 -37q-68 0 -114.5 28.5t-52.5 90.5q-45 -47 -106.5 -83t-139.5 -36q-80 0 -133.5 44t-71.5 115.5zM147.5 256q6.5 -27 29 -43t59.5 -16 q86 0 169.5 90t155.5 243q-20 29 -51 39q-35 12 -80 5t-91 -31.5t-89 -64.5t-74 -91q-20 -35 -27.5 -69.5t-1 -61.5zM454.5 996.5q8.5 21.5 39.5 31.5t102.5 37t153 61.5t158.5 73.5t120 74q45 35 59.5 15.5t5 -63.5t-38 -95.5t-71.5 -79.5q-31 -20 -95.5 -39t-133 -35 t-129 -28.5t-82.5 -20.5q-31 -14 -54.5 -4t-33 30.5t-1 42z" />
<glyph unicode="&#xe2;" horiz-adv-x="1003" d="M-45 159.5q-18 71.5 2 162t88 182.5q63 86 143 142t160 79t153.5 9.5t127.5 -66.5q16 29 29.5 46t30 27.5t38 15.5t51.5 11q33 4 61.5 6t45 -5t18.5 -26.5t-18 -56.5q-20 -39 -46 -83t-51.5 -88t-49 -85t-42.5 -72q-18 -33 -34.5 -64.5t-24.5 -57t-4 -42t31 -16.5 q37 0 84 20.5t94 55.5t89 80t73 96q20 33 41.5 44t36 3t16.5 -31.5t-17 -58.5q-35 -63 -101.5 -132t-140 -125t-146 -93t-120.5 -37q-68 0 -114.5 28.5t-52.5 90.5q-45 -47 -106.5 -83t-139.5 -36q-80 0 -133.5 44t-71.5 115.5zM147.5 256q6.5 -27 29 -43t59.5 -16 q86 0 169.5 90t155.5 243q-20 29 -51 39q-35 12 -80 5t-91 -31.5t-89 -64.5t-74 -91q-20 -35 -27.5 -69.5t-1 -61.5zM378 997.5q7 32.5 42 71.5q25 29 63.5 67t80.5 74.5t80 67.5t58 43q29 18 71 21.5t77 -29.5q16 -16 42 -48t52.5 -74t51 -90t40.5 -95q16 -51 11 -78 t-22 -32t-45 10.5t-56 49.5q-37 41 -89.5 91.5t-101.5 91.5q-70 -33 -138.5 -82t-129.5 -109q-25 -25 -48.5 -23.5t-34.5 21t-4 52z" />
<glyph unicode="&#xe3;" horiz-adv-x="1003" d="M-45 159.5q-18 71.5 2 162t88 182.5q63 86 143 142t160 79t153.5 9.5t127.5 -66.5q16 29 29.5 46t30 27.5t38 15.5t51.5 11q33 4 61.5 6t45 -5t18.5 -26.5t-18 -56.5q-20 -39 -46 -83t-51.5 -88t-49 -85t-42.5 -72q-18 -33 -34.5 -64.5t-24.5 -57t-4 -42t31 -16.5 q37 0 84 20.5t94 55.5t89 80t73 96q20 33 41.5 44t36 3t16.5 -31.5t-17 -58.5q-35 -63 -101.5 -132t-140 -125t-146 -93t-120.5 -37q-68 0 -114.5 28.5t-52.5 90.5q-45 -47 -106.5 -83t-139.5 -36q-80 0 -133.5 44t-71.5 115.5zM147.5 256q6.5 -27 29 -43t59.5 -16 q86 0 169.5 90t155.5 243q-20 29 -51 39q-35 12 -80 5t-91 -31.5t-89 -64.5t-74 -91q-20 -35 -27.5 -69.5t-1 -61.5zM410.5 1022q-7.5 16 9 43.5t69.5 58.5q104 63 193.5 84t138.5 -26q25 -23 47.5 -38.5t47 -20.5t53 4.5t65.5 35.5q35 25 63.5 26t40 -14.5t1 -42 t-53.5 -57.5q-98 -70 -164.5 -97.5t-114.5 -29.5t-81 16.5t-59 41.5q-47 37 -76 44t-80 -24q-37 -23 -64.5 -21.5t-35 17.5z" />
<glyph unicode="&#xe4;" horiz-adv-x="1003" d="M-45 159.5q-18 71.5 2 162t88 182.5q63 86 143 142t160 79t153.5 9.5t127.5 -66.5q16 29 29.5 46t30 27.5t38 15.5t51.5 11q33 4 61.5 6t45 -5t18.5 -26.5t-18 -56.5q-20 -39 -46 -83t-51.5 -88t-49 -85t-42.5 -72q-18 -33 -34.5 -64.5t-24.5 -57t-4 -42t31 -16.5 q37 0 84 20.5t94 55.5t89 80t73 96q20 33 41.5 44t36 3t16.5 -31.5t-17 -58.5q-35 -63 -101.5 -132t-140 -125t-146 -93t-120.5 -37q-68 0 -114.5 28.5t-52.5 90.5q-45 -47 -106.5 -83t-139.5 -36q-80 0 -133.5 44t-71.5 115.5zM147.5 256q6.5 -27 29 -43t59.5 -16 q86 0 169.5 90t155.5 243q-20 29 -51 39q-35 12 -80 5t-91 -31.5t-89 -64.5t-74 -91q-20 -35 -27.5 -69.5t-1 -61.5zM356 1085q0 57 41 98.5t99 41.5q57 0 98 -41t41 -99q0 -57 -41 -98t-98 -41t-98.5 41t-41.5 98zM711 1085q0 57 41 98.5t98 41.5t98 -41t41 -99 q0 -57 -41 -98t-98 -41t-98 41t-41 98z" />
<glyph unicode="&#xe5;" horiz-adv-x="1003" d="M-45 159.5q-18 71.5 2 162t88 182.5q63 86 143 142t160 79t153.5 9.5t127.5 -66.5q16 29 29.5 46t30 27.5t38 15.5t51.5 11q33 4 61.5 6t45 -5t18.5 -26.5t-18 -56.5q-20 -39 -46 -83t-51.5 -88t-49 -85t-42.5 -72q-18 -33 -34.5 -64.5t-24.5 -57t-4 -42t31 -16.5 q37 0 84 20.5t94 55.5t89 80t73 96q20 33 41.5 44t36 3t16.5 -31.5t-17 -58.5q-35 -63 -101.5 -132t-140 -125t-146 -93t-120.5 -37q-68 0 -114.5 28.5t-52.5 90.5q-45 -47 -106.5 -83t-139.5 -36q-80 0 -133.5 44t-71.5 115.5zM147.5 256q6.5 -27 29 -43t59.5 -16 q86 0 169.5 90t155.5 243q-20 29 -51 39q-35 12 -80 5t-91 -31.5t-89 -64.5t-74 -91q-20 -35 -27.5 -69.5t-1 -61.5zM449 1085q0 51 20 98.5t54 81t80 54t99 20.5q51 0 98.5 -20.5t81 -54t54 -80.5t20.5 -99q0 -53 -20.5 -99t-54 -80t-80.5 -54.5t-99 -20.5q-53 0 -99 20.5 t-80 54.5t-54 80t-20 99zM580 1085q0 -51 35.5 -86.5t86.5 -35.5t87 35.5t36 86.5t-35.5 87t-87.5 36q-51 0 -86.5 -36t-35.5 -87z" />
<glyph unicode="&#xe6;" horiz-adv-x="1110" d="M-45 159.5q-18 71.5 2 162t88 182.5q61 84 138 139t155 78.5t150.5 13.5t125.5 -55q74 66 162 92.5t180 -10.5q55 -25 84 -64t31 -86t-21.5 -97t-72.5 -93q-66 -59 -159 -99t-187 -55q10 -45 42 -68.5t68 -29.5q53 -10 119 7.5t131.5 53t126 87t105.5 112.5q25 31 48 41 t37.5 2t14.5 -30.5t-23 -55.5q-61 -88 -134.5 -159.5t-153.5 -122t-165 -78t-167 -27.5q-100 0 -167 40t-95 112l-12 -33q-45 -47 -106.5 -83t-139.5 -36q-80 0 -133.5 44t-71.5 115.5zM147.5 256q6.5 -27 29 -43t59.5 -16q78 0 163 86q4 45 17.5 94t42.5 102 q10 23 23.5 44.5t29.5 43.5l-2 2q-35 12 -80 5t-91 -31.5t-89 -64.5t-74 -91q-20 -35 -27.5 -69.5t-1 -61.5zM641 389q68 12 140.5 44t125.5 104q37 49 19.5 78.5t-61.5 24.5t-102 -54t-106 -156z" />
<glyph unicode="&#xe7;" horiz-adv-x="784" d="M-99 -277.5q1 41.5 20.5 64.5t37.5 -6q25 -39 73 -55.5t97 -14.5t87 17.5t40 40.5q2 35 -45 58t-117 23q-35 0 -49 6.5t-16 15.5t5 20.5t17 21.5l84 100q-63 20 -105 63.5t-58.5 105t-5.5 137t54 159.5q35 70 91.5 133.5t125 106.5t144.5 56t149 -17q61 -25 89 -69 t27 -92t-28.5 -93t-78.5 -70q-61 -31 -101.5 -16.5t-51.5 49.5t11.5 81t85.5 79q18 29 -5 37t-66 -12.5t-96.5 -74t-94.5 -147.5q-29 -63 -31 -109.5t13.5 -78t42 -49t57.5 -23.5q53 -10 118.5 7.5t131 53t126 87t105.5 112.5q25 31 48.5 41t38 2t14.5 -30.5t-23 -55.5 q-113 -162 -261 -264.5t-302 -120.5q-18 -18 -33.5 -36.5t-26 -34t-13.5 -24.5t5 -9q29 0 56.5 -9.5t49 -25t34 -40t12.5 -54.5q0 -41 -25.5 -82t-71.5 -72t-110.5 -45t-140.5 2q-78 16 -106.5 62.5t-27.5 88z" />
<glyph unicode="&#xe8;" horiz-adv-x="671" d="M-38 293q7 88 58 186q35 70 89.5 134.5t121 107.5t140 57.5t147.5 -16.5q55 -25 84 -64t31 -86t-21.5 -97t-72.5 -93q-66 -59 -159 -99t-187 -55q10 -45 41.5 -68.5t68.5 -29.5q53 -10 118.5 7.5t131 53t126 87t105.5 112.5q25 31 48.5 41t38 2t14.5 -30.5t-23 -55.5 q-61 -88 -135 -159.5t-153.5 -122t-164.5 -78t-167 -27.5q-94 0 -160 38t-96.5 102.5t-23.5 152.5zM155 1226q5 44 25.5 63.5t52.5 -15.5q31 -35 96.5 -74t137.5 -73.5t134 -61.5t91 -37t31 -31.5t-13.5 -42t-43 -31t-54.5 4.5q-18 8 -74.5 20.5t-121 28.5t-122.5 34.5 t-83 39.5q-35 29 -48 80t-8 95zM203 389q68 12 140.5 44t125.5 104q37 49 19.5 78.5t-61.5 24.5t-102.5 -54t-105.5 -156z" />
<glyph unicode="&#xe9;" horiz-adv-x="671" d="M-38 293q7 88 58 186q35 70 89.5 134.5t121 107.5t140 57.5t147.5 -16.5q55 -25 84 -64t31 -86t-21.5 -97t-72.5 -93q-66 -59 -159 -99t-187 -55q10 -45 41.5 -68.5t68.5 -29.5q53 -10 118.5 7.5t131 53t126 87t105.5 112.5q25 31 48.5 41t38 2t14.5 -30.5t-23 -55.5 q-61 -88 -135 -159.5t-153.5 -122t-164.5 -78t-167 -27.5q-94 0 -160 38t-96.5 102.5t-23.5 152.5zM203 389q68 12 140.5 44t125.5 104q37 49 19.5 78.5t-61.5 24.5t-102.5 -54t-105.5 -156zM231 996.5q8 21.5 39 31.5t102.5 37t153.5 61.5t159 73.5t120 74q45 35 59.5 15.5 t5 -63.5t-38 -95.5t-71.5 -79.5q-31 -20 -95.5 -39t-133 -35t-129 -28.5t-83.5 -20.5q-31 -14 -54 -4t-32.5 30.5t-1.5 42z" />
<glyph unicode="&#xea;" horiz-adv-x="671" d="M-38 293q7 88 58 186q35 70 89.5 134.5t121 107.5t140 57.5t147.5 -16.5q55 -25 84 -64t31 -86t-21.5 -97t-72.5 -93q-66 -59 -159 -99t-187 -55q10 -45 41.5 -68.5t68.5 -29.5q53 -10 118.5 7.5t131 53t126 87t105.5 112.5q25 31 48.5 41t38 2t14.5 -30.5t-23 -55.5 q-61 -88 -135 -159.5t-153.5 -122t-164.5 -78t-167 -27.5q-94 0 -160 38t-96.5 102.5t-23.5 152.5zM120 997.5q7 32.5 42 71.5q25 29 63.5 67t80.5 74.5t80 67.5t58 43q29 18 71 21.5t77 -29.5q16 -16 41.5 -48t52.5 -74t51.5 -90t40.5 -95q16 -51 11 -78t-22 -32t-45 10.5 t-56 49.5q-37 41 -89.5 91.5t-101.5 91.5q-70 -33 -138.5 -82t-129.5 -109q-25 -25 -48.5 -23.5t-34.5 21t-4 52zM203 389q68 12 140.5 44t125.5 104q37 49 19.5 78.5t-61.5 24.5t-102.5 -54t-105.5 -156z" />
</font>
</defs>
</svg>
